<?xml version="1.0" encoding="utf-8"?>
<!-- Generator: Adobe Illustrator 19.2.1, SVG Export Plug-In . SVG Version: 6.00 Build 0)  -->
<svg version="1.1" xmlns="http://www.w3.org/2000/svg" xmlns:xlink="http://www.w3.org/1999/xlink" x="0px" y="0px"
	 viewBox="0 0 314.6 436.5" style="enable-background:new 0 0 314.6 436.5;" xml:space="preserve">
<style type="text/css">
	.st0{fill:#FF6A4B;}
	.st1{fill:#ECECEC;stroke:#FFFFFF;stroke-width:7;stroke-linejoin:round;stroke-miterlimit:10;}
	.st2{fill:#ECECEC;}
	.st3{fill:none;stroke:#D9D9D9;stroke-width:7;stroke-miterlimit:10;}
	.st4{fill:#FF6A4B;stroke:#FFFFFF;stroke-width:3;stroke-miterlimit:10;}
	.st5{fill:none;stroke:#023843;stroke-miterlimit:10;}
	.st6{fill:#FFFFFF;}
	.st7{fill:none;stroke:#FF6A4B;stroke-width:2;stroke-miterlimit:10;}
	.st8{fill:none;stroke:#FF6A4B;stroke-width:7;stroke-miterlimit:10;}
	.st9{fill:none;stroke:#FFFFFF;stroke-width:7;stroke-miterlimit:10;}
	.st10{fill:none;stroke:#FFFFFF;stroke-width:7;stroke-linejoin:round;stroke-miterlimit:10;}
	.st11{clip-path:url(#SVGID_2_);}
	.st12{fill:none;stroke:#ECECEC;stroke-width:7;stroke-linecap:round;stroke-miterlimit:10;}
	.st13{fill:none;stroke:#ECECEC;stroke-width:8;stroke-miterlimit:10;}
	.st14{fill:none;stroke:#FF6A4B;stroke-width:3.5;stroke-linecap:round;stroke-miterlimit:10;}
	.st15{fill:#FF6A4B;stroke:#FF6A4B;stroke-width:3.5;stroke-miterlimit:10;}
	.st16{enable-background:new    ;}
	.st17{clip-path:url(#SVGID_4_);}
	.st18{fill:none;stroke:#FFFFFF;stroke-width:3.5;stroke-miterlimit:10;}
	.st19{clip-path:url(#SVGID_6_);}
	.st20{fill-rule:evenodd;clip-rule:evenodd;fill:#ECECEC;}
	.st21{clip-path:url(#SVGID_8_);}
	.st22{fill:none;}
	.st23{fill:#ECECEC;stroke:#ECECEC;stroke-linejoin:round;stroke-miterlimit:10;}
	.st24{fill:#ECECEC;stroke:#ECECEC;stroke-linecap:round;stroke-miterlimit:10;}
	.st25{fill:none;stroke:#ECECEC;stroke-width:2;stroke-linecap:round;stroke-miterlimit:10;}
	.st26{fill:#ECECEC;stroke:#FFFFFF;stroke-width:2;stroke-miterlimit:10;}
	.st27{clip-path:url(#SVGID_10_);}
	.st28{clip-path:url(#SVGID_12_);}
	.st29{fill:#ECECEC;stroke:#FFFFFF;stroke-miterlimit:10;}
	.st30{clip-path:url(#SVGID_14_);}
	.st31{fill:none;stroke:#FF6A4B;stroke-width:7;stroke-linejoin:round;}
	.st32{fill:none;stroke:#FF6A4B;stroke-width:7;stroke-linejoin:round;stroke-dasharray:14.4314,7.2157;}
	.st33{fill:none;stroke:#FF6A4B;stroke-width:7;stroke-linejoin:round;stroke-dasharray:13.4186,6.7093;}
	.st34{clip-path:url(#SVGID_16_);}
	.st35{fill:none;stroke:#FFFFFF;stroke-width:3;stroke-miterlimit:10;}
	.st36{fill:none;stroke:#ECECEC;stroke-width:3.5;stroke-miterlimit:10;}
	.st37{fill:#1D1D1B;}
	.st38{clip-path:url(#SVGID_18_);fill:#1D1D1B;}
</style>
<g id="Layer_4">
</g>
<g id="Layer_1">
	<g>
		<g>
			<polygon class="st0" points="44.2,321.3 0,316 0,248.4 44.2,248.4 			"/>
			<path class="st0" d="M59.8,251.7l18.6-33l-1.8-22.6c0,0,9.9-9.4,18-1.4c9.2,9.1,8.8,27,7.5,32.1c-0.9,3.6-2.4,9.7-2.4,9.7
				l34.6,0.3c7.5,0,13.6,6.1,13.6,13.6c0,3.3-1.1,6.2-3.1,8.6c2.9,2.5,4.8,6.2,4.8,10.4c0,5.1-2.8,9.5-6.9,11.8
				c0.8,1.7,1.2,3.6,1.2,5.6c0,5.7-3.5,10.6-8.5,12.6c0.4,1.2,0.6,2.5,0.6,3.8c0,7.5-6.1,13.6-13.6,13.6c0,0-43.2,0-48.7,0
				c-5.5,0-13.9-5.6-13.9-5.6v0.2h-8.6v-59.8H59.8z"/>
		</g>
		<polygon class="st2" points="270.4,310.9 314.6,305.6 314.6,238 270.4,238 		"/>
		<path class="st2" d="M254.8,302l-18.6,33l1.8,22.6c0,0-9.9,9.4-18,1.4c-9.2-9.1-8.8-27-7.5-32.1c0.9-3.6,2.4-9.7,2.4-9.7
			l-34.6-0.3c-7.5,0-13.6-6.1-13.6-13.6c0-3.3,1.1-6.2,3.1-8.6c-2.9-2.5-4.8-6.2-4.8-10.4c0-5.1,2.8-9.5,6.9-11.8
			c-0.8-1.7-1.2-3.6-1.2-5.6c0-5.7,3.5-10.6,8.5-12.6c-0.4-1.2-0.6-2.5-0.6-3.8c0-7.5,6.1-13.6,13.6-13.6c0,0,43.2,0,48.7,0
			c5.5,0,13.9,5.6,13.9,5.6v-0.2h8.6V302H254.8z"/>
	</g>
	<g id="New_Symbol">
	</g>
	<g id="New_Symbol_2_">
	</g>
	<g id="New_Symbol_1_">
	</g>
</g>
<g id="Layer_3">
</g>
</svg>
