<?xml version="1.0" encoding="utf-8"?>
<!-- Generator: Adobe Illustrator 19.2.1, SVG Export Plug-In . SVG Version: 6.00 Build 0)  -->
<svg version="1.1" xmlns="http://www.w3.org/2000/svg" xmlns:xlink="http://www.w3.org/1999/xlink" x="0px" y="0px"
	 viewBox="0 0 314.6 436.5" style="enable-background:new 0 0 314.6 436.5;" xml:space="preserve">
<style type="text/css">
	.st0{fill:#FF6A4B;}
	.st1{fill:#ECECEC;stroke:#FFFFFF;stroke-width:7;stroke-linejoin:round;stroke-miterlimit:10;}
	.st2{fill:#ECECEC;}
	.st3{fill:none;stroke:#D9D9D9;stroke-width:7;stroke-miterlimit:10;}
	.st4{fill:#FF6A4B;stroke:#FFFFFF;stroke-width:3;stroke-miterlimit:10;}
	.st5{fill:none;stroke:#023843;stroke-miterlimit:10;}
	.st6{fill:#FFFFFF;}
	.st7{fill:none;stroke:#FF6A4B;stroke-width:2;stroke-miterlimit:10;}
	.st8{fill:none;stroke:#FF6A4B;stroke-width:7;stroke-miterlimit:10;}
	.st9{fill:none;stroke:#FFFFFF;stroke-width:7;stroke-miterlimit:10;}
	.st10{fill:none;stroke:#FFFFFF;stroke-width:7;stroke-linejoin:round;stroke-miterlimit:10;}
	.st11{clip-path:url(#SVGID_2_);}
	.st12{fill:none;stroke:#ECECEC;stroke-width:7;stroke-linecap:round;stroke-miterlimit:10;}
	.st13{fill:none;stroke:#ECECEC;stroke-width:8;stroke-miterlimit:10;}
	.st14{fill:none;stroke:#FF6A4B;stroke-width:3.5;stroke-linecap:round;stroke-miterlimit:10;}
	.st15{fill:#FF6A4B;stroke:#FF6A4B;stroke-width:3.5;stroke-miterlimit:10;}
	.st16{enable-background:new    ;}
	.st17{clip-path:url(#SVGID_4_);}
	.st18{fill:none;stroke:#FFFFFF;stroke-width:3.5;stroke-miterlimit:10;}
	.st19{clip-path:url(#SVGID_6_);}
	.st20{fill-rule:evenodd;clip-rule:evenodd;fill:#ECECEC;}
	.st21{clip-path:url(#SVGID_8_);}
	.st22{fill:none;}
	.st23{fill:#ECECEC;stroke:#ECECEC;stroke-linejoin:round;stroke-miterlimit:10;}
	.st24{fill:#ECECEC;stroke:#ECECEC;stroke-linecap:round;stroke-miterlimit:10;}
	.st25{fill:none;stroke:#ECECEC;stroke-width:2;stroke-linecap:round;stroke-miterlimit:10;}
	.st26{fill:#ECECEC;stroke:#FFFFFF;stroke-width:2;stroke-miterlimit:10;}
	.st27{clip-path:url(#SVGID_10_);}
	.st28{clip-path:url(#SVGID_12_);}
	.st29{fill:#ECECEC;stroke:#FFFFFF;stroke-miterlimit:10;}
	.st30{clip-path:url(#SVGID_14_);}
	.st31{fill:none;stroke:#FF6A4B;stroke-width:7;stroke-linejoin:round;}
	.st32{fill:none;stroke:#FF6A4B;stroke-width:7;stroke-linejoin:round;stroke-dasharray:14.4314,7.2157;}
	.st33{fill:none;stroke:#FF6A4B;stroke-width:7;stroke-linejoin:round;stroke-dasharray:13.4186,6.7093;}
	.st34{clip-path:url(#SVGID_16_);}
	.st35{fill:none;stroke:#FFFFFF;stroke-width:3;stroke-miterlimit:10;}
	.st36{fill:none;stroke:#ECECEC;stroke-width:3.5;stroke-miterlimit:10;}
	.st37{fill:#1D1D1B;}
	.st38{clip-path:url(#SVGID_18_);fill:#1D1D1B;}
</style>
<g id="Layer_4">
</g>
<g id="Layer_1">
	
		<rect x="237" y="242.2" transform="matrix(1.165005e-11 1 -1 1.165005e-11 556.8676 40.842)" class="st2" width="42" height="113.3"/>
	<polygon class="st2" points="225.1,119.9 183.1,129.2 183.1,282.6 225.1,282.6 	"/>
	<rect x="183.1" y="323.7" class="st2" width="42" height="112.8"/>
	
		<rect x="56.1" y="221.7" transform="matrix(1.598081e-11 1 -1 1.598081e-11 375.988 221.7216)" class="st2" width="42" height="154.3"/>
	<path class="st4" d="M261.6,296.4c10-9,12.7-17,12.7-17l-21-36.4c0,0-14.5-3.2-35.3,8.8c-6.5,3.7-11.4,7.7-15.2,11.4
		c-3.7-3.6-8.5-7.5-14.9-11.2c-20.8-12-35.7-9.1-35.7-9.1l-21,36.4c0,0,2.6,8,12.7,17.1c-10,9-12.7,17-12.7,17l21,36.4
		c0,0,14.5,3.2,35.3-8.8c6.5-3.7,11.4-7.7,15.2-11.4c3.7,3.6,8.5,7.5,14.9,11.2c20.8,12,35.7,9.1,35.7,9.1l21-36.4
		C274.4,313.5,271.8,305.5,261.6,296.4z"/>
	<g id="New_Symbol">
	</g>
	<g id="New_Symbol_2_">
	</g>
	<g id="New_Symbol_1_">
	</g>
	<g>
		<path class="st6" d="M273.9,280.8c0,0-0.1,0-0.2-0.1c-0.1,0-0.2-0.1-0.3-0.1c-0.3-0.1-0.9-0.2-1.6-0.3c-0.7-0.1-1.6-0.2-2.6-0.3
			c-0.5,0-1.1,0-1.6,0c-0.6,0-1.2,0-1.8,0.1c-0.6,0-1.3,0.1-2,0.2c-0.7,0.1-1.4,0.1-2.1,0.2c-1.4,0.3-3,0.5-4.6,0.9
			c-0.8,0.2-1.6,0.4-2.4,0.6c-0.8,0.2-1.6,0.5-2.4,0.7c-1.6,0.5-3.3,1.1-4.9,1.7c-1.6,0.6-3.2,1.3-4.8,2c-1.6,0.6-3.1,1.4-4.6,2.1
			c-1.5,0.7-2.9,1.4-4.2,2.1c-1.3,0.7-2.6,1.4-3.7,2c-1.2,0.6-2.2,1.3-3.1,1.8c-0.9,0.6-1.7,1-2.4,1.4c-1.3,0.8-2.1,1.3-2.1,1.3
			s0.7-0.5,2-1.4c0.6-0.4,1.4-1,2.3-1.6c0.9-0.6,1.9-1.3,3-2c1.1-0.7,2.3-1.4,3.6-2.2c1.3-0.8,2.7-1.6,4.1-2.4
			c1.4-0.8,2.9-1.7,4.5-2.4c1.6-0.8,3.1-1.6,4.7-2.2c1.6-0.7,3.2-1.4,4.9-2c0.8-0.3,1.6-0.6,2.4-0.9c0.8-0.2,1.6-0.5,2.4-0.7
			c1.6-0.5,3.2-0.8,4.7-1.2c0.8-0.2,1.5-0.3,2.2-0.4c0.7-0.1,1.4-0.2,2.1-0.3c0.7-0.1,1.3-0.1,1.9-0.2c0.6,0,1.2,0,1.8,0
			c1.1,0,2.1,0,2.9,0.2c0.8,0.1,1.5,0.2,1.9,0.3c0.2,0.1,0.4,0.1,0.6,0.1c0.1,0,0.2,0,0.2,0L273.9,280.8z"/>
	</g>
	<g>
		<path class="st6" d="M251.9,350.1c0,0,0-0.1,0-0.2c0-0.1,0-0.2-0.1-0.4c-0.1-0.3-0.2-0.9-0.5-1.5c-0.2-0.7-0.6-1.5-1.1-2.4
			c-0.2-0.4-0.5-0.9-0.8-1.4c-0.3-0.5-0.6-1-1-1.5c-0.3-0.5-0.7-1.1-1.1-1.6c-0.4-0.6-0.8-1.1-1.3-1.7c-1-1.1-1.9-2.4-3-3.5
			c-0.6-0.6-1.1-1.2-1.7-1.8c-0.6-0.6-1.2-1.1-1.8-1.7c-1.2-1.2-2.6-2.3-3.9-3.4c-1.3-1.1-2.7-2.1-4.1-3.2c-1.4-1.1-2.8-2-4.1-2.9
			c-1.4-0.9-2.7-1.8-4-2.6c-1.3-0.8-2.5-1.5-3.6-2.2c-1.1-0.7-2.2-1.2-3.1-1.8c-0.9-0.5-1.8-1-2.4-1.3c-1.3-0.7-2.1-1.2-2.1-1.2
			s0.8,0.4,2.2,1c0.7,0.3,1.5,0.7,2.5,1.2c1,0.5,2.1,0.9,3.2,1.6c1.2,0.6,2.4,1.3,3.7,2c1.3,0.7,2.7,1.5,4.1,2.4
			c1.4,0.8,2.9,1.7,4.3,2.7c1.4,1,2.9,1.9,4.3,3c1.4,1.1,2.8,2.1,4.2,3.2c0.7,0.6,1.3,1.1,2,1.7c0.6,0.6,1.2,1.2,1.8,1.7
			c1.2,1.1,2.3,2.3,3.4,3.5c0.5,0.6,1,1.2,1.4,1.7c0.5,0.6,0.9,1.1,1.3,1.7c0.4,0.6,0.8,1.1,1.1,1.6c0.3,0.5,0.6,1,0.9,1.5
			c0.5,1,1,1.8,1.3,2.6c0.3,0.7,0.5,1.4,0.7,1.8c0.1,0.2,0.1,0.4,0.2,0.6c0,0.1,0,0.2,0,0.2L251.9,350.1z"/>
	</g>
	<g>
		<path class="st6" d="M150.7,349.6c0,0,0-0.1,0-0.2c0-0.1,0.1-0.3,0.2-0.6c0.2-0.5,0.3-1.1,0.7-1.8c0.3-0.8,0.8-1.6,1.3-2.6
			c0.3-0.5,0.6-1,0.9-1.5c0.3-0.5,0.7-1,1.1-1.6c0.4-0.6,0.8-1.1,1.3-1.7c0.5-0.6,0.9-1.2,1.4-1.7c1.1-1.1,2.1-2.3,3.4-3.5
			c0.6-0.6,1.2-1.2,1.8-1.7c0.7-0.6,1.3-1.1,2-1.7c1.3-1.2,2.7-2.2,4.2-3.2c1.4-1.1,2.9-2,4.3-3c1.4-1,2.9-1.8,4.3-2.7
			c1.4-0.8,2.8-1.7,4.1-2.4c1.3-0.7,2.6-1.4,3.7-2c1.1-0.6,2.3-1.1,3.2-1.6c1-0.5,1.8-0.9,2.5-1.2c1.4-0.7,2.2-1,2.2-1
			s-0.8,0.4-2.1,1.2c-0.7,0.4-1.5,0.8-2.4,1.3c-0.9,0.5-2,1.1-3.1,1.8c-1.1,0.7-2.3,1.4-3.6,2.2c-1.3,0.7-2.6,1.7-4,2.6
			c-1.4,0.9-2.8,1.8-4.1,2.9c-1.4,1-2.8,2-4.1,3.2c-1.3,1.1-2.7,2.2-3.9,3.4c-0.6,0.6-1.2,1.2-1.8,1.7c-0.6,0.6-1.1,1.2-1.7,1.8
			c-1.1,1.1-2.1,2.4-3,3.5c-0.5,0.6-0.9,1.2-1.3,1.7c-0.4,0.6-0.8,1.1-1.1,1.6c-0.3,0.5-0.7,1-1,1.5c-0.3,0.5-0.5,1-0.8,1.4
			c-0.4,0.9-0.8,1.7-1.1,2.4c-0.3,0.7-0.4,1.2-0.5,1.5c0,0.2-0.1,0.3-0.1,0.4c0,0.1,0,0.2,0,0.2L150.7,349.6z"/>
	</g>
	<g>
		<path class="st6" d="M130.7,277.9c0,0,0.1,0,0.2,0c0.1,0,0.3-0.1,0.6-0.1c0.5-0.1,1.1-0.2,1.9-0.3c0.8-0.1,1.8-0.1,2.9-0.2
			c0.6,0,1.1,0,1.8,0c0.6,0,1.3,0.1,1.9,0.2c0.7,0,1.4,0.1,2.1,0.3c0.7,0.1,1.5,0.2,2.2,0.4c1.5,0.4,3.1,0.7,4.7,1.2
			c0.8,0.2,1.6,0.5,2.4,0.7c0.8,0.3,1.6,0.6,2.4,0.9c1.7,0.6,3.3,1.3,4.9,2c1.6,0.7,3.2,1.5,4.7,2.2c1.6,0.7,3,1.6,4.5,2.4
			c1.4,0.8,2.8,1.6,4.1,2.4c1.3,0.8,2.5,1.5,3.6,2.2c1.1,0.7,2.1,1.4,3,2c0.9,0.6,1.6,1.1,2.3,1.6c1.3,0.9,2,1.4,2,1.4
			s-0.7-0.5-2.1-1.3c-0.7-0.4-1.4-0.9-2.4-1.4c-0.9-0.5-1.9-1.2-3.1-1.8c-1.1-0.6-2.4-1.3-3.7-2c-1.3-0.8-2.7-1.4-4.2-2.1
			c-1.5-0.7-3-1.5-4.6-2.1c-1.6-0.7-3.2-1.4-4.8-2c-1.6-0.6-3.2-1.2-4.9-1.7c-0.8-0.2-1.6-0.5-2.4-0.7c-0.8-0.2-1.6-0.4-2.4-0.6
			c-1.6-0.4-3.1-0.6-4.6-0.9c-0.7-0.1-1.4-0.2-2.1-0.2c-0.7-0.1-1.3-0.1-2-0.2c-0.6,0-1.2-0.1-1.8-0.1c-0.6,0-1.1,0-1.6,0
			c-1,0.1-1.9,0.1-2.6,0.3c-0.7,0.1-1.2,0.3-1.6,0.3c-0.2,0-0.3,0.1-0.3,0.1c-0.1,0-0.2,0.1-0.2,0.1L130.7,277.9z"/>
	</g>
</g>
<g id="Layer_3">
</g>
</svg>
