<?xml version="1.0" encoding="utf-8"?>
<!-- Generator: Adobe Illustrator 19.2.1, SVG Export Plug-In . SVG Version: 6.00 Build 0)  -->
<svg version="1.1" xmlns="http://www.w3.org/2000/svg" xmlns:xlink="http://www.w3.org/1999/xlink" x="0px" y="0px"
	 viewBox="0 0 314.6 436.5" style="enable-background:new 0 0 314.6 436.5;" xml:space="preserve">
<style type="text/css">
	.st0{fill:#FF6A4B;}
	.st1{fill:#ECECEC;stroke:#FFFFFF;stroke-width:7;stroke-linejoin:round;stroke-miterlimit:10;}
	.st2{fill:#ECECEC;}
	.st3{fill:none;stroke:#D9D9D9;stroke-width:7;stroke-miterlimit:10;}
	.st4{fill:#FF6A4B;stroke:#FFFFFF;stroke-width:3;stroke-miterlimit:10;}
	.st5{fill:none;stroke:#023843;stroke-miterlimit:10;}
	.st6{fill:#FFFFFF;}
	.st7{fill:none;stroke:#FF6A4B;stroke-width:2;stroke-miterlimit:10;}
	.st8{fill:none;stroke:#FF6A4B;stroke-width:7;stroke-miterlimit:10;}
	.st9{fill:none;stroke:#FFFFFF;stroke-width:7;stroke-miterlimit:10;}
	.st10{fill:none;stroke:#FFFFFF;stroke-width:7;stroke-linejoin:round;stroke-miterlimit:10;}
	.st11{clip-path:url(#SVGID_2_);}
	.st12{fill:none;stroke:#ECECEC;stroke-width:7;stroke-linecap:round;stroke-miterlimit:10;}
	.st13{fill:none;stroke:#ECECEC;stroke-width:8;stroke-miterlimit:10;}
	.st14{fill:none;stroke:#FF6A4B;stroke-width:3.5;stroke-linecap:round;stroke-miterlimit:10;}
	.st15{fill:#FF6A4B;stroke:#FF6A4B;stroke-width:3.5;stroke-miterlimit:10;}
	.st16{enable-background:new    ;}
	.st17{clip-path:url(#SVGID_4_);}
	.st18{fill:none;stroke:#FFFFFF;stroke-width:3.5;stroke-miterlimit:10;}
	.st19{clip-path:url(#SVGID_6_);}
	.st20{fill-rule:evenodd;clip-rule:evenodd;fill:#ECECEC;}
	.st21{clip-path:url(#SVGID_8_);}
	.st22{fill:none;}
	.st23{fill:#ECECEC;stroke:#ECECEC;stroke-linejoin:round;stroke-miterlimit:10;}
	.st24{fill:#ECECEC;stroke:#ECECEC;stroke-linecap:round;stroke-miterlimit:10;}
	.st25{fill:none;stroke:#ECECEC;stroke-width:2;stroke-linecap:round;stroke-miterlimit:10;}
	.st26{fill:#ECECEC;stroke:#FFFFFF;stroke-width:2;stroke-miterlimit:10;}
	.st27{clip-path:url(#SVGID_10_);}
	.st28{clip-path:url(#SVGID_12_);}
	.st29{fill:#ECECEC;stroke:#FFFFFF;stroke-miterlimit:10;}
	.st30{clip-path:url(#SVGID_14_);}
	.st31{fill:none;stroke:#FF6A4B;stroke-width:7;stroke-linejoin:round;}
	.st32{fill:none;stroke:#FF6A4B;stroke-width:7;stroke-linejoin:round;stroke-dasharray:14.4314,7.2157;}
	.st33{fill:none;stroke:#FF6A4B;stroke-width:7;stroke-linejoin:round;stroke-dasharray:13.4186,6.7093;}
	.st34{clip-path:url(#SVGID_16_);}
	.st35{fill:none;stroke:#FFFFFF;stroke-width:3;stroke-miterlimit:10;}
	.st36{fill:none;stroke:#ECECEC;stroke-width:3.5;stroke-miterlimit:10;}
	.st37{fill:#1D1D1B;}
	.st38{clip-path:url(#SVGID_18_);fill:#1D1D1B;}
</style>
<g id="Layer_4">
</g>
<g id="Layer_1">
	<g id="New_Symbol">
	</g>
	<g id="New_Symbol_2_">
	</g>
	<g id="New_Symbol_1_">
	</g>
	<g>
		<defs>
			<rect id="SVGID_3_" x="-0.2" width="315.1" height="436.5"/>
		</defs>
		<clipPath id="SVGID_2_">
			<use xlink:href="#SVGID_3_"  style="overflow:visible;"/>
		</clipPath>
		<g class="st11">
			<path class="st2" d="M314.6,203.5c3.2,0,6.4,0.2,9.6,0.5c3.2,0.3,6.2,0.8,9.1,1.4c2.9,0.6,5.5,1.3,7.7,2.1
				c2.2,0.8,4.1,1.7,5.3,2.7c1.2,1,1.8,1.9,1.6,2.7c-0.1,0.9-0.9,1.6-2.3,2.3c-1.4,0.7-3.4,1.2-5.9,1.6c-2.5,0.4-5.5,0.6-8.9,0.6
				s-6.9-0.2-10.3-0.6c-3.4-0.4-6.6-0.9-9.6-1.6c-2.9-0.7-5.5-1.4-7.6-2.3c-2.1-0.9-3.7-1.8-4.7-2.7c-1-1-1.2-1.9-0.9-2.7
				c0.4-0.8,1.3-1.5,2.8-2.1c1.5-0.6,3.4-1.1,5.8-1.4C308.6,203.7,311.5,203.5,314.6,203.5z"/>
			<path class="st2" d="M176.5,203.5c3.2,0,6.3,0.2,9.2,0.5c2.9,0.3,5.6,0.8,8,1.4c2.4,0.6,4.5,1.3,6.1,2.1c1.6,0.8,2.7,1.7,3.2,2.7
				c0.5,1,0.3,1.9-0.5,2.7c-0.8,0.9-2.2,1.6-4.1,2.3c-1.9,0.7-4.3,1.2-7.1,1.6c-2.8,0.4-6,0.6-9.4,0.6c-3.4,0-6.8-0.2-9.9-0.6
				c-3.1-0.4-5.9-0.9-8.3-1.6c-2.4-0.7-4.4-1.4-5.9-2.3c-1.4-0.9-2.4-1.8-2.6-2.7c-0.2-1,0.2-1.9,1.2-2.7c1-0.8,2.5-1.5,4.4-2.1
				c1.9-0.6,4.3-1.1,6.9-1.4C170.4,203.7,173.4,203.5,176.5,203.5z"/>
			<path class="st2" d="M245.6,203.5c3.2,0,6.4,0.2,9.4,0.5c3,0.3,5.9,0.8,8.5,1.4c2.6,0.6,5,1.3,6.9,2.1c1.9,0.8,3.4,1.7,4.2,2.7
				c0.9,1,1,1.9,0.6,2.7c-0.5,0.9-1.6,1.6-3.2,2.3c-1.7,0.7-3.9,1.2-6.5,1.6c-2.7,0.4-5.7,0.6-9.2,0.6s-6.8-0.2-10.1-0.6
				c-3.2-0.4-6.3-0.9-8.9-1.6c-2.7-0.7-5-1.4-6.8-2.3c-1.8-0.9-3-1.8-3.7-2.7c-0.6-1-0.5-1.9,0.1-2.7c0.7-0.8,1.9-1.5,3.6-2.1
				c1.7-0.6,3.9-1.1,6.4-1.4C239.5,203.7,242.4,203.5,245.6,203.5z"/>
			<path class="st2" d="M38.4,203.5c3.2,0,6.1,0.2,8.8,0.5c2.7,0.3,5,0.8,6.9,1.4c1.9,0.6,3.4,1.3,4.4,2.1c1,0.8,1.4,1.7,1.2,2.7
				c-0.2,1-1.2,1.9-2.6,2.7c-1.5,0.9-3.5,1.6-5.9,2.3c-2.4,0.7-5.2,1.2-8.3,1.6c-3.1,0.4-6.4,0.6-9.9,0.6c-3.4,0-6.6-0.2-9.4-0.6
				c-2.8-0.4-5.2-0.9-7.1-1.6c-1.9-0.7-3.3-1.4-4.1-2.3c-0.8-0.9-1-1.8-0.5-2.7c0.5-1,1.6-1.9,3.2-2.7c1.6-0.8,3.7-1.5,6.1-2.1
				c2.4-0.6,5.1-1.1,8-1.4C32.2,203.7,35.3,203.5,38.4,203.5z"/>
			<path class="st2" d="M107.5,203.5c3.2,0,6.2,0.2,9,0.5c2.8,0.3,5.3,0.8,7.5,1.4c2.2,0.6,4,1.3,5.2,2.1c1.3,0.8,2.1,1.7,2.2,2.7
				c0.1,1-0.4,1.9-1.6,2.7c-1.1,0.9-2.8,1.6-5,2.3c-2.2,0.7-4.8,1.2-7.7,1.6c-2.9,0.4-6.2,0.6-9.6,0.6c-3.4,0-6.7-0.2-9.6-0.6
				c-2.9-0.4-5.6-0.9-7.7-1.6c-2.2-0.7-3.9-1.4-5-2.3c-1.1-0.9-1.7-1.8-1.6-2.7c0.1-1,0.9-1.9,2.2-2.7c1.3-0.8,3.1-1.5,5.2-2.1
				c2.2-0.6,4.7-1.1,7.5-1.4C101.3,203.7,104.3,203.5,107.5,203.5z"/>
			<path class="st2" d="M30.1,225.2c3.6,0,6.9,0.2,9.8,0.6c3,0.4,5.6,1,7.7,1.8c2.1,0.8,3.8,1.7,4.9,2.7c1.1,1,1.5,2.2,1.2,3.4
				c-0.3,1.2-1.4,2.4-3,3.5c-1.7,1.1-4,2.1-6.7,2.9c-2.8,0.9-6,1.5-9.5,2c-3.5,0.5-7.3,0.8-11.2,0.8c-3.9,0-7.5-0.3-10.6-0.8
				c-3.1-0.5-5.8-1.2-7.9-2c-2.1-0.8-3.6-1.8-4.5-2.9c-0.8-1.1-1-2.3-0.4-3.5c0.6-1.2,2-2.3,3.8-3.4c1.8-1,4.2-1.9,6.9-2.7
				c2.7-0.7,5.8-1.4,9.1-1.8C23,225.4,26.5,225.2,30.1,225.2z"/>
			<path class="st2" d="M107.5,225.2c3.6,0,7,0.2,10.1,0.6c3.1,0.4,6,1,8.4,1.8c2.4,0.8,4.5,1.7,5.9,2.7c1.5,1,2.4,2.2,2.5,3.4
				c0.2,1.2-0.5,2.4-1.7,3.5c-1.3,1.1-3.2,2.1-5.6,2.9c-2.4,0.9-5.4,1.5-8.7,2c-3.3,0.5-7,0.8-10.9,0.8c-3.9,0-7.6-0.3-10.9-0.8
				c-3.3-0.5-6.3-1.2-8.7-2c-2.4-0.8-4.3-1.8-5.6-2.9c-1.2-1.1-1.9-2.3-1.7-3.5c0.2-1.2,1-2.3,2.5-3.4c1.5-1,3.5-1.9,5.9-2.7
				c2.4-0.7,5.3-1.4,8.4-1.8C100.5,225.4,103.9,225.2,107.5,225.2z"/>
			<path class="st2" d="M184.9,225.2c3.6,0,7.1,0.2,10.3,0.6c3.3,0.4,6.4,1,9.1,1.8c2.7,0.8,5.1,1.7,6.9,2.7c1.9,1,3.2,2.2,3.8,3.4
				c0.6,1.2,0.5,2.4-0.4,3.5c-0.8,1.1-2.4,2.1-4.5,2.9c-2.1,0.9-4.8,1.5-7.9,2c-3.1,0.5-6.7,0.8-10.6,0.8c-3.9,0-7.7-0.3-11.2-0.8
				c-3.5-0.5-6.7-1.2-9.5-2c-2.7-0.8-5-1.8-6.7-2.9c-1.7-1.1-2.7-2.3-3-3.5c-0.3-1.2,0.1-2.3,1.2-3.4c1.1-1,2.7-1.9,4.9-2.7
				c2.1-0.7,4.7-1.4,7.7-1.8C178,225.4,181.4,225.2,184.9,225.2z"/>
			<path class="st2" d="M262.4,225.2c3.6,0,7.1,0.2,10.6,0.6c3.4,0.4,6.8,1,9.8,1.8c3,0.8,5.7,1.7,8,2.7c2.3,1,4,2.2,5.1,3.4
				c1.1,1.2,1.4,2.4,1,3.5c-0.4,1.1-1.6,2.1-3.3,2.9c-1.8,0.9-4.2,1.5-7.1,2c-3,0.5-6.4,0.8-10.3,0.8c-3.9,0-7.8-0.3-11.5-0.8
				c-3.7-0.5-7.2-1.2-10.3-2c-3.1-0.8-5.8-1.8-7.9-2.9c-2.1-1.1-3.6-2.3-4.4-3.5c-0.8-1.2-0.8-2.3-0.1-3.4c0.7-1,2-1.9,3.8-2.7
				c1.8-0.7,4.2-1.4,7-1.8C255.6,225.4,258.8,225.2,262.4,225.2z"/>
			<path class="st2" d="M19.4,252.9c4.1,0,7.8,0.3,11.2,0.8c3.4,0.5,6.3,1.3,8.7,2.3c2.4,1,4.3,2.2,5.4,3.5c1.2,1.3,1.6,2.8,1.2,4.4
				c-0.4,1.6-1.7,3.2-3.6,4.6c-2,1.4-4.7,2.8-7.9,3.9c-3.2,1.1-7,2-11,2.7c-4.1,0.6-8.5,1-12.9,1c-4.5,0-8.6-0.4-12.2-1
				c-3.6-0.6-6.6-1.6-9-2.7c-2.3-1.1-4-2.4-4.9-3.9c-0.9-1.4-0.9-3-0.1-4.6c0.8-1.6,2.4-3.1,4.6-4.4c2.2-1.3,5-2.5,8.1-3.5
				c3.1-1,6.7-1.8,10.5-2.3C11.3,253.2,15.3,252.9,19.4,252.9z"/>
			<path class="st2" d="M107.5,252.9c4.1,0,7.9,0.3,11.5,0.8c3.6,0.5,6.8,1.3,9.6,2.3c2.8,1,5.1,2.2,6.8,3.5
				c1.7,1.3,2.7,2.8,2.9,4.4c0.2,1.6-0.5,3.2-1.9,4.6c-1.4,1.4-3.6,2.8-6.4,3.9c-2.8,1.1-6.2,2-10,2.7c-3.8,0.6-8.1,1-12.5,1
				c-4.5,0-8.7-0.4-12.5-1c-3.8-0.6-7.2-1.6-10-2.7c-2.8-1.1-4.9-2.4-6.4-3.9c-1.4-1.4-2.1-3-1.9-4.6c0.2-1.6,1.2-3.1,2.9-4.4
				c1.7-1.3,4-2.5,6.8-3.5c2.8-1,6-1.8,9.6-2.3C99.6,253.2,103.4,252.9,107.5,252.9z"/>
			<path class="st2" d="M195.6,252.9c4.1,0,8,0.3,11.8,0.8c3.8,0.5,7.3,1.3,10.5,2.3c3.2,1,6,2.2,8.1,3.5c2.2,1.3,3.8,2.8,4.6,4.4
				c0.8,1.6,0.8,3.2-0.1,4.6c-0.9,1.4-2.5,2.8-4.9,3.9c-2.4,1.1-5.4,2-9,2.7c-3.6,0.6-7.7,1-12.2,1c-4.5,0-8.8-0.4-12.9-1
				c-4.1-0.6-7.8-1.6-11-2.7c-3.2-1.1-5.9-2.4-7.9-3.9c-2-1.4-3.2-3-3.6-4.6c-0.4-1.6,0.1-3.1,1.2-4.4c1.2-1.3,3-2.5,5.4-3.5
				c2.4-1,5.3-1.8,8.7-2.3C187.8,253.2,191.6,252.9,195.6,252.9z"/>
			<path class="st2" d="M283.8,252.9c4.1,0,8.2,0.3,12.1,0.8c4,0.5,7.8,1.3,11.3,2.3c3.6,1,6.8,2.2,9.5,3.5c2.7,1.3,4.9,2.8,6.4,4.4
				c1.4,1.6,2,3.2,1.7,4.6c-0.3,1.4-1.5,2.8-3.4,3.9c-1.9,1.1-4.6,2-7.9,2.7c-3.3,0.6-7.3,1-11.8,1c-4.5,0-9-0.4-13.3-1
				c-4.3-0.6-8.4-1.6-12.1-2.7c-3.6-1.1-6.8-2.4-9.4-3.9c-2.5-1.4-4.4-3-5.4-4.6c-1-1.6-1.1-3.1-0.5-4.4c0.7-1.3,2.1-2.5,4.1-3.5
				c2-1,4.7-1.8,7.8-2.3C276.1,253.2,279.7,252.9,283.8,252.9z"/>
			<path class="st2" d="M5.2,289.4c4.7,0,9.1,0.4,12.9,1.1c3.9,0.7,7.2,1.8,10,3.1c2.8,1.3,4.9,2.9,6.2,4.7c1.3,1.8,1.8,3.8,1.2,6
				c-0.6,2.2-2.1,4.3-4.5,6.3c-2.4,2-5.6,3.8-9.5,5.3c-3.9,1.6-8.3,2.8-13.2,3.7c-4.9,0.9-10.1,1.4-15.3,1.4
				c-5.3,0-10.1-0.5-14.2-1.4c-4.1-0.9-7.6-2.2-10.3-3.7c-2.6-1.5-4.5-3.4-5.3-5.3c-0.9-2-0.8-4.1,0.3-6.3c1.1-2.2,3.2-4.2,5.9-6
				c2.7-1.8,6-3.4,9.8-4.7c3.7-1.3,7.9-2.4,12.4-3.1C-4.1,289.8,0.5,289.4,5.2,289.4z"/>
			<path class="st2" d="M312,289.4c4.7,0,9.5,0.4,14.2,1.1c4.7,0.7,9.3,1.8,13.6,3.1c4.3,1.3,8.3,2.9,11.6,4.7
				c3.4,1.8,6.2,3.8,8.2,6c2,2.2,2.9,4.3,2.8,6.3c-0.1,2-1.2,3.8-3.3,5.3c-2.1,1.6-5.1,2.8-8.9,3.7c-3.8,0.9-8.4,1.4-13.7,1.4
				s-10.7-0.5-15.9-1.4c-5.2-0.9-10.1-2.2-14.6-3.7c-4.4-1.5-8.4-3.4-11.5-5.3c-3.1-2-5.5-4.1-6.9-6.3c-1.4-2.2-1.7-4.2-1.1-6
				c0.6-1.8,2.1-3.4,4.3-4.7c2.2-1.3,5.2-2.4,8.8-3.1C303.1,289.8,307.3,289.4,312,289.4z"/>
			<path class="st2" d="M107.5,340c5.6,0,11,0.6,15.9,1.6c4.9,1,9.5,2.5,13.4,4.4c3.9,1.9,7.2,4.2,9.7,6.8c2.5,2.6,4,5.5,4.4,8.7
				c0.4,3.2-0.4,6.3-2.3,9.1c-1.9,2.9-4.9,5.6-8.8,7.8c-3.9,2.3-8.8,4.2-14.2,5.5c-5.5,1.3-11.6,2.1-18,2.1c-6.4,0-12.5-0.7-18-2.1
				c-5.4-1.3-10.3-3.2-14.2-5.5c-3.9-2.3-6.9-4.9-8.8-7.8c-1.9-2.9-2.7-6-2.3-9.1c0.4-3.1,2-6.1,4.4-8.7c2.4-2.6,5.7-4.9,9.7-6.8
				c3.9-1.9,8.4-3.4,13.4-4.4C96.5,340.5,101.9,340,107.5,340z"/>
			<path class="st2" d="M-14.3,340c5.6,0,10.7,0.6,15.3,1.6c4.6,1,8.5,2.5,11.7,4.4c3.2,1.9,5.6,4.2,7.1,6.8
				c1.5,2.6,1.9,5.5,1.1,8.7c-0.8,3.2-2.9,6.3-5.9,9.1c-3.1,2.9-7.1,5.6-11.9,7.8c-4.8,2.3-10.4,4.2-16.3,5.5
				c-6,1.3-12.4,2.1-18.8,2.1c-6.4,0-12.2-0.7-17.2-2.1c-4.9-1.3-9-3.2-12.1-5.5c-3-2.3-5-4.9-5.8-7.8c-0.8-2.9-0.4-6,1.2-9.1
				c1.6-3.1,4.3-6.1,7.8-8.7c3.4-2.6,7.6-4.9,12.3-6.8c4.6-1.9,9.7-3.4,15.1-4.4C-25.5,340.5-19.9,340-14.3,340z"/>
			<path class="st2" d="M107.5,414.3c6.9,0,13.6,0.9,19.7,2.4c6.1,1.6,11.8,3.9,16.7,6.8c4.9,2.9,9.1,6.5,12.3,10.5
				c3.2,4.1,5.3,8.7,5.9,13.6c0.6,5-0.3,10-2.6,14.5c-2.3,4.7-6.1,9-10.9,12.6c-4.9,3.7-11,6.8-18,8.9c-7,2.2-14.8,3.4-23,3.4
				c-8.2,0-16-1.2-23-3.4c-6.9-2.1-13-5.2-18-8.9c-4.9-3.7-8.6-8-10.9-12.6c-2.3-4.6-3.2-9.5-2.6-14.5c0.6-4.9,2.7-9.5,5.9-13.6
				c3.1-4,7.3-7.5,12.3-10.5c4.9-2.9,10.5-5.2,16.7-6.8C93.9,415.2,100.6,414.3,107.5,414.3z"/>
			<path class="st2" d="M258,414.3c6.9,0,13.9,0.9,20.6,2.4c6.8,1.6,13.3,3.9,19.3,6.8c6.1,2.9,11.6,6.5,16.3,10.5
				c4.8,4.1,8.6,8.7,11.1,13.6c2.6,5,3.6,10,3.1,14.5c-0.5,4.7-2.6,9-6,12.6c-3.5,3.7-8.4,6.8-14.5,8.9c-6.2,2.2-13.5,3.4-21.7,3.4
				c-8.2,0-16.5-1.2-24.3-3.4c-7.8-2.1-15-5.2-21.4-8.9c-6.3-3.7-11.7-8-15.8-12.6c-4-4.6-6.9-9.5-8.2-14.5c-1.3-4.9-1-9.5,0.6-13.6
				c1.6-4,4.4-7.5,8.2-10.5c3.8-2.9,8.5-5.2,14-6.8C244.8,415.2,251.1,414.3,258,414.3z"/>
			<path class="st0" d="M209.8,289.4c4.7,0,9.4,0.4,13.8,1.1c4.4,0.7,8.6,1.8,12.4,3.1c3.8,1.3,7.1,2.9,9.8,4.7
				c2.7,1.8,4.8,3.8,5.9,6c1.1,2.2,1.2,4.3,0.3,6.3c-0.9,2-2.7,3.8-5.3,5.3c-2.7,1.6-6.2,2.8-10.3,3.7c-4.2,0.9-9,1.4-14.2,1.4
				c-5.3,0-10.5-0.5-15.3-1.4c-4.8-0.9-9.3-2.2-13.2-3.7c-3.8-1.5-7.1-3.4-9.5-5.3c-2.4-2-3.9-4.1-4.5-6.3c-0.6-2.2-0.1-4.2,1.2-6
				c1.3-1.8,3.4-3.4,6.2-4.7c2.7-1.3,6.1-2.4,10-3.1C200.7,289.8,205,289.4,209.8,289.4z"/>
			<path class="st2" d="M107.5,289.4c4.7,0,9.2,0.4,13.3,1.1c4.1,0.7,7.9,1.8,11.2,3.1c3.3,1.3,6,2.9,8,4.7c2,1.8,3.3,3.8,3.5,6
				c0.3,2.2-0.5,4.3-2.1,6.3c-1.6,2-4.2,3.8-7.4,5.3c-3.3,1.6-7.3,2.8-11.7,3.7c-4.5,0.9-9.5,1.4-14.8,1.4c-5.3,0-10.3-0.5-14.8-1.4
				c-4.5-0.9-8.5-2.2-11.7-3.7c-3.2-1.5-5.8-3.4-7.4-5.3c-1.6-2-2.4-4.1-2.1-6.3c0.3-2.2,1.5-4.2,3.5-6c2-1.8,4.7-3.4,8-4.7
				c3.2-1.3,7-2.4,11.2-3.1C98.3,289.8,102.8,289.4,107.5,289.4z"/>
			<path class="st2" d="M229.3,340c5.6,0,11.2,0.6,16.5,1.6c5.3,1,10.5,2.5,15.1,4.4c4.7,1.9,8.9,4.2,12.3,6.8
				c3.5,2.6,6.2,5.5,7.8,8.7c1.6,3.2,2,6.3,1.2,9.1c-0.8,2.9-2.8,5.6-5.8,7.8c-3.1,2.3-7.1,4.2-12.1,5.5c-5,1.3-10.8,2.1-17.2,2.1
				c-6.4,0-12.8-0.7-18.8-2.1c-6-1.3-11.5-3.2-16.3-5.5c-4.8-2.3-8.8-4.9-11.9-7.8c-3-2.9-5-6-5.9-9.1c-0.8-3.1-0.4-6.1,1.1-8.7
				c1.4-2.6,3.8-4.9,7.1-6.8c3.2-1.9,7.1-3.4,11.7-4.4C218.5,340.5,223.7,340,229.3,340z"/>
			<polygon class="st0" points="252.5,279 252.5,308.5 179.3,302.5 179.3,273.3 			"/>
			<g>
				<path class="st0" d="M209.8,260.2c4.7,0,9.4,0.4,13.8,1.1c4.4,0.7,8.6,1.8,12.4,3.1c3.8,1.3,7.1,2.9,9.8,4.7
					c2.7,1.8,4.8,3.8,5.9,6c1.1,2.2,1.2,4.3,0.3,6.3c-0.9,2-2.7,3.8-5.3,5.3c-2.7,1.6-6.2,2.8-10.3,3.7c-4.2,0.9-9,1.4-14.2,1.4
					c-5.3,0-10.5-0.5-15.3-1.4c-4.8-0.9-9.3-2.2-13.2-3.7c-3.8-1.5-7.1-3.4-9.5-5.3c-2.4-2-3.9-4.1-4.5-6.3c-0.6-2.2-0.1-4.2,1.2-6
					c1.3-1.8,3.4-3.4,6.2-4.7c2.7-1.3,6.1-2.4,10-3.1C200.7,260.6,205,260.2,209.8,260.2z"/>
			</g>
			<path class="st18" d="M177.7,272.2c-0.2,3.9,4,7.2,6.3,9.2c2.4,2,5.6,3.8,9.5,5.3c3.9,1.6,8.3,2.8,13.2,3.7
				c4.9,0.9,10.1,1.4,15.3,1.4c5.3,0,10.1-0.5,14.2-1.4c4.1-0.9,7.6-2.2,10.3-3.7c2.6-1.5,7.4-6.5,7.4-10.7"/>
		</g>
	</g>
</g>
<g id="Layer_3">
</g>
</svg>
