<?xml version="1.0" encoding="utf-8"?>
<!-- Generator: Adobe Illustrator 19.2.1, SVG Export Plug-In . SVG Version: 6.00 Build 0)  -->
<svg version="1.1" xmlns="http://www.w3.org/2000/svg" xmlns:xlink="http://www.w3.org/1999/xlink" x="0px" y="0px"
	 viewBox="0 0 314.6 436.5" style="enable-background:new 0 0 314.6 436.5;" xml:space="preserve">
<style type="text/css">
	.st0{fill:#FF6A4B;}
	.st1{fill:#ECECEC;stroke:#FFFFFF;stroke-width:7;stroke-linejoin:round;stroke-miterlimit:10;}
	.st2{fill:#ECECEC;}
	.st3{fill:none;stroke:#D9D9D9;stroke-width:7;stroke-miterlimit:10;}
	.st4{fill:#FF6A4B;stroke:#FFFFFF;stroke-width:3;stroke-miterlimit:10;}
	.st5{fill:none;stroke:#023843;stroke-miterlimit:10;}
	.st6{fill:#FFFFFF;}
	.st7{fill:none;stroke:#FF6A4B;stroke-width:2;stroke-miterlimit:10;}
	.st8{fill:none;stroke:#FF6A4B;stroke-width:7;stroke-miterlimit:10;}
	.st9{fill:none;stroke:#FFFFFF;stroke-width:7;stroke-miterlimit:10;}
	.st10{fill:none;stroke:#FFFFFF;stroke-width:7;stroke-linejoin:round;stroke-miterlimit:10;}
	.st11{clip-path:url(#SVGID_2_);}
	.st12{fill:none;stroke:#ECECEC;stroke-width:7;stroke-linecap:round;stroke-miterlimit:10;}
	.st13{fill:none;stroke:#ECECEC;stroke-width:8;stroke-miterlimit:10;}
	.st14{fill:none;stroke:#FF6A4B;stroke-width:3.5;stroke-linecap:round;stroke-miterlimit:10;}
	.st15{fill:#FF6A4B;stroke:#FF6A4B;stroke-width:3.5;stroke-miterlimit:10;}
	.st16{enable-background:new    ;}
	.st17{clip-path:url(#SVGID_4_);}
	.st18{fill:none;stroke:#FFFFFF;stroke-width:3.5;stroke-miterlimit:10;}
	.st19{clip-path:url(#SVGID_6_);}
	.st20{fill-rule:evenodd;clip-rule:evenodd;fill:#ECECEC;}
	.st21{clip-path:url(#SVGID_8_);}
	.st22{fill:none;}
	.st23{fill:#ECECEC;stroke:#ECECEC;stroke-linejoin:round;stroke-miterlimit:10;}
	.st24{fill:#ECECEC;stroke:#ECECEC;stroke-linecap:round;stroke-miterlimit:10;}
	.st25{fill:none;stroke:#ECECEC;stroke-width:2;stroke-linecap:round;stroke-miterlimit:10;}
	.st26{fill:#ECECEC;stroke:#FFFFFF;stroke-width:2;stroke-miterlimit:10;}
	.st27{clip-path:url(#SVGID_10_);}
	.st28{clip-path:url(#SVGID_12_);}
	.st29{fill:#ECECEC;stroke:#FFFFFF;stroke-miterlimit:10;}
	.st30{clip-path:url(#SVGID_14_);}
	.st31{fill:none;stroke:#FF6A4B;stroke-width:7;stroke-linejoin:round;}
	.st32{fill:none;stroke:#FF6A4B;stroke-width:7;stroke-linejoin:round;stroke-dasharray:14.4314,7.2157;}
	.st33{fill:none;stroke:#FF6A4B;stroke-width:7;stroke-linejoin:round;stroke-dasharray:13.4186,6.7093;}
	.st34{clip-path:url(#SVGID_16_);}
	.st35{fill:none;stroke:#FFFFFF;stroke-width:3;stroke-miterlimit:10;}
	.st36{fill:none;stroke:#ECECEC;stroke-width:3.5;stroke-miterlimit:10;}
	.st37{fill:#1D1D1B;}
	.st38{clip-path:url(#SVGID_18_);fill:#1D1D1B;}
</style>
<g id="Layer_4">
</g>
<g id="Layer_1">
	<g>
		<g>
			<path class="st2" d="M36.5,228.9v28.5H65v-28.5H36.5z M47,239.4h-7v-7h7V239.4z"/>
			<path class="st2" d="M72,228.9v28.5h28.5v-28.5H72z M82.5,239.4h-7v-7h7V239.4z"/>
			<path class="st2" d="M107.5,228.9v28.5h28.5v-28.5H107.5z M118,239.4h-7v-7h7V239.4z"/>
			<path class="st2" d="M143.1,228.9v28.5h28.5v-28.5H143.1z M153.6,239.4h-7v-7h7V239.4z"/>
			<path class="st2" d="M178.6,228.9v28.5h28.5v-28.5H178.6z M189.1,239.4h-7v-7h7V239.4z"/>
			<path class="st2" d="M214.1,228.9v28.5h28.5v-28.5H214.1z M224.6,239.4h-7v-7h7V239.4z"/>
			<path class="st2" d="M249.6,228.9v28.5h28.5v-28.5H249.6z M260.1,239.4h-7v-7h7V239.4z"/>
			<path class="st2" d="M36.5,264.4v32H65v-32H36.5z M47,274.9h-7v-7h7V274.9z"/>
			<path class="st2" d="M72,264.4v32h28.5v-32H72z M82.5,274.9h-7v-7h7V274.9z"/>
			<path class="st2" d="M107.5,264.4v32h28.5v-32H107.5z M118,274.9h-7v-7h7V274.9z"/>
			<path class="st2" d="M143.1,264.4v32h28.5v-32H143.1z M153.6,274.9h-7v-7h7V274.9z"/>
			<path class="st2" d="M178.6,264.4v32h28.5v-32H178.6z M189.1,274.9h-7v-7h7V274.9z"/>
			<path class="st2" d="M214.1,264.4v32h28.5v-32H214.1z M224.6,274.9h-7v-7h7V274.9z"/>
			<path class="st2" d="M249.6,264.4v32h28.5v-32H249.6z M260.1,274.9h-7v-7h7V274.9z"/>
			<path class="st2" d="M36.5,303.4V332H65v-28.5H36.5z M47,313.9h-7v-7h7V313.9z"/>
			<path class="st2" d="M72,303.4V332h28.5v-28.5H72z M82.5,313.9h-7v-7h7V313.9z"/>
			<path class="st2" d="M107.5,303.4V332h28.5v-28.5H107.5z M118,313.9h-7v-7h7V313.9z"/>
			<path class="st2" d="M143.1,303.4V332h28.5v-28.5H143.1z M153.6,313.9h-7v-7h7V313.9z"/>
			<path class="st2" d="M178.6,303.4V332h28.5v-28.5H178.6z M189.1,313.9h-7v-7h7V313.9z"/>
			<path class="st2" d="M214.1,303.4V332h28.5v-28.5H214.1z M224.6,313.9h-7v-7h7V313.9z"/>
			<path class="st2" d="M249.6,303.4V332h28.5v-28.5H249.6z M260.1,313.9h-7v-7h7V313.9z"/>
			<path class="st2" d="M36.5,339v28.5H65V339H36.5z M47,349.5h-7v-7h7V349.5z"/>
			<path class="st2" d="M72,339v28.5h28.5V339H72z M82.5,349.5h-7v-7h7V349.5z"/>
			<path class="st2" d="M107.5,339v28.5h28.5V339H107.5z M118,349.5h-7v-7h7V349.5z"/>
			<path class="st2" d="M36.5,374.5V403H65v-28.5H36.5z M47,385h-7v-7h7V385z"/>
			<path class="st2" d="M72,374.5V403h28.5v-28.5H72z M82.5,385h-7v-7h7V385z"/>
			<path class="st2" d="M107.5,374.5V403h28.5v-28.5H107.5z M118,385h-7v-7h7V385z"/>
			<path class="st2" d="M143.1,339v28.5h28.5V339H143.1z M153.6,349.5h-7v-7h7V349.5z"/>
			<path class="st2" d="M178.6,339v28.5h28.5V339H178.6z M189.1,349.5h-7v-7h7V349.5z"/>
			<path class="st2" d="M214.1,339v28.5h28.5V339H214.1z M224.6,349.5h-7v-7h7V349.5z"/>
			<path class="st2" d="M249.6,339v28.5h28.5V339H249.6z M260.1,349.5h-7v-7h7V349.5z"/>
		</g>
		<g>
			<path class="st0" d="M285.1,221.9v42.5H29.5v-42.5H285.1 M292.1,214.9h-7H29.5h-7v7v42.5v7h7h255.6h7v-7v-42.5V214.9L292.1,214.9
				z"/>
		</g>
	</g>
	<g id="New_Symbol">
	</g>
	<g id="New_Symbol_2_">
	</g>
	<g id="New_Symbol_1_">
	</g>
</g>
<g id="Layer_3">
</g>
</svg>
