<?xml version="1.0" encoding="utf-8"?>
<!-- Generator: Adobe Illustrator 19.2.1, SVG Export Plug-In . SVG Version: 6.00 Build 0)  -->
<svg version="1.1" xmlns="http://www.w3.org/2000/svg" xmlns:xlink="http://www.w3.org/1999/xlink" x="0px" y="0px"
	 viewBox="0 0 314.6 436.5" style="enable-background:new 0 0 314.6 436.5;" xml:space="preserve">
<style type="text/css">
	.st0{fill:#FF6A4B;}
	.st1{fill:#ECECEC;stroke:#FFFFFF;stroke-width:7;stroke-linejoin:round;stroke-miterlimit:10;}
	.st2{fill:#ECECEC;}
	.st3{fill:none;stroke:#D9D9D9;stroke-width:7;stroke-miterlimit:10;}
	.st4{fill:#FF6A4B;stroke:#FFFFFF;stroke-width:3;stroke-miterlimit:10;}
	.st5{fill:none;stroke:#023843;stroke-miterlimit:10;}
	.st6{fill:#FFFFFF;}
	.st7{fill:none;stroke:#FF6A4B;stroke-width:2;stroke-miterlimit:10;}
	.st8{fill:none;stroke:#FF6A4B;stroke-width:7;stroke-miterlimit:10;}
	.st9{fill:none;stroke:#FFFFFF;stroke-width:7;stroke-miterlimit:10;}
	.st10{fill:none;stroke:#FFFFFF;stroke-width:7;stroke-linejoin:round;stroke-miterlimit:10;}
	.st11{clip-path:url(#SVGID_2_);}
	.st12{fill:none;stroke:#ECECEC;stroke-width:7;stroke-linecap:round;stroke-miterlimit:10;}
	.st13{fill:none;stroke:#ECECEC;stroke-width:8;stroke-miterlimit:10;}
	.st14{fill:none;stroke:#FF6A4B;stroke-width:3.5;stroke-linecap:round;stroke-miterlimit:10;}
	.st15{fill:#FF6A4B;stroke:#FF6A4B;stroke-width:3.5;stroke-miterlimit:10;}
	.st16{enable-background:new    ;}
	.st17{clip-path:url(#SVGID_4_);}
	.st18{fill:none;stroke:#FFFFFF;stroke-width:3.5;stroke-miterlimit:10;}
	.st19{clip-path:url(#SVGID_6_);}
	.st20{fill-rule:evenodd;clip-rule:evenodd;fill:#ECECEC;}
	.st21{clip-path:url(#SVGID_8_);}
	.st22{fill:none;}
	.st23{fill:#ECECEC;stroke:#ECECEC;stroke-linejoin:round;stroke-miterlimit:10;}
	.st24{fill:#ECECEC;stroke:#ECECEC;stroke-linecap:round;stroke-miterlimit:10;}
	.st25{fill:none;stroke:#ECECEC;stroke-width:2;stroke-linecap:round;stroke-miterlimit:10;}
	.st26{fill:#ECECEC;stroke:#FFFFFF;stroke-width:2;stroke-miterlimit:10;}
	.st27{clip-path:url(#SVGID_10_);}
	.st28{clip-path:url(#SVGID_12_);}
	.st29{fill:#ECECEC;stroke:#FFFFFF;stroke-miterlimit:10;}
	.st30{clip-path:url(#SVGID_14_);}
	.st31{fill:none;stroke:#FF6A4B;stroke-width:7;stroke-linejoin:round;}
	.st32{fill:none;stroke:#FF6A4B;stroke-width:7;stroke-linejoin:round;stroke-dasharray:14.4314,7.2157;}
	.st33{fill:none;stroke:#FF6A4B;stroke-width:7;stroke-linejoin:round;stroke-dasharray:13.4186,6.7093;}
	.st34{clip-path:url(#SVGID_16_);}
	.st35{fill:none;stroke:#FFFFFF;stroke-width:3;stroke-miterlimit:10;}
	.st36{fill:none;stroke:#ECECEC;stroke-width:3.5;stroke-miterlimit:10;}
	.st37{fill:#1D1D1B;}
	.st38{clip-path:url(#SVGID_18_);fill:#1D1D1B;}
</style>
<g id="Layer_4">
</g>
<g id="Layer_1">
	<g id="New_Symbol">
	</g>
	<g id="New_Symbol_2_">
	</g>
	<g id="New_Symbol_1_">
	</g>
	<g>
		<line class="st14" x1="235.2" y1="261.8" x2="235.2" y2="247.5"/>
		<g>
			<path class="st2" d="M182.7,337.8c-22.3,0-31.9-35.6-42.1-73.3c-8.4-31.3-18-66.7-33.4-66.7c-12.7,0-21.4,24.1-28.1,47.6
				c-3.4,12.1-15.1,22.4-25.6,22.4H36v-9h17.4c6.4,0,14.7-7.7,16.9-15.9c7.6-26.2,17.3-54.1,36.8-54.1c22.3,0,31.9,35.6,42.1,73.3
				c8.4,31.3,18,66.7,33.4,66.7c12.7,0,21.4-24.1,28.1-47.6c3.9-14,13.5-22.4,25.6-22.4h42.2v9h-42.2c-4.7,0-13.1,2.1-16.9,15.9
				C211.9,309.8,202.2,337.8,182.7,337.8z"/>
			<path class="st6" d="M107.2,189.3c21.9,0,31.5,35.4,41.6,73c8.5,31.4,18.1,67,33.9,67c13,0,21.8-24.2,28.6-48
				c3.9-13.8,13.3-22,25.1-22h41.7v8h-41.7c-4.8,0-13.5,2.1-17.4,16.2c-7.5,26-17.1,53.8-36.3,53.8c-21.9,0-31.5-35.4-41.6-73
				c-8.5-31.4-18.1-67-33.9-67c-13,0-21.8,24.2-28.6,48c-3.3,11.9-14.8,22-25.1,22H36.5v-8h16.9c6.6,0,15.1-7.9,17.4-16.2
				C78.4,217,88,189.3,107.2,189.3 M107.2,188.3c-19.9,0-29.7,28.1-37.3,54.5c-2.2,7.8-10.3,15.5-16.5,15.5H36.5h-1v1v8v1h1h16.9
				c10.7,0,22.6-10.4,26.1-22.8c6.7-23.4,15.3-47.2,27.7-47.2c15,0,24.5,35.2,32.9,66.3c10.2,37.9,19.9,73.7,42.6,73.7
				c19.9,0,29.7-28.1,37.3-54.5c1.6-5.8,5.9-15.5,16.5-15.5h41.7h1v-1v-8v-1h-1h-41.7c-12.3,0-22.1,8.5-26.1,22.8
				c-6.7,23.4-15.3,47.2-27.7,47.2c-15,0-24.5-35.2-32.9-66.3C139.5,224.1,129.9,188.3,107.2,188.3L107.2,188.3z"/>
		</g>
		<polyline class="st15" points="235.2,247.5 235.2,237.7 251.5,249.1 251.5,259 		"/>
		<polygon class="st0" points="278.1,267.3 248.6,267.3 238.1,259.3 278.1,259.3 		"/>
		<path class="st0" d="M82.6,210.3l0.5-0.9c6.9-13.5,14.7-20.1,24.1-20.1c9.5,0,17.5,6.9,24.5,21l-9,0c-4.9-8.7-10-13-15.5-13
			c-5.5,0-10.6,4.3-15.5,13L82.6,210.3z"/>
		<path class="st0" d="M207.3,316.3l-0.5,0.9c-6.9,13.5-14.7,20.1-24.1,20.1c-9.5,0-17.5-6.9-24.5-21l9,0c4.9,8.7,10,13,15.5,13
			c5.5,0,10.6-4.3,15.5-13L207.3,316.3z"/>
		<rect x="248.6" y="259.3" class="st6" width="5.6" height="8"/>
		<line class="st14" x1="251.5" y1="259" x2="251.5" y2="273.2"/>
	</g>
</g>
<g id="Layer_3">
</g>
</svg>
