<?xml version="1.0" encoding="utf-8"?>
<!-- Generator: Adobe Illustrator 19.2.1, SVG Export Plug-In . SVG Version: 6.00 Build 0)  -->
<svg version="1.1" xmlns="http://www.w3.org/2000/svg" xmlns:xlink="http://www.w3.org/1999/xlink" x="0px" y="0px"
	 viewBox="0 0 314.6 436.5" style="enable-background:new 0 0 314.6 436.5;" xml:space="preserve">
<style type="text/css">
	.st0{fill:#ECECEC;}
	.st1{fill:#FF6A4B;}
	.st2{fill:#ECECEC;stroke:#FFFFFF;stroke-width:7;stroke-linejoin:round;stroke-miterlimit:10;}
	.st3{fill:none;stroke:#D9D9D9;stroke-width:7;stroke-miterlimit:10;}
	.st4{fill:#FF6A4B;stroke:#FFFFFF;stroke-width:3;stroke-miterlimit:10;}
	.st5{fill:none;stroke:#023843;stroke-miterlimit:10;}
	.st6{fill:#FFFFFF;}
	.st7{fill:none;stroke:#FF6A4B;stroke-width:2;stroke-miterlimit:10;}
	.st8{fill:none;stroke:#FF6A4B;stroke-width:7;stroke-miterlimit:10;}
	.st9{fill:none;stroke:#FFFFFF;stroke-width:7;stroke-miterlimit:10;}
	.st10{fill:none;stroke:#FFFFFF;stroke-width:7;stroke-linejoin:round;stroke-miterlimit:10;}
	.st11{clip-path:url(#SVGID_2_);}
	.st12{fill:none;stroke:#ECECEC;stroke-width:7;stroke-linecap:round;stroke-miterlimit:10;}
	.st13{fill:none;stroke:#ECECEC;stroke-width:8;stroke-miterlimit:10;}
	.st14{fill:none;stroke:#FF6A4B;stroke-width:3.5;stroke-linecap:round;stroke-miterlimit:10;}
	.st15{fill:#FF6A4B;stroke:#FF6A4B;stroke-width:3.5;stroke-miterlimit:10;}
	.st16{enable-background:new    ;}
	.st17{clip-path:url(#SVGID_4_);}
	.st18{fill:none;stroke:#FFFFFF;stroke-width:3.5;stroke-miterlimit:10;}
	.st19{clip-path:url(#SVGID_6_);}
	.st20{fill-rule:evenodd;clip-rule:evenodd;fill:#ECECEC;}
	.st21{clip-path:url(#SVGID_8_);}
	.st22{fill:none;}
	.st23{fill:#ECECEC;stroke:#ECECEC;stroke-linejoin:round;stroke-miterlimit:10;}
	.st24{fill:#ECECEC;stroke:#ECECEC;stroke-linecap:round;stroke-miterlimit:10;}
	.st25{fill:none;stroke:#ECECEC;stroke-width:2;stroke-linecap:round;stroke-miterlimit:10;}
	.st26{fill:#ECECEC;stroke:#FFFFFF;stroke-width:2;stroke-miterlimit:10;}
	.st27{clip-path:url(#SVGID_10_);}
	.st28{clip-path:url(#SVGID_12_);}
	.st29{fill:#ECECEC;stroke:#FFFFFF;stroke-miterlimit:10;}
	.st30{clip-path:url(#SVGID_14_);}
	.st31{fill:none;stroke:#FF6A4B;stroke-width:7;stroke-linejoin:round;}
	.st32{fill:none;stroke:#FF6A4B;stroke-width:7;stroke-linejoin:round;stroke-dasharray:14.4314,7.2157;}
	.st33{fill:none;stroke:#FF6A4B;stroke-width:7;stroke-linejoin:round;stroke-dasharray:13.4186,6.7093;}
	.st34{clip-path:url(#SVGID_16_);}
	.st35{fill:none;stroke:#FFFFFF;stroke-width:3;stroke-miterlimit:10;}
	.st36{fill:none;stroke:#ECECEC;stroke-width:3.5;stroke-miterlimit:10;}
	.st37{fill:#1D1D1B;}
	.st38{clip-path:url(#SVGID_18_);fill:#1D1D1B;}
</style>
<symbol  id="New_Symbol_3_" viewBox="-48.6 -34.3 97.2 68.7">
	<path class="st0" d="M41,20.4H9.7l0,0l-9.6,0.1c3,2.1,4.2,6.1,2.6,9.5c-1.8,3.8-6.3,5.4-10.1,3.6l-20.4-9.7c0,0-20.8-8.7-20.8-30.8
		c0-23.5,14.7-27.4,23.1-27.4c3.8,0,27.8,0,27.8,0c5.1,0,9.3,4.2,9.3,9.3c0,0.9-0.1,1.8-0.4,2.6c3.4,1.4,5.8,4.7,5.8,8.6
		c0,1.4-0.3,2.7-0.8,3.8c2.8,1.6,4.7,4.6,4.7,8.1c0,2.8-1.3,5.4-3.3,7.1v0H41c4.2,0,7.6,3.4,7.6,7.6C48.6,17,45.2,20.4,41,20.4z"/>
</symbol>
<g id="Layer_4">
</g>
<g id="Layer_1">
	<g id="New_Symbol">
	</g>
	<g id="New_Symbol_2_">
	</g>
	<g id="New_Symbol_1_">
	</g>
	<g>
		<defs>
			<rect id="SVGID_1_" x="-341.4" width="314.6" height="436.5"/>
		</defs>
		<clipPath id="SVGID_2_">
			<use xlink:href="#SVGID_1_"  style="overflow:visible;"/>
		</clipPath>
		<g class="st11">
			<g>
				
					<use xlink:href="#New_Symbol_3_"  width="97.2" height="68.7" x="-48.6" y="-34.3" transform="matrix(0.9873 0 0 -0.9873 3.2648 199.9789)" style="overflow:visible;"/>
			</g>
		</g>
	</g>
	<g>
		<path class="st0" d="M116,241L116,241c-1.6-2.5-3.4-4.8-5.2-7.1c-18-26.5-4.5-42.4-3.9-43.2l-3.4-3l-3.3-3
			c-0.2,0.3-5.9,6.5-7.4,17.4c-0.5,3.8-0.6,8.4,0.5,13.8c-23.5-20-47.4-26.5-48.8-26.8l-2.3,8.7c0.3,0.1,27.3,7.4,51.2,30.4
			c-14.7-5.1-32.5-6.1-46.8,6.6l6,6.7c23.1-20.5,56.7,5.2,57,5.4c0.8,0.6,1.8,0.9,2.8,0.9c1.2,0,2.4-0.5,3.2-1.4
			C117.1,245.1,117.2,242.7,116,241z"/>
		<path class="st1" d="M256.7,368.5c-0.4-0.6-23-34.1-46.6-68.8c-4.9,1.2-16.6,5.2-23.2,17.4l-7.9-4.3c7.1-13,18.6-18.6,25.8-20.9
			c-4.4-6.5-8.8-12.9-13-19c-7.4,1.4-21.2,6.4-32.7,24.4l-7.6-4.9c11.5-18,25.4-24.8,34.9-27.5c-3.8-5.5-7.4-10.7-10.7-15.5
			c-7.4,0.9-25.1,5.5-38,27.4l-7.8-4.6c12.7-21.6,29.7-28.6,40.2-30.9c-4.7-6.7-8.5-12-10.9-15.3c-4.7-6.3-11-9.7-18.1-9.7
			c-16.4,0-32.9,17.6-34.9,19.8c-2.2,2-20.5,19.2-19.7,35.9c0.3,6.8,3.6,12.6,9.7,17.1c22.4,16.6,141.3,96.7,142.8,97.7
			c0.4,0.3,4.4,2.4,8.9,2.4c3.2,0,6.1-1.1,8.2-3.3C261.3,380.6,259,372.7,256.7,368.5z"/>
	</g>
</g>
<g id="Layer_3">
</g>
</svg>
