<?xml version="1.0" encoding="utf-8"?>
<!-- Generator: Adobe Illustrator 19.2.1, SVG Export Plug-In . SVG Version: 6.00 Build 0)  -->
<svg version="1.1" xmlns="http://www.w3.org/2000/svg" xmlns:xlink="http://www.w3.org/1999/xlink" x="0px" y="0px"
	 viewBox="0 0 314.6 436.5" style="enable-background:new 0 0 314.6 436.5;" xml:space="preserve">
<style type="text/css">
	.st0{fill:#FF6A4B;}
	.st1{fill:#ECECEC;stroke:#FFFFFF;stroke-width:7;stroke-linejoin:round;stroke-miterlimit:10;}
	.st2{fill:#ECECEC;}
	.st3{fill:none;stroke:#D9D9D9;stroke-width:7;stroke-miterlimit:10;}
	.st4{fill:#FF6A4B;stroke:#FFFFFF;stroke-width:3;stroke-miterlimit:10;}
	.st5{fill:none;stroke:#023843;stroke-miterlimit:10;}
	.st6{fill:#FFFFFF;}
	.st7{fill:none;stroke:#FF6A4B;stroke-width:2;stroke-miterlimit:10;}
	.st8{fill:none;stroke:#FF6A4B;stroke-width:7;stroke-miterlimit:10;}
	.st9{fill:none;stroke:#FFFFFF;stroke-width:7;stroke-miterlimit:10;}
	.st10{fill:none;stroke:#FFFFFF;stroke-width:7;stroke-linejoin:round;stroke-miterlimit:10;}
	.st11{clip-path:url(#SVGID_2_);}
	.st12{fill:none;stroke:#ECECEC;stroke-width:7;stroke-linecap:round;stroke-miterlimit:10;}
	.st13{fill:none;stroke:#ECECEC;stroke-width:8;stroke-miterlimit:10;}
	.st14{fill:none;stroke:#FF6A4B;stroke-width:3.5;stroke-linecap:round;stroke-miterlimit:10;}
	.st15{fill:#FF6A4B;stroke:#FF6A4B;stroke-width:3.5;stroke-miterlimit:10;}
	.st16{enable-background:new    ;}
	.st17{clip-path:url(#SVGID_4_);}
	.st18{fill:none;stroke:#FFFFFF;stroke-width:3.5;stroke-miterlimit:10;}
	.st19{clip-path:url(#SVGID_6_);}
	.st20{fill-rule:evenodd;clip-rule:evenodd;fill:#ECECEC;}
	.st21{clip-path:url(#SVGID_8_);}
	.st22{fill:none;}
	.st23{fill:#ECECEC;stroke:#ECECEC;stroke-linejoin:round;stroke-miterlimit:10;}
	.st24{fill:#ECECEC;stroke:#ECECEC;stroke-linecap:round;stroke-miterlimit:10;}
	.st25{fill:none;stroke:#ECECEC;stroke-width:2;stroke-linecap:round;stroke-miterlimit:10;}
	.st26{fill:#ECECEC;stroke:#FFFFFF;stroke-width:2;stroke-miterlimit:10;}
	.st27{clip-path:url(#SVGID_10_);}
	.st28{clip-path:url(#SVGID_12_);}
	.st29{fill:#ECECEC;stroke:#FFFFFF;stroke-miterlimit:10;}
	.st30{clip-path:url(#SVGID_14_);}
	.st31{fill:none;stroke:#FF6A4B;stroke-width:7;stroke-linejoin:round;}
	.st32{fill:none;stroke:#FF6A4B;stroke-width:7;stroke-linejoin:round;stroke-dasharray:14.4314,7.2157;}
	.st33{fill:none;stroke:#FF6A4B;stroke-width:7;stroke-linejoin:round;stroke-dasharray:13.4186,6.7093;}
	.st34{clip-path:url(#SVGID_16_);}
	.st35{fill:none;stroke:#FFFFFF;stroke-width:3;stroke-miterlimit:10;}
	.st36{fill:none;stroke:#ECECEC;stroke-width:3.5;stroke-miterlimit:10;}
	.st37{fill:#1D1D1B;}
	.st38{clip-path:url(#SVGID_18_);fill:#1D1D1B;}
</style>
<g id="Layer_4">
</g>
<g id="Layer_1">
	<g id="New_Symbol">
	</g>
	<g id="New_Symbol_2_">
	</g>
	<g id="New_Symbol_1_">
	</g>
	<g>
		<defs>
			<rect id="SVGID_7_" width="314.6" height="436.5"/>
		</defs>
		<clipPath id="SVGID_2_">
			<use xlink:href="#SVGID_7_"  style="overflow:visible;"/>
		</clipPath>
		<g class="st11">
			<path class="st22" d="M138.8,290.5c0,0,14.1,5.1,36,0c0,0-2.1-10-18-10S138.8,290.5,138.8,290.5z"/>
			<path class="st2" d="M168.6,291.7c-0.2,0-0.4,0.1-0.6,0.1C168.2,291.7,168.4,291.7,168.6,291.7z"/>
			<g>
				<g>
					<g class="st16">
						<g>
							<path class="st0" d="M150.6,295.9l-2.9-1.5c-0.1,0-0.1-0.1-0.2-0.1c-0.1,0-0.1-0.1-0.2-0.1c-0.1,0-0.1-0.1-0.2-0.1
								c0,0-0.1-0.1-0.1-0.1c-0.6-0.6-0.9-1.6-1-2.7c-0.1-1.2,0-2.6,0.4-4.2c0.3-1.6,0.9-3.3,1.6-5.1c0.7-1.8,1.6-3.6,2.7-5.4
								c0.9-1.6,1.9-3,2.9-4.1c1-1.2,2-2.2,2.9-2.9c0.9-0.7,1.8-1.2,2.7-1.5c0.8-0.2,1.5-0.2,2.1,0.1l2.9,1.5
								c-0.6-0.3-1.3-0.3-2.1-0.1c-0.8,0.2-1.7,0.8-2.6,1.5c-0.9,0.7-1.9,1.7-2.9,2.9c-1,1.2-2,2.6-2.9,4.2c-1.1,1.8-2,3.6-2.7,5.4
								c-0.7,1.8-1.3,3.5-1.6,5.1c-0.3,1.6-0.5,3-0.4,4.2c0.1,1.2,0.4,2.1,1,2.7c0,0.1,0.1,0.1,0.1,0.1c0,0,0.1,0.1,0.1,0.1
								c0.1,0,0.1,0.1,0.2,0.1C150.5,295.8,150.5,295.8,150.6,295.9z"/>
						</g>
						<g>
							<path class="st0" d="M165.1,270.1c0.5,0.7,0.8,1.7,0.8,2.9c0,1.2-0.1,2.6-0.5,4.2c-0.4,1.5-0.9,3.2-1.6,4.9
								c-0.7,1.7-1.6,3.5-2.6,5.2c-1,1.7-2.1,3.2-3.2,4.5c-1.1,1.3-2.2,2.3-3.2,3c-1,0.7-2,1.2-2.8,1.3c-0.9,0.1-1.6-0.1-2.1-0.7
								c-0.6-0.6-0.9-1.6-1-2.7c-0.1-1.2,0-2.6,0.4-4.2c0.3-1.6,0.9-3.3,1.6-5.1c0.7-1.8,1.6-3.6,2.7-5.4c1.1-1.8,2.2-3.3,3.3-4.6
								c1.1-1.3,2.2-2.3,3.3-3c1-0.7,2-1.1,2.8-1.1C163.9,269.1,164.6,269.5,165.1,270.1z"/>
						</g>
					</g>
				</g>
			</g>
			<g>
				<g>
					<path class="st2" d="M96.4,274c-1.9,2.5-3,5.6-3,9c0,8.3,6.8,15.1,15.1,15.1c5.7,0,10.6-3.1,13.2-7.8
						C112.1,286.3,103.5,280.8,96.4,274z"/>
				</g>
				<g>
					<path class="st2" d="M191.4,290.5c2.6,4.5,7.5,7.6,13.1,7.6c8.3,0,15.1-6.8,15.1-15.1c0-3.2-1-6.2-2.7-8.7
						C209.7,281,201.1,286.6,191.4,290.5z"/>
				</g>
			</g>
			<g>
				<g>
					<g class="st16">
						<g>
							<path class="st0" d="M168.4,308l1.7,2.2c0.5,0.6,0.8,1.3,1,2.1c0.2,0.8,0.3,1.7,0.2,2.6c-0.1,0.9-0.3,1.9-0.7,3
								c-0.4,1-0.9,2.1-1.6,3.2c-1,1.6-2.3,3.1-3.8,4.5c-1.4,1.3-3,2.5-4.7,3.4c-1.6,0.9-3.3,1.6-5,1.9c-1.6,0.4-3.2,0.5-4.7,0.2
								c-0.4-0.1-0.8-0.2-1.2-0.3c-0.4-0.1-0.7-0.3-1-0.4c-0.3-0.2-0.6-0.4-0.9-0.6c-0.3-0.2-0.5-0.4-0.7-0.7l-1.8-2.1
								c0.2,0.2,0.5,0.5,0.7,0.7c0.3,0.2,0.6,0.4,0.9,0.6c0.3,0.2,0.6,0.3,1,0.4c0.4,0.1,0.7,0.2,1.2,0.3c1.4,0.3,3,0.2,4.7-0.2
								c1.6-0.4,3.3-1.1,5-2c1.7-0.9,3.3-2.1,4.7-3.4c1.5-1.3,2.7-2.8,3.8-4.5c0.7-1.1,1.2-2.2,1.6-3.2c0.4-1,0.6-2,0.7-3
								c0.1-0.9,0-1.8-0.2-2.6C169.2,309.3,168.9,308.6,168.4,308z"/>
						</g>
						<g>
							<path class="st0" d="M164.2,305.8c1.4,0.2,2.6,0.7,3.5,1.5c0.9,0.8,1.5,1.8,1.8,2.9c0.3,1.2,0.3,2.6-0.1,4
								c-0.4,1.5-1,3.1-2.1,4.7c-1,1.6-2.3,3.1-3.8,4.5c-1.5,1.3-3.1,2.5-4.7,3.4c-1.7,0.9-3.4,1.6-5,2c-1.6,0.4-3.2,0.5-4.7,0.2
								c-1.4-0.3-2.6-0.8-3.4-1.6c-0.8-0.8-1.4-1.9-1.6-3.1c-0.2-1.2-0.2-2.6,0.2-4c0.4-1.5,1.1-3,2.1-4.6c1-1.6,2.3-3,3.7-4.3
								c1.4-1.3,2.9-2.4,4.5-3.3c1.6-0.9,3.2-1.6,4.8-2C161.2,305.7,162.7,305.6,164.2,305.8z"/>
						</g>
					</g>
				</g>
			</g>
			<g>
				<g>
					<g class="st16">
						<g>
							<path class="st0" d="M171.4,342c1.6,0.7,3.3,1.6,4.8,2.7c1.5,1.1,2.9,2.3,4.2,3.7c1.3,1.3,2.4,2.8,3.2,4.2
								c0.9,1.5,1.5,2.9,1.8,4.3c0.3,1.4,0.3,2.6,0,3.6c-0.3,1-0.9,1.8-1.8,2.3c-0.9,0.5-2,0.8-3.3,0.7c-1.3,0-2.9-0.4-4.6-1
								c-1.7-0.7-3.4-1.6-5-2.7c-1.6-1.1-3.1-2.4-4.4-3.8c-1.3-1.4-2.4-2.9-3.3-4.4c-0.9-1.5-1.5-3-1.7-4.4
								c-0.3-1.4-0.2-2.6,0.2-3.6c0.4-1,1.1-1.7,2-2.1c0.9-0.5,2.1-0.6,3.4-0.6C168.3,341,169.8,341.3,171.4,342z"/>
						</g>
						<g>
							<path class="st0" d="M184.6,362.1l-2,2.2c-0.4,0.4-0.9,0.8-1.5,1c-0.6,0.3-1.3,0.4-2,0.5c-0.8,0.1-1.6,0-2.5-0.2
								c-0.9-0.2-1.9-0.4-2.9-0.8c-1.7-0.7-3.4-1.6-5-2.7c-1.6-1.1-3.1-2.4-4.4-3.8c-1.3-1.4-2.4-2.9-3.3-4.4
								c-0.9-1.5-1.5-3-1.7-4.4c-0.1-0.5-0.1-1-0.1-1.5c0-0.5,0-0.9,0.1-1.3c0.1-0.4,0.2-0.8,0.4-1.1c0.2-0.3,0.4-0.6,0.6-0.9
								l1.9-2.3c-0.2,0.3-0.4,0.6-0.6,0.9c-0.2,0.3-0.3,0.7-0.4,1.1c-0.1,0.4-0.1,0.8-0.1,1.3c0,0.5,0.1,0.9,0.2,1.5
								c0.3,1.4,0.9,2.9,1.7,4.4c0.9,1.5,2,3,3.3,4.4c1.3,1.4,2.8,2.7,4.4,3.8c1.6,1.1,3.3,2.1,5,2.7c1,0.4,2,0.7,2.9,0.9
								c0.9,0.2,1.7,0.2,2.5,0.2c0.7,0,1.4-0.2,2-0.5C183.7,362.9,184.2,362.6,184.6,362.1z"/>
						</g>
					</g>
				</g>
			</g>
			<g>
				<g>
					<g class="st16">
						<g>
							<path class="st0" d="M127.3,381.6c0.8,1.6,1.5,3.3,2,5.1c0.6,1.8,1,3.6,1.3,5.4c0.3,1.8,0.5,3.6,0.5,5.2
								c0,1.6-0.1,3.1-0.4,4.3c-0.3,1.2-0.7,2.1-1.3,2.6c-0.6,0.5-1.2,0.7-1.9,0.5c-0.7-0.2-1.5-0.8-2.4-1.7
								c-0.8-0.9-1.7-2.2-2.5-3.8c-0.8-1.6-1.6-3.4-2.2-5.3c-0.6-1.9-1.1-3.8-1.4-5.7c-0.3-1.9-0.5-3.7-0.5-5.4
								c0-1.7,0.1-3.1,0.5-4.3c0.3-1.2,0.8-2,1.4-2.4c0.6-0.4,1.3-0.5,2-0.2c0.7,0.3,1.5,0.9,2.3,1.9
								C125.7,378.7,126.5,380,127.3,381.6z"/>
						</g>
						<g>
							<path class="st0" d="M128.6,404.7l-3.2,0.8c-0.4,0.1-0.9,0.1-1.3-0.1c-0.5-0.2-1-0.5-1.5-1c-0.5-0.5-1-1.1-1.6-1.8
								c-0.5-0.7-1.1-1.6-1.6-2.6c-0.8-1.6-1.6-3.4-2.2-5.2c-0.6-1.9-1.1-3.8-1.4-5.7c-0.3-1.9-0.5-3.7-0.5-5.4
								c0-1.7,0.2-3.1,0.5-4.3c0.1-0.4,0.2-0.8,0.4-1.1c0.1-0.3,0.3-0.6,0.5-0.8c0.2-0.2,0.4-0.4,0.6-0.6c0.2-0.1,0.4-0.2,0.6-0.3
								l3.2-0.8c-0.2,0.1-0.4,0.2-0.6,0.3c-0.2,0.1-0.4,0.3-0.6,0.6c-0.2,0.2-0.3,0.5-0.5,0.8c-0.1,0.3-0.3,0.7-0.4,1.1
								c-0.3,1.2-0.5,2.7-0.5,4.3c0,1.7,0.2,3.5,0.5,5.4c0.3,1.9,0.8,3.8,1.4,5.7c0.6,1.9,1.3,3.7,2.2,5.3c0.5,1,1,1.9,1.6,2.6
								c0.5,0.7,1,1.3,1.6,1.8c0.5,0.5,1,0.8,1.5,1C127.8,404.7,128.2,404.8,128.6,404.7z"/>
						</g>
					</g>
				</g>
			</g>
			<g>
				<g>
					<g class="st16">
						<g>
							<path class="st0" d="M192.9,389.8l1.5,1.1c1.2,0.9,2.2,2.1,2.9,3.4c0.7,1.3,1.2,2.8,1.5,4.4c0.2,1.6,0.2,3.2-0.1,4.9
								c-0.3,1.7-0.9,3.4-1.8,5c-1,1.8-2.3,3.4-3.7,4.6c-1.5,1.3-3.1,2.2-4.8,2.9c-1.7,0.6-3.4,1-5.2,0.9c-1.7-0.1-3.4-0.5-4.9-1.3
								c-0.1,0-0.1-0.1-0.2-0.1c-0.1,0-0.1-0.1-0.2-0.1c-0.1,0-0.1-0.1-0.2-0.1c-0.1,0-0.1-0.1-0.2-0.1l-1.6-1
								c0.1,0,0.1,0.1,0.2,0.1s0.1,0.1,0.2,0.1s0.1,0.1,0.2,0.1c0.1,0,0.1,0.1,0.2,0.1c1.5,0.8,3.2,1.2,4.9,1.3
								c1.7,0.1,3.5-0.3,5.2-0.9c1.7-0.7,3.3-1.6,4.8-2.9c1.5-1.3,2.7-2.8,3.8-4.7c0.9-1.6,1.5-3.3,1.8-5c0.3-1.7,0.4-3.4,0.1-4.9
								c-0.2-1.6-0.7-3.1-1.5-4.4C195.1,391.9,194.1,390.7,192.9,389.8z"/>
						</g>
						<g>
							<path class="st0" d="M191.1,388.7c1.6,0.8,2.9,1.9,3.9,3.2c1,1.3,1.7,2.9,2.1,4.6c0.4,1.7,0.4,3.5,0.2,5.4
								c-0.3,1.9-0.9,3.8-1.9,5.6c-1,1.8-2.3,3.4-3.8,4.7c-1.5,1.3-3.1,2.3-4.8,2.9c-1.7,0.6-3.5,1-5.2,0.9
								c-1.7-0.1-3.4-0.5-4.9-1.3c-1.5-0.8-2.8-2-3.8-3.3c-1-1.4-1.6-2.9-2-4.6c-0.3-1.7-0.4-3.5-0.1-5.3c0.3-1.8,0.9-3.7,1.9-5.4
								c1-1.8,2.2-3.3,3.7-4.6c1.4-1.3,3-2.2,4.6-2.9c1.7-0.7,3.4-1,5.1-1C187.9,387.6,189.6,388,191.1,388.7z"/>
						</g>
					</g>
				</g>
			</g>
			<g>
				<g>
					<g class="st16">
						<g>
							<path class="st0" d="M177.2,434.5l-2.7,0.7c-0.4,0.1-0.8,0.2-1.2,0.2c-0.4,0-0.8,0-1.3-0.1c-0.4-0.1-0.9-0.2-1.3-0.4
								c-0.5-0.2-0.9-0.4-1.4-0.7c-0.1-0.1-0.2-0.1-0.3-0.2c-0.1-0.1-0.2-0.1-0.3-0.2c-0.1-0.1-0.2-0.1-0.3-0.2
								c-0.1-0.1-0.2-0.1-0.3-0.2c-1.2-0.9-2.2-2.1-3.2-3.5c-0.9-1.4-1.8-2.9-2.4-4.6c-0.6-1.7-1.1-3.4-1.4-5.2
								c-0.3-1.8-0.3-3.6-0.1-5.3c0.1-1.1,0.3-2.1,0.6-3.1c0.3-0.9,0.7-1.7,1.1-2.4c0.5-0.7,1-1.3,1.5-1.7c0.6-0.5,1.2-0.8,1.9-1
								l2.7-0.8c-0.7,0.2-1.3,0.5-1.9,1c-0.6,0.5-1.1,1-1.5,1.7c-0.5,0.7-0.8,1.5-1.1,2.4c-0.3,0.9-0.5,2-0.6,3.1
								c-0.2,1.7-0.1,3.5,0.1,5.3c0.3,1.8,0.7,3.5,1.4,5.2c0.6,1.7,1.5,3.2,2.4,4.6c0.9,1.4,2,2.6,3.2,3.5c0.1,0.1,0.2,0.2,0.3,0.2
								c0.1,0.1,0.2,0.1,0.3,0.2c0.1,0.1,0.2,0.1,0.3,0.2c0.1,0.1,0.2,0.1,0.3,0.2c0.5,0.3,0.9,0.5,1.4,0.7c0.5,0.2,0.9,0.3,1.3,0.4
								c0.4,0.1,0.9,0.1,1.3,0.1C176.4,434.6,176.8,434.6,177.2,434.5z"/>
						</g>
						<g>
							<path class="st0" d="M175.8,407.8c1.1,0.9,2.2,2.1,3,3.5c0.9,1.3,1.7,2.9,2.3,4.5c0.6,1.6,1.1,3.3,1.3,5
								c0.3,1.7,0.3,3.4,0.2,5.1c-0.2,1.8-0.6,3.4-1.2,4.7c-0.6,1.3-1.4,2.3-2.4,3c-1,0.7-2.1,1.1-3.3,1.1c-1.2,0-2.5-0.4-3.8-1.1
								c-0.1-0.1-0.2-0.1-0.3-0.2c-0.1-0.1-0.2-0.1-0.3-0.2c-0.1-0.1-0.2-0.1-0.3-0.2c-0.1-0.1-0.2-0.1-0.3-0.2
								c-1.2-0.9-2.2-2.1-3.2-3.5c-0.9-1.4-1.8-2.9-2.4-4.6c-0.6-1.7-1.1-3.4-1.4-5.2c-0.3-1.8-0.3-3.6-0.1-5.3
								c0.2-1.9,0.7-3.4,1.3-4.7c0.7-1.3,1.5-2.3,2.5-2.9c1-0.6,2.1-0.9,3.3-0.9c1.2,0.1,2.5,0.5,3.8,1.3c0.1,0.1,0.2,0.1,0.3,0.2
								c0.1,0.1,0.2,0.1,0.3,0.2c0.1,0.1,0.2,0.1,0.3,0.2C175.6,407.6,175.7,407.7,175.8,407.8z"/>
						</g>
					</g>
				</g>
			</g>
			<g>
				<g>
					<g class="st16">
						<g>
							<path class="st0" d="M130.7,417l1.2,0.5c1.7,0.7,3.2,1.7,4.5,3c1.3,1.3,2.2,2.8,2.9,4.5c0.7,1.7,1.1,3.5,1.1,5.4
								c0,1.9-0.3,3.8-1,5.7c-0.7,1.8-1.6,3.4-2.8,4.7c-1.2,1.4-2.5,2.5-4,3.3c-1.5,0.8-3.1,1.4-4.8,1.6c-1.7,0.2-3.4,0.2-5.1-0.3
								c0,0-0.1,0-0.1,0c0,0,0,0-0.1,0c0,0-0.1,0-0.1,0c0,0-0.1,0-0.1,0c0,0,0,0-0.1,0c0,0-0.1,0-0.1,0c0,0-0.1,0-0.1,0
								c0,0,0,0-0.1,0c0,0-0.1,0-0.1,0c0,0-0.1,0-0.1,0c0,0,0,0-0.1,0c0,0-0.1,0-0.1,0c1.7,0.4,3.4,0.5,5.1,0.3
								c1.7-0.2,3.3-0.8,4.8-1.6c1.5-0.8,2.9-2,4.1-3.3c1.2-1.4,2.1-3,2.8-4.8c0.7-1.9,1.1-3.9,1-5.8c0-1.9-0.4-3.8-1.1-5.5
								c-0.7-1.7-1.7-3.3-2.9-4.6C134,418.8,132.5,417.7,130.7,417z"/>
						</g>
						<g>
							<path class="st0" d="M130.4,416.9c1.8,0.7,3.4,1.7,4.7,3c1.3,1.3,2.3,2.9,3.1,4.6c0.7,1.7,1.1,3.6,1.1,5.5
								c0,1.9-0.3,3.9-1,5.9c-0.7,1.9-1.8,3.7-3.1,5.1c-1.3,1.4-2.8,2.6-4.5,3.4c-1.7,0.8-3.5,1.3-5.3,1.4c-1.8,0.1-3.7-0.2-5.5-0.9
								c-1.8-0.7-3.3-1.8-4.6-3.1c-1.3-1.3-2.3-2.9-3-4.6c-0.7-1.7-1.1-3.6-1.1-5.5c0-1.9,0.3-3.9,1-5.8c0.7-1.9,1.8-3.6,3-5
								c1.3-1.4,2.8-2.6,4.4-3.4c1.6-0.8,3.4-1.3,5.2-1.4C126.7,416,128.6,416.2,130.4,416.9z"/>
						</g>
					</g>
				</g>
			</g>
			<g>
				<g>
					<g class="st16">
						<g>
							<path class="st0" d="M166.7,369.6c0.2,1.1,0.4,2.3,0.6,3.4c0,0.1,0,0.2-0.1,0.4c-0.1,0.1-0.2,0.3-0.3,0.4
								c-0.2,0.1-0.4,0.3-0.6,0.5c-0.2,0.2-0.5,0.3-0.9,0.5c-1,0.5-2.3,1-3.9,1.5c-1.5,0.5-3.3,1-5.2,1.4c-1.9,0.4-3.8,0.8-5.7,1.1
								c-1.9,0.3-3.8,0.5-5.6,0.6c-1.1,0.1-2.1,0.1-2.9,0.1c-0.8,0-1.6-0.1-2.2-0.2c-0.6-0.1-1-0.2-1.4-0.4
								c-0.3-0.2-0.5-0.3-0.5-0.5l-0.6-3.4c0,0.2,0.2,0.4,0.5,0.5c0.3,0.1,0.8,0.3,1.4,0.3c0.6,0.1,1.3,0.1,2.2,0.1
								c0.9,0,1.8,0,2.9-0.1c1.8-0.1,3.7-0.3,5.6-0.6c1.9-0.3,3.9-0.7,5.7-1.1c1.9-0.4,3.6-0.9,5.2-1.4c1.5-0.5,2.9-1,3.9-1.5
								c0.3-0.2,0.6-0.3,0.9-0.5c0.2-0.2,0.4-0.3,0.6-0.5c0.2-0.1,0.3-0.3,0.3-0.4C166.7,369.8,166.7,369.7,166.7,369.6z"/>
						</g>
						<g>
							<path class="st0" d="M159.3,368.7c1.7-0.1,3.2-0.2,4.3-0.1c1.1,0.1,2,0.2,2.5,0.4c0.5,0.2,0.7,0.5,0.5,0.9
								c-0.2,0.4-0.8,0.8-1.8,1.3c-1,0.5-2.3,1-3.9,1.5c-1.6,0.5-3.3,1-5.2,1.4c-1.9,0.4-3.8,0.8-5.7,1.1c-1.9,0.3-3.8,0.5-5.6,0.6
								c-1.8,0.1-3.2,0.1-4.3,0c-1.1-0.1-1.9-0.3-2.3-0.5c-0.4-0.3-0.5-0.6-0.2-1c0.3-0.4,1-0.8,2-1.3c1.1-0.5,2.4-1,3.9-1.4
								c1.5-0.5,3.2-0.9,5-1.3c1.8-0.4,3.6-0.7,5.5-1C155.8,369,157.6,368.8,159.3,368.7z"/>
						</g>
					</g>
				</g>
			</g>
			<path class="st2" d="M188,335.1c-0.2,0-0.4,0-0.7,0C187.5,335.1,187.7,335.1,188,335.1z"/>
			<path class="st2" d="M192,334.8c-0.3,0-0.5,0.1-0.8,0.1C191.5,334.9,191.7,334.9,192,334.8z"/>
			<path class="st2" d="M177,335c0.4,0,0.8,0.1,1.2,0.1C177.8,335,177.4,335,177,335z"/>
			<path class="st2" d="M172.8,334.5c0.9,0.1,1.7,0.2,2.6,0.3C174.5,334.7,173.6,334.6,172.8,334.5z"/>
			<path class="st2" d="M180,335.1c0.3,0,0.7,0,1,0C180.6,335.2,180.3,335.1,180,335.1z"/>
			<path class="st18" d="M175.5,291.3c0,0-2.8-4.6-18.7-4.6s-18.8,4.8-18.8,4.8"/>
		</g>
	</g>
	<g>
		<path class="st2" d="M141.4,291c0.3,0,0.5,0.1,0.8,0.1C141.9,291.1,141.7,291.1,141.4,291z"/>
		<path class="st2" d="M139.2,290.6c0.7,0.1,1.4,0.3,2.2,0.4C140.7,290.9,140,290.8,139.2,290.6z"/>
		<path class="st2" d="M142.2,291.2c1,0.2,2,0.3,3.1,0.5C144.2,291.5,143.2,291.3,142.2,291.2z"/>
		<path class="st2" d="M139.2,290.6c-0.1,0-0.3-0.1-0.4-0.1c0,0,0,0,0,0C139,290.6,139.1,290.6,139.2,290.6z"/>
		<path class="st2" d="M245,221.5c1.4-2.1,3.2-4.2,5.8-5.8l-3.9-5.8c-2.9,1.9-5.1,4.1-6.8,6.6c-3.6-2.4-7.6-2.8-9.9-2.8
			c-8.1-27.7-37.8-48.3-73.3-48.3c-8.4,0-16.4,1.2-23.9,3.3l0.1,0c-8.9-14.8-28.6-8-28.6-8c6,7.4,1.4,21.5,1.4,21.5l0,0
			c-10.6,8.2-18.4,18.9-22.1,31h-9.5c-1,0-1.8,7.3-1.8,16.4c0,9,0.8,16.4,1.8,16.4h9.9v0c7.2,22.1,28.3,39.3,54.8,44.7
			c4.7-3.9,8.9-3.9,18-3.9c9.1,0,13.5,0,18,3.9c33-6.8,57.5-31.8,57.5-61.7c0-2.8-0.2-5.5-0.6-8.2c1.4,0.2,3.3,0.7,5,2
			c-2.8,7.2-2.4,14.6-1.7,18c0.6,3,3.1,4.9,6,4.9c0.4,0,0.9,0,1.3-0.1c1.4-0.3,8.5-2.6,5.4-16.9C247,225.7,246.1,223.4,245,221.5z"
			/>
	</g>
</g>
<g id="Layer_3">
</g>
</svg>
