<?xml version="1.0" encoding="utf-8"?>
<!-- Generator: Adobe Illustrator 19.2.1, SVG Export Plug-In . SVG Version: 6.00 Build 0)  -->
<svg version="1.1" xmlns="http://www.w3.org/2000/svg" xmlns:xlink="http://www.w3.org/1999/xlink" x="0px" y="0px"
	 viewBox="0 0 314.6 436.5" style="enable-background:new 0 0 314.6 436.5;" xml:space="preserve">
<style type="text/css">
	.st0{fill:#FF6A4B;}
	.st1{fill:#ECECEC;stroke:#FFFFFF;stroke-width:7;stroke-linejoin:round;stroke-miterlimit:10;}
	.st2{fill:#ECECEC;}
	.st3{fill:none;stroke:#D9D9D9;stroke-width:7;stroke-miterlimit:10;}
	.st4{fill:#FF6A4B;stroke:#FFFFFF;stroke-width:3;stroke-miterlimit:10;}
	.st5{fill:none;stroke:#023843;stroke-miterlimit:10;}
	.st6{fill:#FFFFFF;}
	.st7{fill:none;stroke:#FF6A4B;stroke-width:2;stroke-miterlimit:10;}
	.st8{fill:none;stroke:#FF6A4B;stroke-width:7;stroke-miterlimit:10;}
	.st9{fill:none;stroke:#FFFFFF;stroke-width:7;stroke-miterlimit:10;}
	.st10{fill:none;stroke:#FFFFFF;stroke-width:7;stroke-linejoin:round;stroke-miterlimit:10;}
	.st11{clip-path:url(#SVGID_2_);}
	.st12{fill:none;stroke:#ECECEC;stroke-width:7;stroke-linecap:round;stroke-miterlimit:10;}
	.st13{fill:none;stroke:#ECECEC;stroke-width:8;stroke-miterlimit:10;}
	.st14{fill:none;stroke:#FF6A4B;stroke-width:3.5;stroke-linecap:round;stroke-miterlimit:10;}
	.st15{fill:#FF6A4B;stroke:#FF6A4B;stroke-width:3.5;stroke-miterlimit:10;}
	.st16{enable-background:new    ;}
	.st17{clip-path:url(#SVGID_4_);}
	.st18{fill:none;stroke:#FFFFFF;stroke-width:3.5;stroke-miterlimit:10;}
	.st19{clip-path:url(#SVGID_6_);}
	.st20{fill-rule:evenodd;clip-rule:evenodd;fill:#ECECEC;}
	.st21{clip-path:url(#SVGID_8_);}
	.st22{fill:none;}
	.st23{fill:#ECECEC;stroke:#ECECEC;stroke-linejoin:round;stroke-miterlimit:10;}
	.st24{fill:#ECECEC;stroke:#ECECEC;stroke-linecap:round;stroke-miterlimit:10;}
	.st25{fill:none;stroke:#ECECEC;stroke-width:2;stroke-linecap:round;stroke-miterlimit:10;}
	.st26{fill:#ECECEC;stroke:#FFFFFF;stroke-width:2;stroke-miterlimit:10;}
	.st27{clip-path:url(#SVGID_10_);}
	.st28{clip-path:url(#SVGID_12_);}
	.st29{fill:#ECECEC;stroke:#FFFFFF;stroke-miterlimit:10;}
	.st30{clip-path:url(#SVGID_14_);}
	.st31{fill:none;stroke:#FF6A4B;stroke-width:7;stroke-linejoin:round;}
	.st32{fill:none;stroke:#FF6A4B;stroke-width:7;stroke-linejoin:round;stroke-dasharray:14.4314,7.2157;}
	.st33{fill:none;stroke:#FF6A4B;stroke-width:7;stroke-linejoin:round;stroke-dasharray:13.4186,6.7093;}
	.st34{clip-path:url(#SVGID_16_);}
	.st35{fill:none;stroke:#FFFFFF;stroke-width:3;stroke-miterlimit:10;}
	.st36{fill:none;stroke:#ECECEC;stroke-width:3.5;stroke-miterlimit:10;}
	.st37{fill:#1D1D1B;}
	.st38{clip-path:url(#SVGID_18_);fill:#1D1D1B;}
</style>
<g id="Layer_4">
</g>
<g id="Layer_1">
	<g>
		<path class="st2" d="M76.8,460.6c-10.6,0-22.6-0.7-29.3-8.6c-4.6-5.4-6-13.6-4.3-24.3c2.5-15.5,3.4-20.4,3.8-22.8
			c0.4-2.4,0.4-2.4,1.3-8.1c1.1-7.7,4.6-31.2,35.4-41c27.7-8.8,39-13.1,40.2-31l1-14.1c-2-1.7-10.2-9.8-13.8-27.6l0-0.1l0-0.1
			c0,0-0.4-3.9-3.8-6.8c-4.3-3.7-7-10-7-16.4c0-0.6,0-1.1,0-1.7c0-5.9-0.1-11.9,5-15.7c-0.6-2.5-2.5-11.3-1.8-22.9
			c0.8-12.5,4-23.7,9.3-32.4c9.2-14.9,24.2-22.4,44.6-22.4s35.4,7.5,44.6,22.4c5.3,8.7,8.6,19.9,9.3,32.4
			c0.7,11.5-1.2,20.4-1.8,22.9c5.1,3.8,5.1,9.9,5,15.7c0,0.6,0,1.1,0,1.7c0,6.4-2.7,12.7-7,16.4c-3.4,2.9-3.8,6.8-3.8,6.8
			c-2.3,18.2-11.6,26.1-13.8,27.8l1,14c1.2,17.9,12.5,22.2,40.2,31c30.8,9.8,34.3,33.3,35.4,41c0.8,5.7,0.8,5.7,1.3,8.1
			c0.4,2.4,1.3,7.3,3.8,22.8c1.8,10.7,0.3,18.9-4.3,24.3c-6.8,8-18.7,8.6-29.3,8.6H76.8z"/>
		<path class="st6" d="M157.3,165.6c46.9,0,52.1,40.5,52.9,53.9c0.8,13.4-2,23.2-2,23.2c5.8,3.8,5.2,10.5,5.2,17
			c0,6.5-2.9,12.4-6.7,15.7c-3.8,3.2-4.1,7.5-4.1,7.5c-2.5,20-13.9,27.4-13.9,27.4l1,14.6c1.2,18.5,12.9,23,40.9,31.9
			c27.9,8.9,33,28.8,34.7,40.2c1.7,11.4,0,0,5.1,30.9c5.1,30.9-17.8,31.8-32.6,31.8c-7.4,0-44,0-80.6,0s-73.1,0-80.6,0
			c-14.8,0-37.7-0.8-32.6-31.8c5.1-30.9,3.4-19.5,5.1-30.9c1.7-11.4,6.8-31.3,34.7-40.2c27.9-8.9,39.7-13.4,40.9-31.9l1-14.6
			c0,0-9.9-7.6-13.9-27.4c0,0-0.4-4.3-4.1-7.5c-3.8-3.2-6.7-9.1-6.7-15.7c0-6.5-0.6-13.2,5.2-17c0,0-2.8-9.8-2-23.2
			C105.2,206.1,110.5,165.6,157.3,165.6 M157.3,163.6c-20.8,0-36.1,7.7-45.4,22.9c-5.4,8.8-8.7,20.2-9.5,32.9
			c-0.7,10.8,1,19.3,1.7,22.5c-5,4.1-4.9,10.5-4.9,16.1c0,0.6,0,1.1,0,1.7c0,6.7,2.8,13.3,7.3,17.2c3,2.6,3.4,6.1,3.4,6.2l0,0.1
			l0,0.1c3.5,17.1,11.2,25.5,13.8,27.9l-1,13.6c-0.5,8.5-3.3,13.8-9.5,18.1c-6.4,4.4-16,7.6-29.9,12.1c-31.4,10-34.9,34-36.1,41.8
			c-0.8,5.7-0.8,5.7-1.3,8.1c-0.4,2.4-1.3,7.3-3.8,22.8c-1.8,11-0.3,19.5,4.5,25.1c7,8.3,19.2,9,30.1,9h80.6h80.6
			c10.9,0,23-0.7,30.1-9c4.8-5.7,6.3-14.1,4.5-25.1c-2.5-15.5-3.4-20.4-3.8-22.8c-0.4-2.4-0.4-2.4-1.3-8.1
			c-1.2-7.9-4.7-31.8-36.1-41.8c-14-4.4-23.6-7.7-29.9-12.1c-6.2-4.3-9-9.5-9.5-18l-1-13.5c3-2.4,11.6-10.6,13.8-28.1l0,0l0,0
			c0,0,0.4-3.5,3.4-6.2c4.5-3.9,7.4-10.5,7.4-17.2c0-0.6,0-1.1,0-1.7c0-5.6,0.1-12-4.9-16.1c0.7-3.2,2.4-11.7,1.7-22.5
			c-0.8-12.7-4.1-24.1-9.5-32.9C193.4,171.3,178.1,163.6,157.3,163.6L157.3,163.6z"/>
	</g>
	<g id="New_Symbol">
	</g>
	<g id="New_Symbol_2_">
	</g>
	<g id="New_Symbol_1_">
	</g>
	<g>
		<path class="st0" d="M173.6,223.6c-1.1,1.5-2.4,2.7-5.4,4.9c-1.6,1.2-3.3,2.3-4.9,3.5c-1.1,0.8-2.8,2-3.6,3
			c-0.4,0.6-0.7,1.1-0.9,2.5l-9.2-0.1c0-0.5,0-3,0.7-4.7c1.6-4.1,6.8-6.4,9.8-9c0.6-0.4,3.5-2.8,3.5-6.1c0-0.6-0.1-1.4-0.2-2
			c-1.2-4.4-4.9-4.6-6.6-4.6c-1.5,0-4.7,0.1-7,3.4c-0.9,1.2-1.3,2.5-1.5,3c-0.2,1-0.2,1.8-0.2,2.3l-10.4-3.4
			c0.1-0.4,1.2-3.3,2.3-5.2c5.2-8.4,15.1-8.2,17.7-8.2c1.2,0,4.5,0,8,1.1c8.6,2.5,10.1,9,10.1,12.5
			C175.8,217.5,175.6,220.7,173.6,223.6z M148.5,255.1v-12.4H160v12.4H148.5z"/>
	</g>
</g>
<g id="Layer_3">
</g>
</svg>
