<?xml version="1.0" encoding="utf-8"?>
<!-- Generator: Adobe Illustrator 19.2.1, SVG Export Plug-In . SVG Version: 6.00 Build 0)  -->
<svg version="1.1" xmlns="http://www.w3.org/2000/svg" xmlns:xlink="http://www.w3.org/1999/xlink" x="0px" y="0px"
	 viewBox="0 0 314.6 436.5" style="enable-background:new 0 0 314.6 436.5;" xml:space="preserve">
<style type="text/css">
	.st0{fill:#FF6A4B;}
	.st1{fill:#ECECEC;stroke:#FFFFFF;stroke-width:7;stroke-linejoin:round;stroke-miterlimit:10;}
	.st2{fill:#ECECEC;}
	.st3{fill:none;stroke:#D9D9D9;stroke-width:7;stroke-miterlimit:10;}
	.st4{fill:#FF6A4B;stroke:#FFFFFF;stroke-width:3;stroke-miterlimit:10;}
	.st5{fill:none;stroke:#023843;stroke-miterlimit:10;}
	.st6{fill:#FFFFFF;}
	.st7{fill:none;stroke:#FF6A4B;stroke-width:2;stroke-miterlimit:10;}
	.st8{fill:none;stroke:#FF6A4B;stroke-width:7;stroke-miterlimit:10;}
	.st9{fill:none;stroke:#FFFFFF;stroke-width:7;stroke-miterlimit:10;}
	.st10{fill:none;stroke:#FFFFFF;stroke-width:7;stroke-linejoin:round;stroke-miterlimit:10;}
	.st11{clip-path:url(#SVGID_2_);}
	.st12{fill:none;stroke:#ECECEC;stroke-width:7;stroke-linecap:round;stroke-miterlimit:10;}
	.st13{fill:none;stroke:#ECECEC;stroke-width:8;stroke-miterlimit:10;}
	.st14{fill:none;stroke:#FF6A4B;stroke-width:3.5;stroke-linecap:round;stroke-miterlimit:10;}
	.st15{fill:#FF6A4B;stroke:#FF6A4B;stroke-width:3.5;stroke-miterlimit:10;}
	.st16{enable-background:new    ;}
	.st17{clip-path:url(#SVGID_4_);}
	.st18{fill:none;stroke:#FFFFFF;stroke-width:3.5;stroke-miterlimit:10;}
	.st19{clip-path:url(#SVGID_6_);}
	.st20{fill-rule:evenodd;clip-rule:evenodd;fill:#ECECEC;}
	.st21{clip-path:url(#SVGID_8_);}
	.st22{fill:none;}
	.st23{fill:#ECECEC;stroke:#ECECEC;stroke-linejoin:round;stroke-miterlimit:10;}
	.st24{fill:#ECECEC;stroke:#ECECEC;stroke-linecap:round;stroke-miterlimit:10;}
	.st25{fill:none;stroke:#ECECEC;stroke-width:2;stroke-linecap:round;stroke-miterlimit:10;}
	.st26{fill:#ECECEC;stroke:#FFFFFF;stroke-width:2;stroke-miterlimit:10;}
	.st27{clip-path:url(#SVGID_10_);}
	.st28{clip-path:url(#SVGID_12_);}
	.st29{fill:#ECECEC;stroke:#FFFFFF;stroke-miterlimit:10;}
	.st30{clip-path:url(#SVGID_14_);}
	.st31{fill:none;stroke:#FF6A4B;stroke-width:7;stroke-linejoin:round;}
	.st32{fill:none;stroke:#FF6A4B;stroke-width:7;stroke-linejoin:round;stroke-dasharray:14.4314,7.2157;}
	.st33{fill:none;stroke:#FF6A4B;stroke-width:7;stroke-linejoin:round;stroke-dasharray:13.4186,6.7093;}
	.st34{clip-path:url(#SVGID_16_);}
	.st35{fill:none;stroke:#FFFFFF;stroke-width:3;stroke-miterlimit:10;}
	.st36{fill:none;stroke:#ECECEC;stroke-width:3.5;stroke-miterlimit:10;}
	.st37{fill:#1D1D1B;}
	.st38{clip-path:url(#SVGID_18_);fill:#1D1D1B;}
</style>
<g id="Layer_4">
</g>
<g id="Layer_1">
	<g id="New_Symbol">
	</g>
	<g id="New_Symbol_2_">
	</g>
	<g id="New_Symbol_1_">
	</g>
	<g>
		<defs>
			<rect id="SVGID_13_" width="315.3" height="436.5"/>
		</defs>
		<clipPath id="SVGID_2_">
			<use xlink:href="#SVGID_13_"  style="overflow:visible;"/>
		</clipPath>
		<g class="st11">
			<g>
				<g>
					<circle class="st2" cx="89" cy="338.2" r="18.6"/>
					<polygon class="st2" points="98.3,322.1 79.7,354.3 112.9,373 165.6,360.9 					"/>
				</g>
				<g>
					<circle class="st2" cx="89.4" cy="310" r="18.6"/>
					
						<rect x="104.5" y="290.6" transform="matrix(0.5 -0.866 0.866 0.5 -223.7893 271.3258)" class="st2" width="37.2" height="77.7"/>
				</g>
				<g>
					<circle class="st2" cx="89" cy="277" r="18.6"/>
					
						<rect x="104" y="257.6" transform="matrix(0.5 -0.866 0.866 0.5 -195.4033 254.4008)" class="st2" width="37.2" height="77.7"/>
				</g>
				<g>
					<circle class="st2" cx="89" cy="239.8" r="18.6"/>
					
						<rect x="104" y="220.4" transform="matrix(0.5 -0.866 0.866 0.5 -163.1862 235.8002)" class="st2" width="37.2" height="77.7"/>
				</g>
				
					<rect x="126.2" y="272.1" transform="matrix(0.9659 0.2588 -0.2588 0.9659 93.1409 -40.7899)" class="st2" width="150.6" height="122.4"/>
				<g>
					<rect x="102.3" y="155.7" class="st6" width="107.8" height="201.9"/>
					<g>
						<polyline class="st31" points="210.1,350.6 210.1,357.6 203.1,357.6 						"/>
						<line class="st32" x1="195.9" y1="357.6" x2="112.9" y2="357.6"/>
						<polyline class="st31" points="109.3,357.6 102.3,357.6 102.3,350.6 						"/>
						<line class="st33" x1="102.3" y1="343.9" x2="102.3" y2="166.1"/>
						<polyline class="st31" points="102.3,162.7 102.3,155.7 109.3,155.7 						"/>
						<line class="st32" x1="116.6" y1="155.7" x2="199.5" y2="155.7"/>
						<polyline class="st31" points="203.1,155.7 210.1,155.7 210.1,162.7 						"/>
						<line class="st33" x1="210.1" y1="169.4" x2="210.1" y2="347.2"/>
					</g>
				</g>
				<g>
					
						<ellipse transform="matrix(0.7675 -0.641 0.641 0.7675 -92.9985 193.1622)" class="st2" cx="219.8" cy="224.8" rx="18.6" ry="18.6"/>
					
						<rect x="207.9" y="224.2" transform="matrix(0.9852 -0.1714 0.1714 0.9852 -41.7341 42.7026)" class="st2" width="37.2" height="77.7"/>
				</g>
				<g>
					<g>
						<circle class="st2" cx="107.5" cy="327.8" r="18.6"/>
						<polygon class="st2" points="98.2,311.7 116.8,343.9 97.1,355 78.5,322.8 						"/>
					</g>
					<g>
						<circle class="st2" cx="107" cy="299.7" r="18.6"/>
						<polygon class="st2" points="97.7,283.6 116.3,315.8 96.3,327.2 77.7,294.9 						"/>
					</g>
					<g>
						<circle class="st2" cx="107.5" cy="266.6" r="18.6"/>
						<polygon class="st2" points="98.2,250.5 116.8,282.7 98.7,293 80.1,260.8 						"/>
					</g>
					<g>
						<circle class="st2" cx="107.5" cy="229.4" r="18.6"/>
						<polygon class="st2" points="98.2,213.3 116.8,245.5 96.2,257.5 77.6,225.3 						"/>
					</g>
				</g>
				<path class="st2" d="M241.4,240.1c0,0,5.8,33.7,33.2,49.5l-54.9-13l17.9-36.4H241.4z"/>
			</g>
			<polygon class="st2" points="264.2,426.9 334.9,435 366.5,313.5 298.3,295.8 			"/>
		</g>
	</g>
</g>
<g id="Layer_3">
</g>
</svg>
