<?xml version="1.0" encoding="utf-8"?>
<!-- Generator: Adobe Illustrator 19.2.1, SVG Export Plug-In . SVG Version: 6.00 Build 0)  -->
<svg version="1.1" xmlns="http://www.w3.org/2000/svg" xmlns:xlink="http://www.w3.org/1999/xlink" x="0px" y="0px"
	 viewBox="0 0 314.6 436.5" style="enable-background:new 0 0 314.6 436.5;" xml:space="preserve">
<style type="text/css">
	.st0{fill:#ECECEC;}
	.st1{fill:#FF6A4B;}
	.st2{fill:#ECECEC;stroke:#FFFFFF;stroke-width:7;stroke-linejoin:round;stroke-miterlimit:10;}
	.st3{fill:none;stroke:#D9D9D9;stroke-width:7;stroke-miterlimit:10;}
	.st4{fill:#FF6A4B;stroke:#FFFFFF;stroke-width:3;stroke-miterlimit:10;}
	.st5{fill:none;stroke:#023843;stroke-miterlimit:10;}
	.st6{fill:#FFFFFF;}
	.st7{fill:none;stroke:#FF6A4B;stroke-width:2;stroke-miterlimit:10;}
	.st8{fill:none;stroke:#FF6A4B;stroke-width:7;stroke-miterlimit:10;}
	.st9{fill:none;stroke:#FFFFFF;stroke-width:7;stroke-miterlimit:10;}
	.st10{fill:none;stroke:#FFFFFF;stroke-width:7;stroke-linejoin:round;stroke-miterlimit:10;}
	.st11{clip-path:url(#SVGID_2_);}
	.st12{fill:none;stroke:#ECECEC;stroke-width:7;stroke-linecap:round;stroke-miterlimit:10;}
	.st13{fill:none;stroke:#ECECEC;stroke-width:8;stroke-miterlimit:10;}
	.st14{fill:none;stroke:#FF6A4B;stroke-width:3.5;stroke-linecap:round;stroke-miterlimit:10;}
	.st15{fill:#FF6A4B;stroke:#FF6A4B;stroke-width:3.5;stroke-miterlimit:10;}
	.st16{enable-background:new    ;}
	.st17{clip-path:url(#SVGID_4_);}
	.st18{fill:none;stroke:#FFFFFF;stroke-width:3.5;stroke-miterlimit:10;}
	.st19{clip-path:url(#SVGID_6_);}
	.st20{fill-rule:evenodd;clip-rule:evenodd;fill:#ECECEC;}
	.st21{clip-path:url(#SVGID_8_);}
	.st22{fill:none;}
	.st23{fill:#ECECEC;stroke:#ECECEC;stroke-linejoin:round;stroke-miterlimit:10;}
	.st24{fill:#ECECEC;stroke:#ECECEC;stroke-linecap:round;stroke-miterlimit:10;}
	.st25{fill:none;stroke:#ECECEC;stroke-width:2;stroke-linecap:round;stroke-miterlimit:10;}
	.st26{fill:#ECECEC;stroke:#FFFFFF;stroke-width:2;stroke-miterlimit:10;}
	.st27{clip-path:url(#SVGID_10_);}
	.st28{clip-path:url(#SVGID_12_);}
	.st29{fill:#ECECEC;stroke:#FFFFFF;stroke-miterlimit:10;}
	.st30{clip-path:url(#SVGID_14_);}
	.st31{fill:none;stroke:#FF6A4B;stroke-width:7;stroke-linejoin:round;}
	.st32{fill:none;stroke:#FF6A4B;stroke-width:7;stroke-linejoin:round;stroke-dasharray:14.4314,7.2157;}
	.st33{fill:none;stroke:#FF6A4B;stroke-width:7;stroke-linejoin:round;stroke-dasharray:13.4186,6.7093;}
	.st34{clip-path:url(#SVGID_16_);}
	.st35{fill:none;stroke:#FFFFFF;stroke-width:3;stroke-miterlimit:10;}
	.st36{fill:none;stroke:#ECECEC;stroke-width:3.5;stroke-miterlimit:10;}
	.st37{fill:#1D1D1B;}
	.st38{clip-path:url(#SVGID_18_);fill:#1D1D1B;}
</style>
<symbol  id="New_Symbol_3_" viewBox="-48.6 -34.3 97.2 68.7">
	<path class="st0" d="M41,20.4H9.7l0,0l-9.6,0.1c3,2.1,4.2,6.1,2.6,9.5c-1.8,3.8-6.3,5.4-10.1,3.6l-20.4-9.7c0,0-20.8-8.7-20.8-30.8
		c0-23.5,14.7-27.4,23.1-27.4c3.8,0,27.8,0,27.8,0c5.1,0,9.3,4.2,9.3,9.3c0,0.9-0.1,1.8-0.4,2.6c3.4,1.4,5.8,4.7,5.8,8.6
		c0,1.4-0.3,2.7-0.8,3.8c2.8,1.6,4.7,4.6,4.7,8.1c0,2.8-1.3,5.4-3.3,7.1v0H41c4.2,0,7.6,3.4,7.6,7.6C48.6,17,45.2,20.4,41,20.4z"/>
</symbol>
<g id="Layer_4">
</g>
<g id="Layer_1">
	<g id="New_Symbol">
	</g>
	<g id="New_Symbol_2_">
	</g>
	<g id="New_Symbol_1_">
	</g>
	<g>
		<defs>
			<rect id="SVGID_1_" width="314.6" height="436.5"/>
		</defs>
		<clipPath id="SVGID_2_">
			<use xlink:href="#SVGID_1_"  style="overflow:visible;"/>
		</clipPath>
		<g class="st11">
			<g>
				<path class="st1" d="M295.5,265.4h-17.6l0,0l-5.4,0c1.7-1.2,2.4-3.4,1.5-5.4c-1-2.1-3.6-3.1-5.7-2l-11.5,5.5
					c0,0-11.7,4.9-11.7,17.4c0,13.3,8.3,15.5,13,15.5c2.1,0,15.6,0,15.6,0c2.9,0,5.2-2.3,5.2-5.2c0-0.5-0.1-1-0.2-1.5
					c1.9-0.8,3.3-2.7,3.3-4.9c0-0.8-0.2-1.5-0.5-2.2c1.6-0.9,2.7-2.6,2.7-4.6c0-1.6-0.7-3-1.9-4v0h13.2c2.4,0,4.3-1.9,4.3-4.3
					C299.8,267.3,297.8,265.4,295.5,265.4z"/>
				<path class="st1" d="M70.4,207.6H41.3l0,0l-8.9-0.1c2.8-1.9,3.9-5.7,2.4-8.9c-1.7-3.5-5.9-5-9.5-3.4l-19,9
					c0,0-19.3,8.1-19.3,28.7c0,21.9,13.7,25.5,21.5,25.5c3.5,0,25.9,0,25.9,0c4.8,0,8.7-3.9,8.7-8.7c0-0.8-0.1-1.7-0.4-2.4
					c3.2-1.3,5.4-4.4,5.4-8c0-1.3-0.3-2.5-0.8-3.6c2.6-1.5,4.4-4.3,4.4-7.5c0-2.6-1.2-5-3.1-6.6v0h21.8c3.9,0,7.1-3.2,7.1-7.1
					C77.5,210.8,74.4,207.6,70.4,207.6z"/>
				<path class="st1" d="M201.8,367.5H167l0,0l-10.6-0.1c3.4-2.3,4.7-6.8,2.9-10.6c-2-4.2-7.1-6-11.3-4l-22.7,10.8
					c0,0-23.1,9.7-23.1,34.3c0,26.2,16.4,30.5,25.7,30.5c4.2,0,30.9,0,30.9,0c5.7,0,10.3-4.6,10.3-10.3c0-1-0.2-2-0.4-2.9
					c3.8-1.5,6.5-5.2,6.5-9.6c0-1.5-0.3-3-0.9-4.3c3.1-1.8,5.2-5.1,5.2-9c0-3.2-1.4-6-3.7-7.9v0h26.1c4.7,0,8.5-3.8,8.5-8.5
					C210.2,371.3,206.4,367.5,201.8,367.5z"/>
				
					<use xlink:href="#New_Symbol_3_"  width="97.2" height="68.7" x="-48.6" y="-34.3" transform="matrix(0.9873 0 0 -0.9873 344.672 199.9789)" style="overflow:visible;"/>
				
					<use xlink:href="#New_Symbol_3_"  width="97.2" height="68.7" x="-48.6" y="-34.3" transform="matrix(0.9873 0 0 -0.9873 -42.2864 375.3246)" style="overflow:visible;"/>
				
					<use xlink:href="#New_Symbol_3_"  width="97.2" height="68.7" x="-48.6" y="-34.3" transform="matrix(0.8908 0 0 -0.8908 226.0584 210.9622)" style="overflow:visible;"/>
				
					<use xlink:href="#New_Symbol_3_"  width="97.2" height="68.7" x="-48.6" y="-34.3" transform="matrix(1.0683 0 0 -1.0683 150.56 286.9877)" style="overflow:visible;"/>
				
					<use xlink:href="#New_Symbol_3_"  width="97.2" height="68.7" x="-48.6" y="-34.3" transform="matrix(0.7009 0 0 -0.7009 66.3108 366.1064)" style="overflow:visible;"/>
				
					<use xlink:href="#New_Symbol_3_"  width="97.2" height="68.7" x="-48.6" y="-34.3" transform="matrix(1 0 0 -1 26.2459 450.6243)" style="overflow:visible;"/>
				
					<use xlink:href="#New_Symbol_3_"  width="97.2" height="68.7" x="-48.6" y="-34.3" transform="matrix(1.0783 0 0 -1.0783 268.6438 444.6237)" style="overflow:visible;"/>
				
					<use xlink:href="#New_Symbol_3_"  width="97.2" height="68.7" x="-48.6" y="-34.3" transform="matrix(0.6615 0 0 -0.6615 260.3222 342.0377)" style="overflow:visible;"/>
				
					<use xlink:href="#New_Symbol_3_"  width="97.2" height="68.7" x="-48.6" y="-34.3" transform="matrix(0.7183 0 0 -0.7183 40.5683 300.0614)" style="overflow:visible;"/>
				
					<use xlink:href="#New_Symbol_3_"  width="97.2" height="68.7" x="-48.6" y="-34.3" transform="matrix(0.7768 0 0 -0.7768 136.1982 199.9789)" style="overflow:visible;"/>
			</g>
		</g>
	</g>
</g>
<g id="Layer_3">
</g>
</svg>
