<?xml version="1.0" encoding="utf-8"?>
<!-- Generator: Adobe Illustrator 19.2.1, SVG Export Plug-In . SVG Version: 6.00 Build 0)  -->
<svg version="1.1" xmlns="http://www.w3.org/2000/svg" xmlns:xlink="http://www.w3.org/1999/xlink" x="0px" y="0px"
	 viewBox="0 0 314.6 436.5" style="enable-background:new 0 0 314.6 436.5;" xml:space="preserve">
<style type="text/css">
	.st0{fill:#FF6A4B;}
	.st1{fill:#ECECEC;stroke:#FFFFFF;stroke-width:7;stroke-linejoin:round;stroke-miterlimit:10;}
	.st2{fill:#ECECEC;}
	.st3{fill:none;stroke:#D9D9D9;stroke-width:7;stroke-miterlimit:10;}
	.st4{fill:#FF6A4B;stroke:#FFFFFF;stroke-width:3;stroke-miterlimit:10;}
	.st5{fill:none;stroke:#023843;stroke-miterlimit:10;}
	.st6{fill:#FFFFFF;}
	.st7{fill:none;stroke:#FF6A4B;stroke-width:2;stroke-miterlimit:10;}
	.st8{fill:none;stroke:#FF6A4B;stroke-width:7;stroke-miterlimit:10;}
	.st9{fill:none;stroke:#FFFFFF;stroke-width:7;stroke-miterlimit:10;}
	.st10{fill:none;stroke:#FFFFFF;stroke-width:7;stroke-linejoin:round;stroke-miterlimit:10;}
	.st11{clip-path:url(#SVGID_2_);}
	.st12{fill:none;stroke:#ECECEC;stroke-width:7;stroke-linecap:round;stroke-miterlimit:10;}
	.st13{fill:none;stroke:#ECECEC;stroke-width:8;stroke-miterlimit:10;}
	.st14{fill:none;stroke:#FF6A4B;stroke-width:3.5;stroke-linecap:round;stroke-miterlimit:10;}
	.st15{fill:#FF6A4B;stroke:#FF6A4B;stroke-width:3.5;stroke-miterlimit:10;}
	.st16{enable-background:new    ;}
	.st17{clip-path:url(#SVGID_4_);}
	.st18{fill:none;stroke:#FFFFFF;stroke-width:3.5;stroke-miterlimit:10;}
	.st19{clip-path:url(#SVGID_6_);}
	.st20{fill-rule:evenodd;clip-rule:evenodd;fill:#ECECEC;}
	.st21{clip-path:url(#SVGID_8_);}
	.st22{fill:none;}
	.st23{fill:#ECECEC;stroke:#ECECEC;stroke-linejoin:round;stroke-miterlimit:10;}
	.st24{fill:#ECECEC;stroke:#ECECEC;stroke-linecap:round;stroke-miterlimit:10;}
	.st25{fill:none;stroke:#ECECEC;stroke-width:2;stroke-linecap:round;stroke-miterlimit:10;}
	.st26{fill:#ECECEC;stroke:#FFFFFF;stroke-width:2;stroke-miterlimit:10;}
	.st27{clip-path:url(#SVGID_10_);}
	.st28{clip-path:url(#SVGID_12_);}
	.st29{fill:#ECECEC;stroke:#FFFFFF;stroke-miterlimit:10;}
	.st30{clip-path:url(#SVGID_14_);}
	.st31{fill:none;stroke:#FF6A4B;stroke-width:7;stroke-linejoin:round;}
	.st32{fill:none;stroke:#FF6A4B;stroke-width:7;stroke-linejoin:round;stroke-dasharray:14.4314,7.2157;}
	.st33{fill:none;stroke:#FF6A4B;stroke-width:7;stroke-linejoin:round;stroke-dasharray:13.4186,6.7093;}
	.st34{clip-path:url(#SVGID_16_);}
	.st35{fill:none;stroke:#FFFFFF;stroke-width:3;stroke-miterlimit:10;}
	.st36{fill:none;stroke:#ECECEC;stroke-width:3.5;stroke-miterlimit:10;}
	.st37{fill:#1D1D1B;}
	.st38{clip-path:url(#SVGID_18_);fill:#1D1D1B;}
</style>
<g id="Layer_4">
</g>
<g id="Layer_1">
	<g id="New_Symbol">
	</g>
	<g id="New_Symbol_2_">
	</g>
	<g id="New_Symbol_1_">
	</g>
	<g>
		<defs>
			<rect id="SVGID_9_" width="314.6" height="436.5"/>
		</defs>
		<clipPath id="SVGID_2_">
			<use xlink:href="#SVGID_9_"  style="overflow:visible;"/>
		</clipPath>
		<g class="st11">
			<g>
				<g>
					<path class="st0" d="M55.3,306.2l-1.6,12c0,0-6,1.1-10.5-0.7c-4.5-1.7-5.9-4.7-5.2-7.8s5.3-5.5,8.9-5.3S55.3,306.2,55.3,306.2z
						"/>
					<path class="st0" d="M59.8,306.5L59,318.3c0,0,6.2,3.7,18.9,3s16.8-4.4,18.8-6.6c2-2.2,2-6.5,0-9.3c-2-2.8-16.5-7.7-26.6-2.5
						C66.9,304.5,64.3,306.3,59.8,306.5z"/>
				</g>
				<g>
					<path class="st0" d="M55.3,275.7l-1.5-12c0,0-6-1.1-10.5,0.6s-5.9,4.7-5.2,7.8c0.7,3.1,5.3,5.5,8.9,5.3S55.3,275.7,55.3,275.7z
						"/>
					<path class="st0" d="M59.8,275.3L59,263.5c0,0,6.2-3.7,18.9-2.9c12.7,0.8,16.8,4.5,18.8,6.6s2,6.5-0.1,9.3
						c-2,2.8-16.5,7.7-26.6,2.5C66.9,277.4,64.3,275.6,59.8,275.3z"/>
				</g>
			</g>
			<g>
				<g>
					<path class="st2" d="M135.9,305.2l-2.5,11.8c0,0-6.1,0.6-10.4-1.5c-4.3-2.1-5.6-5.1-4.6-8.2s5.7-5.1,9.3-4.6
						C131.4,303.2,135.9,305.2,135.9,305.2z"/>
					<path class="st2" d="M140.3,305.9l-1.7,11.7c0,0,5.9,4.2,18.6,4.4c12.7,0.3,17.1-3.1,19.3-5.1c2.2-2,2.5-6.3,0.7-9.3
						s-15.8-9-26.4-4.6C147.6,304.4,144.9,306,140.3,305.9z"/>
				</g>
				<g>
					<path class="st2" d="M138,275.5l-5.7-10.7c0,0-6,1.1-9.6,4.3c-3.6,3.2-3.9,6.5-2.1,9.1c1.8,2.6,6.9,3.3,10.2,1.8
						C134.2,278.7,138,275.5,138,275.5z"/>
					<path class="st2" d="M142.1,273.6l-4.9-10.8c0,0,4.5-5.6,16.6-9.4s17.3-1.8,19.9-0.5c2.6,1.3,4.1,5.3,3.2,8.7s-12.7,13-24,11.7
						C149.4,273,146.4,272.3,142.1,273.6z"/>
				</g>
			</g>
			<g>
				<g>
					<path class="st2" d="M215.5,306.2l-1.6,12c0,0-6,1.1-10.5-0.7c-4.5-1.7-5.9-4.7-5.2-7.8s5.3-5.5,8.9-5.3
						S215.5,306.2,215.5,306.2z"/>
					<path class="st2" d="M220,306.5l-0.8,11.8c0,0,6.2,3.7,18.9,3c12.7-0.7,16.8-4.4,18.8-6.6c2-2.2,2-6.5,0-9.3
						c-2-2.8-16.5-7.7-26.6-2.5C227.1,304.5,224.5,306.3,220,306.5z"/>
				</g>
				<g>
					<path class="st2" d="M215,275.8l0.1-12.1c0,0-5.8-1.9-10.5-0.8c-4.7,1.1-6.5,3.8-6.2,7c0.3,3.2,4.4,6.2,8.1,6.5
						C210.1,276.7,215,275.8,215,275.8z"/>
					<path class="st2" d="M219.5,276.1l0.9-11.8c0,0,6.7-2.8,19.1-0.3c12.5,2.5,16,6.8,17.7,9.2c1.7,2.4,1.1,6.7-1.4,9.2
						c-2.4,2.5-17.4,5.3-26.7-1.3C226.2,279.1,223.9,277,219.5,276.1z"/>
				</g>
			</g>
			<g>
				<g>
					<path class="st2" d="M292.3,306.9l-1,12.1c0,0-6,1.4-10.5-0.1c-4.6-1.5-6.2-4.4-5.6-7.5c0.6-3.1,5-5.8,8.6-5.8
						C287.6,305.5,292.3,306.9,292.3,306.9z"/>
					<path class="st2" d="M296.8,307l-0.2,11.8c0,0,6.4,3.4,19,2c12.6-1.4,16.6-5.3,18.5-7.5c1.9-2.3,1.7-6.6-0.5-9.3
						s-16.9-6.9-26.7-1.2C303.8,304.6,301.3,306.5,296.8,307z"/>
				</g>
				<g>
					<path class="st2" d="M292.9,276.5l-2.4-11.9c0,0-6.1-0.7-10.4,1.4c-4.4,2-5.6,5.1-4.7,8.1s5.6,5.2,9.3,4.7
						C288.3,278.5,292.9,276.5,292.9,276.5z"/>
					<path class="st2" d="M297.3,275.9l-1.6-11.7c0,0,5.9-4.1,18.7-4.2c12.7-0.1,17.1,3.3,19.2,5.3c2.2,2,2.4,6.3,0.6,9.3
						c-1.8,3-15.9,8.8-26.4,4.3C304.5,277.4,301.9,275.9,297.3,275.9z"/>
				</g>
			</g>
		</g>
	</g>
</g>
<g id="Layer_3">
</g>
</svg>
