<?xml version="1.0" encoding="utf-8"?>
<!-- Generator: Adobe Illustrator 19.2.1, SVG Export Plug-In . SVG Version: 6.00 Build 0)  -->
<svg version="1.1" xmlns="http://www.w3.org/2000/svg" xmlns:xlink="http://www.w3.org/1999/xlink" x="0px" y="0px"
	 viewBox="0 0 314.6 436.5" style="enable-background:new 0 0 314.6 436.5;" xml:space="preserve">
<style type="text/css">
	.st0{fill:#FF6A4B;}
	.st1{fill:#ECECEC;stroke:#FFFFFF;stroke-width:7;stroke-linejoin:round;stroke-miterlimit:10;}
	.st2{fill:#ECECEC;}
	.st3{fill:none;stroke:#D9D9D9;stroke-width:7;stroke-miterlimit:10;}
	.st4{fill:#FF6A4B;stroke:#FFFFFF;stroke-width:3;stroke-miterlimit:10;}
	.st5{fill:none;stroke:#023843;stroke-miterlimit:10;}
	.st6{fill:#FFFFFF;}
	.st7{fill:none;stroke:#FF6A4B;stroke-width:2;stroke-miterlimit:10;}
	.st8{fill:none;stroke:#FF6A4B;stroke-width:7;stroke-miterlimit:10;}
	.st9{fill:none;stroke:#FFFFFF;stroke-width:7;stroke-miterlimit:10;}
	.st10{fill:none;stroke:#FFFFFF;stroke-width:7;stroke-linejoin:round;stroke-miterlimit:10;}
	.st11{clip-path:url(#SVGID_2_);}
	.st12{fill:none;stroke:#ECECEC;stroke-width:7;stroke-linecap:round;stroke-miterlimit:10;}
	.st13{fill:none;stroke:#ECECEC;stroke-width:8;stroke-miterlimit:10;}
	.st14{fill:none;stroke:#FF6A4B;stroke-width:3.5;stroke-linecap:round;stroke-miterlimit:10;}
	.st15{fill:#FF6A4B;stroke:#FF6A4B;stroke-width:3.5;stroke-miterlimit:10;}
	.st16{enable-background:new    ;}
	.st17{clip-path:url(#SVGID_4_);}
	.st18{fill:none;stroke:#FFFFFF;stroke-width:3.5;stroke-miterlimit:10;}
	.st19{clip-path:url(#SVGID_6_);}
	.st20{fill-rule:evenodd;clip-rule:evenodd;fill:#ECECEC;}
	.st21{clip-path:url(#SVGID_8_);}
	.st22{fill:none;}
	.st23{fill:#ECECEC;stroke:#ECECEC;stroke-linejoin:round;stroke-miterlimit:10;}
	.st24{fill:#ECECEC;stroke:#ECECEC;stroke-linecap:round;stroke-miterlimit:10;}
	.st25{fill:none;stroke:#ECECEC;stroke-width:2;stroke-linecap:round;stroke-miterlimit:10;}
	.st26{fill:#ECECEC;stroke:#FFFFFF;stroke-width:2;stroke-miterlimit:10;}
	.st27{clip-path:url(#SVGID_10_);}
	.st28{clip-path:url(#SVGID_12_);}
	.st29{fill:#ECECEC;stroke:#FFFFFF;stroke-miterlimit:10;}
	.st30{clip-path:url(#SVGID_14_);}
	.st31{fill:none;stroke:#FF6A4B;stroke-width:7;stroke-linejoin:round;}
	.st32{fill:none;stroke:#FF6A4B;stroke-width:7;stroke-linejoin:round;stroke-dasharray:14.4314,7.2157;}
	.st33{fill:none;stroke:#FF6A4B;stroke-width:7;stroke-linejoin:round;stroke-dasharray:13.4186,6.7093;}
	.st34{clip-path:url(#SVGID_16_);}
	.st35{fill:none;stroke:#FFFFFF;stroke-width:3;stroke-miterlimit:10;}
	.st36{fill:none;stroke:#ECECEC;stroke-width:3.5;stroke-miterlimit:10;}
	.st37{fill:#1D1D1B;}
	.st38{clip-path:url(#SVGID_18_);fill:#1D1D1B;}
</style>
<g id="Layer_4">
</g>
<g id="Layer_1">
	<g id="New_Symbol">
	</g>
	<g id="New_Symbol_2_">
	</g>
	<g id="New_Symbol_1_">
	</g>
	<g>
		<path class="st23" d="M64.6,250.2c0,0-6.7-7.6-11.9-8.5s-7.9-0.1-11.5,3.3s-5.2,2.4-7.5,1.1c0,0,8.3,8.6,16.9,4.7
			C61,246.2,64.6,250.2,64.6,250.2z"/>
		<path class="st24" d="M69.2,258.2c0,0,8.5-2.6,13.7,3.4c5.2,6,1.7,10.6,9.6,10.8c0,0-9.2,2.4-16.1-6.3
			C69.5,257.4,69.2,258.2,69.2,258.2z"/>
		<path class="st25" d="M70.2,259.8c6.2-16.9-0.4-23.2-0.4-23.2s2.8,6.2-8.4,14.8"/>
		<g>
			<path class="st0" d="M66.9,275c-4.9,0-8.9-4-8.9-8.9s4-8.9,8.9-8.9s8.9,4,8.9,8.9S71.8,275,66.9,275z"/>
			<path class="st6" d="M66.9,258.2c4.3,0,7.9,3.5,7.9,7.9c0,4.3-3.5,7.9-7.9,7.9c-4.3,0-7.9-3.5-7.9-7.9
				C59,261.8,62.5,258.2,66.9,258.2 M66.9,256.2c-5.4,0-9.9,4.4-9.9,9.9c0,5.4,4.4,9.9,9.9,9.9s9.9-4.4,9.9-9.9
				C76.8,260.7,72.3,256.2,66.9,256.2L66.9,256.2z"/>
		</g>
		<g>
			<path class="st0" d="M57,265.7c-4.9,0-8.9-4-8.9-8.9s4-8.9,8.9-8.9s8.9,4,8.9,8.9S61.9,265.7,57,265.7z"/>
			<path class="st6" d="M57,248.9c4.3,0,7.9,3.5,7.9,7.9c0,4.3-3.5,7.9-7.9,7.9c-4.3,0-7.9-3.5-7.9-7.9
				C49.1,252.5,52.6,248.9,57,248.9 M57,246.9c-5.4,0-9.9,4.4-9.9,9.9c0,5.4,4.4,9.9,9.9,9.9s9.9-4.4,9.9-9.9
				C66.9,251.4,62.4,246.9,57,246.9L57,246.9z"/>
		</g>
		<g>
			<path class="st0" d="M49.1,276c-4.9,0-8.9-4-8.9-8.9s4-8.9,8.9-8.9s8.9,4,8.9,8.9S54,276,49.1,276z"/>
			<path class="st6" d="M49.1,259.3c4.3,0,7.9,3.5,7.9,7.9c0,4.3-3.5,7.9-7.9,7.9c-4.3,0-7.9-3.5-7.9-7.9
				C41.2,262.8,44.8,259.3,49.1,259.3 M49.1,257.3c-5.4,0-9.9,4.4-9.9,9.9c0,5.4,4.4,9.9,9.9,9.9s9.9-4.4,9.9-9.9
				C59,261.7,54.6,257.3,49.1,257.3L49.1,257.3z"/>
		</g>
	</g>
	<rect x="107.1" y="210.4" class="st23" width="7.5" height="90.5"/>
	<rect x="202.7" y="210.4" class="st23" width="7.5" height="90.5"/>
	<g>
		<path class="st23" d="M159.9,249.7c0,0-7-7.9-12.5-8.9c-5.5-0.9-8.2-0.2-12.1,3.5c-3.8,3.6-5.4,2.6-7.8,1.2c0,0,8.7,9,17.7,4.9
			C156.2,245.5,159.9,249.7,159.9,249.7z"/>
		<path class="st24" d="M164.7,258.1c0,0,8.9-2.7,14.3,3.6c5.4,6.2,1.8,11.1,10.1,11.3c0,0-9.6,2.5-16.9-6.6
			S164.7,258.1,164.7,258.1z"/>
		<path class="st25" d="M165.8,259.8c6.5-17.7-0.5-24.3-0.5-24.3s3,6.5-8.8,15.5"/>
		<g>
			<path class="st0" d="M162.3,275.6c-5.1,0-9.3-4.2-9.3-9.3s4.2-9.3,9.3-9.3c5.1,0,9.3,4.2,9.3,9.3S167.4,275.6,162.3,275.6z"/>
			<path class="st6" d="M162.3,258.1c4.6,0,8.3,3.7,8.3,8.3s-3.7,8.3-8.3,8.3s-8.3-3.7-8.3-8.3S157.8,258.1,162.3,258.1
				 M162.3,256.1c-5.7,0-10.3,4.6-10.3,10.3s4.6,10.3,10.3,10.3s10.3-4.6,10.3-10.3S168,256.1,162.3,256.1L162.3,256.1z"/>
		</g>
		<g>
			<path class="st0" d="M152,265.9c-5.1,0-9.3-4.2-9.3-9.3s4.2-9.3,9.3-9.3s9.3,4.2,9.3,9.3S157.1,265.9,152,265.9z"/>
			<path class="st6" d="M152,248.4c4.6,0,8.3,3.7,8.3,8.3s-3.7,8.3-8.3,8.3s-8.3-3.7-8.3-8.3S147.4,248.4,152,248.4 M152,246.4
				c-5.7,0-10.3,4.6-10.3,10.3s4.6,10.3,10.3,10.3s10.3-4.6,10.3-10.3S157.6,246.4,152,246.4L152,246.4z"/>
		</g>
		<g>
			<path class="st0" d="M143.7,276.7c-5.1,0-9.3-4.2-9.3-9.3s4.2-9.2,9.3-9.2s9.3,4.1,9.3,9.2S148.8,276.7,143.7,276.7z"/>
			<path class="st6" d="M143.7,259.2c4.6,0,8.3,3.7,8.3,8.3s-3.7,8.3-8.3,8.3c-4.6,0-8.3-3.7-8.3-8.3S139.1,259.2,143.7,259.2
				 M143.7,257.2c-5.7,0-10.3,4.6-10.3,10.3s4.6,10.3,10.3,10.3s10.3-4.6,10.3-10.3S149.4,257.2,143.7,257.2L143.7,257.2z"/>
		</g>
	</g>
	<g>
		<g>
			<path class="st2" d="M238.9,275.9c2,4.5,12.6,4.3,23.7-0.5c11.1-4.8,18.6-12.4,16.6-16.9L274,261c1.3,3-4.3,8.2-12.5,11.8
				c-8.2,3.5-15.9,4-17.2,1L238.9,275.9z"/>
		</g>
		
			<ellipse transform="matrix(0.9179 -0.3968 0.3968 0.9179 -82.9099 126.1136)" class="st0" cx="263.3" cy="263.4" rx="9.2" ry="9.2"/>
		<g>
			<g>
				<path class="st2" d="M240.3,259.5c-0.4-1.8-1.4-5.9-1.4-5.9c-0.8-2.8-1.6-4.8-1.6-4.8c-1.5-3.5,0.3-7.8,4.1-10.8
					c-0.6-1.8,0.7-3.9,2.9-4.9s4.6-0.4,5.5,1.2c4.8-0.7,9.2,0.9,10.7,4.4c0,0,0.9,1.9,2.4,4.5c0,0,2.3,3.6,3.1,4.7
					c2.7,3.7,3.6,6.8,6.6,7.4c3.3,0.2,5.7,1.3,6.6,3.2L274,261c-0.5-1.2-2-1.8-4.1-1.9l0,0c-0.8-0.1-1.7,0-2.7,0.1c0,0,0,0,0,0
					c-0.2,0-0.5,0.1-0.7,0.1c0,0,0,0-0.1,0c-0.8,0.1-1.5,0.2-2.4,0.4c0,0-0.1,0-0.1,0c-0.2,0.1-0.5,0.1-0.7,0.2c-0.1,0-0.1,0-0.2,0
					c-0.2,0.1-0.4,0.1-0.6,0.2c-0.1,0-0.1,0-0.2,0.1c-0.2,0.1-0.5,0.1-0.8,0.2c0,0,0,0-0.1,0c-0.3,0.1-0.6,0.2-0.9,0.3
					c-0.1,0-0.1,0-0.2,0.1c-0.2,0.1-0.4,0.2-0.7,0.2c-0.1,0-0.2,0.1-0.3,0.1c-0.2,0.1-0.4,0.1-0.6,0.2c-0.1,0-0.2,0.1-0.3,0.1
					c-0.2,0.1-0.4,0.2-0.6,0.2c-0.1,0-0.2,0.1-0.3,0.1c-0.3,0.1-0.6,0.2-0.9,0.4c-0.3,0.1-0.6,0.3-0.8,0.4c-0.1,0-0.2,0.1-0.3,0.1
					c-0.2,0.1-0.4,0.2-0.6,0.3c-0.1,0-0.2,0.1-0.3,0.1c-0.2,0.1-0.4,0.2-0.5,0.3c-0.1,0-0.2,0.1-0.3,0.1c-0.2,0.1-0.4,0.2-0.6,0.3
					c-0.1,0-0.1,0.1-0.2,0.1c-0.3,0.1-0.5,0.3-0.8,0.4c0,0,0,0,0,0c-0.2,0.1-0.5,0.3-0.7,0.4c-0.1,0-0.1,0.1-0.2,0.1
					c-0.2,0.1-0.4,0.2-0.6,0.3c-0.1,0-0.1,0.1-0.2,0.1c-0.2,0.1-0.4,0.2-0.6,0.4c0,0-0.1,0.1-0.1,0.1c-0.7,0.5-1.3,0.9-1.9,1.4
					c0,0,0,0,0,0c-0.2,0.1-0.4,0.3-0.5,0.4c0,0,0,0,0,0c-0.7,0.6-1.4,1.3-1.9,1.9l0,0c-1.4,1.6-2,3.2-1.4,4.4l-5.4,2.1
					c-0.8-1.9,0-4.4,2.2-7c1.7-2.6,0-5.4-0.8-9.9"/>
			</g>
		</g>
	</g>
</g>
<g id="Layer_3">
</g>
</svg>
