<?xml version="1.0" encoding="utf-8"?>
<!-- Generator: Adobe Illustrator 19.2.1, SVG Export Plug-In . SVG Version: 6.00 Build 0)  -->
<svg version="1.1" xmlns="http://www.w3.org/2000/svg" xmlns:xlink="http://www.w3.org/1999/xlink" x="0px" y="0px"
	 viewBox="0 0 314.6 436.5" style="enable-background:new 0 0 314.6 436.5;" xml:space="preserve">
<style type="text/css">
	.st0{fill:#FF6A4B;}
	.st1{fill:#ECECEC;stroke:#FFFFFF;stroke-width:7;stroke-linejoin:round;stroke-miterlimit:10;}
	.st2{fill:#ECECEC;}
	.st3{fill:none;stroke:#D9D9D9;stroke-width:7;stroke-miterlimit:10;}
	.st4{fill:#FF6A4B;stroke:#FFFFFF;stroke-width:3;stroke-miterlimit:10;}
	.st5{fill:none;stroke:#023843;stroke-miterlimit:10;}
	.st6{fill:#FFFFFF;}
	.st7{fill:none;stroke:#FF6A4B;stroke-width:2;stroke-miterlimit:10;}
	.st8{fill:none;stroke:#FF6A4B;stroke-width:7;stroke-miterlimit:10;}
	.st9{fill:none;stroke:#FFFFFF;stroke-width:7;stroke-miterlimit:10;}
	.st10{fill:none;stroke:#FFFFFF;stroke-width:7;stroke-linejoin:round;stroke-miterlimit:10;}
	.st11{clip-path:url(#SVGID_2_);}
	.st12{fill:none;stroke:#ECECEC;stroke-width:7;stroke-linecap:round;stroke-miterlimit:10;}
	.st13{fill:none;stroke:#ECECEC;stroke-width:8;stroke-miterlimit:10;}
	.st14{fill:none;stroke:#FF6A4B;stroke-width:3.5;stroke-linecap:round;stroke-miterlimit:10;}
	.st15{fill:#FF6A4B;stroke:#FF6A4B;stroke-width:3.5;stroke-miterlimit:10;}
	.st16{enable-background:new    ;}
	.st17{clip-path:url(#SVGID_4_);}
	.st18{fill:none;stroke:#FFFFFF;stroke-width:3.5;stroke-miterlimit:10;}
	.st19{clip-path:url(#SVGID_6_);}
	.st20{fill-rule:evenodd;clip-rule:evenodd;fill:#ECECEC;}
	.st21{clip-path:url(#SVGID_8_);}
	.st22{fill:none;}
	.st23{fill:#ECECEC;stroke:#ECECEC;stroke-linejoin:round;stroke-miterlimit:10;}
	.st24{fill:#ECECEC;stroke:#ECECEC;stroke-linecap:round;stroke-miterlimit:10;}
	.st25{fill:none;stroke:#ECECEC;stroke-width:2;stroke-linecap:round;stroke-miterlimit:10;}
	.st26{fill:#ECECEC;stroke:#FFFFFF;stroke-width:2;stroke-miterlimit:10;}
	.st27{clip-path:url(#SVGID_10_);}
	.st28{clip-path:url(#SVGID_12_);}
	.st29{fill:#ECECEC;stroke:#FFFFFF;stroke-miterlimit:10;}
	.st30{clip-path:url(#SVGID_14_);}
	.st31{fill:none;stroke:#FF6A4B;stroke-width:7;stroke-linejoin:round;}
	.st32{fill:none;stroke:#FF6A4B;stroke-width:7;stroke-linejoin:round;stroke-dasharray:14.4314,7.2157;}
	.st33{fill:none;stroke:#FF6A4B;stroke-width:7;stroke-linejoin:round;stroke-dasharray:13.4186,6.7093;}
	.st34{clip-path:url(#SVGID_16_);}
	.st35{fill:none;stroke:#FFFFFF;stroke-width:3;stroke-miterlimit:10;}
	.st36{fill:none;stroke:#ECECEC;stroke-width:3.5;stroke-miterlimit:10;}
	.st37{fill:#1D1D1B;}
	.st38{clip-path:url(#SVGID_18_);fill:#1D1D1B;}
</style>
<g id="Layer_4">
</g>
<g id="Layer_1">
	<g id="New_Symbol">
	</g>
	<g id="New_Symbol_2_">
	</g>
	<g id="New_Symbol_1_">
	</g>
	<path class="st2" d="M330.3,103.4l-1.1,1.9l-1.9,0l1.2-1.9l-12.6,0.3l-260.2,286h178.8L343,103.1L330.3,103.4z M171.2,355.9
		l-10.8-0.2l59.4-86l7.7,0L171.2,355.9z M256.1,223.6l-6.1,0l21.1-32.3l4.9,0L256.1,223.6z M288.7,170.8l-4.2,0.1l10.7-16.4l3.6-0.1
		L288.7,170.8z M305.9,142.8l-3.2,0.1l6.5-9.9l2.9-0.1L305.9,142.8z M316.6,125.5l-2.6,0.1l4.3-6.7l2.4,0L316.6,125.5z M323.9,113.8
		l-2.2,0l3.1-4.8l2,0L323.9,113.8z"/>
	<polygon class="st0" points="167.9,339.5 167.9,269.8 135.9,269.8 135.9,339.5 114.4,339.5 151.9,378 189.5,339.5 	"/>
</g>
<g id="Layer_3">
</g>
</svg>
