<?xml version="1.0" encoding="utf-8"?>
<!-- Generator: Adobe Illustrator 19.2.1, SVG Export Plug-In . SVG Version: 6.00 Build 0)  -->
<svg version="1.1" xmlns="http://www.w3.org/2000/svg" xmlns:xlink="http://www.w3.org/1999/xlink" x="0px" y="0px"
	 viewBox="0 0 314.6 436.5" style="enable-background:new 0 0 314.6 436.5;" xml:space="preserve">
<style type="text/css">
	.st0{fill:#FF6A4B;}
	.st1{fill:#ECECEC;stroke:#FFFFFF;stroke-width:7;stroke-linejoin:round;stroke-miterlimit:10;}
	.st2{fill:#ECECEC;}
	.st3{fill:none;stroke:#D9D9D9;stroke-width:7;stroke-miterlimit:10;}
	.st4{fill:#FF6A4B;stroke:#FFFFFF;stroke-width:3;stroke-miterlimit:10;}
	.st5{fill:none;stroke:#023843;stroke-miterlimit:10;}
	.st6{fill:#FFFFFF;}
	.st7{fill:none;stroke:#FF6A4B;stroke-width:2;stroke-miterlimit:10;}
	.st8{fill:none;stroke:#FF6A4B;stroke-width:7;stroke-miterlimit:10;}
	.st9{fill:none;stroke:#FFFFFF;stroke-width:7;stroke-miterlimit:10;}
	.st10{fill:none;stroke:#FFFFFF;stroke-width:7;stroke-linejoin:round;stroke-miterlimit:10;}
	.st11{clip-path:url(#SVGID_2_);}
	.st12{fill:none;stroke:#ECECEC;stroke-width:7;stroke-linecap:round;stroke-miterlimit:10;}
	.st13{fill:none;stroke:#ECECEC;stroke-width:8;stroke-miterlimit:10;}
	.st14{fill:none;stroke:#FF6A4B;stroke-width:3.5;stroke-linecap:round;stroke-miterlimit:10;}
	.st15{fill:#FF6A4B;stroke:#FF6A4B;stroke-width:3.5;stroke-miterlimit:10;}
	.st16{enable-background:new    ;}
	.st17{clip-path:url(#SVGID_4_);}
	.st18{fill:none;stroke:#FFFFFF;stroke-width:3.5;stroke-miterlimit:10;}
	.st19{clip-path:url(#SVGID_6_);}
	.st20{fill-rule:evenodd;clip-rule:evenodd;fill:#ECECEC;}
	.st21{clip-path:url(#SVGID_8_);}
	.st22{fill:none;}
	.st23{fill:#ECECEC;stroke:#ECECEC;stroke-linejoin:round;stroke-miterlimit:10;}
	.st24{fill:#ECECEC;stroke:#ECECEC;stroke-linecap:round;stroke-miterlimit:10;}
	.st25{fill:none;stroke:#ECECEC;stroke-width:2;stroke-linecap:round;stroke-miterlimit:10;}
	.st26{fill:#ECECEC;stroke:#FFFFFF;stroke-width:2;stroke-miterlimit:10;}
	.st27{clip-path:url(#SVGID_10_);}
	.st28{clip-path:url(#SVGID_12_);}
	.st29{fill:#ECECEC;stroke:#FFFFFF;stroke-miterlimit:10;}
	.st30{clip-path:url(#SVGID_14_);}
	.st31{fill:none;stroke:#FF6A4B;stroke-width:7;stroke-linejoin:round;}
	.st32{fill:none;stroke:#FF6A4B;stroke-width:7;stroke-linejoin:round;stroke-dasharray:14.4314,7.2157;}
	.st33{fill:none;stroke:#FF6A4B;stroke-width:7;stroke-linejoin:round;stroke-dasharray:13.4186,6.7093;}
	.st34{clip-path:url(#SVGID_16_);}
	.st35{fill:none;stroke:#FFFFFF;stroke-width:3;stroke-miterlimit:10;}
	.st36{fill:none;stroke:#ECECEC;stroke-width:3.5;stroke-miterlimit:10;}
	.st37{fill:#1D1D1B;}
	.st38{clip-path:url(#SVGID_18_);fill:#1D1D1B;}
</style>
<g id="Layer_4">
</g>
<g id="Layer_1">
	<g id="New_Symbol">
	</g>
	<g id="New_Symbol_2_">
	</g>
	<g id="New_Symbol_1_">
	</g>
	<g>
		<defs>
			<rect id="SVGID_3_" x="-343.9" width="315.1" height="436.5"/>
		</defs>
		<clipPath id="SVGID_2_">
			<use xlink:href="#SVGID_3_"  style="overflow:visible;"/>
		</clipPath>
		<g class="st11">
			<path class="st2" d="M-29.1,203.5c3.2,0,6.4,0.2,9.6,0.5c3.2,0.3,6.2,0.8,9.1,1.4c2.9,0.6,5.5,1.3,7.7,2.1
				c2.2,0.8,4.1,1.7,5.3,2.7c1.2,1,1.8,1.9,1.6,2.7c-0.1,0.9-0.9,1.6-2.3,2.3c-1.4,0.7-3.4,1.2-5.9,1.6c-2.5,0.4-5.5,0.6-8.9,0.6
				c-3.4,0-6.9-0.2-10.3-0.6c-3.4-0.4-6.6-0.9-9.6-1.6c-2.9-0.7-5.5-1.4-7.6-2.3c-2.1-0.9-3.7-1.8-4.7-2.7c-1-1-1.2-1.9-0.9-2.7
				c0.4-0.8,1.3-1.5,2.8-2.1c1.5-0.6,3.4-1.1,5.8-1.4C-35.1,203.7-32.3,203.5-29.1,203.5z"/>
			<path class="st2" d="M-31.7,289.4c4.7,0,9.5,0.4,14.2,1.1c4.7,0.7,9.3,1.8,13.6,3.1c4.3,1.3,8.3,2.9,11.6,4.7
				c3.4,1.8,6.2,3.8,8.2,6c2,2.2,2.9,4.3,2.8,6.3c-0.1,2-1.2,3.8-3.3,5.3c-2.1,1.6-5.1,2.8-8.9,3.7c-3.8,0.9-8.4,1.4-13.7,1.4
				c-5.3,0-10.7-0.5-15.9-1.4c-5.2-0.9-10.1-2.2-14.6-3.7c-4.4-1.5-8.4-3.4-11.5-5.3c-3.1-2-5.5-4.1-6.9-6.3c-1.4-2.2-1.7-4.2-1.1-6
				c0.6-1.8,2.1-3.4,4.3-4.7c2.2-1.3,5.2-2.4,8.8-3.1C-40.6,289.8-36.4,289.4-31.7,289.4z"/>
			<path class="st2" d="M7.3,340c5.6,0,11.4,0.6,17.1,1.6c5.7,1,11.4,2.5,16.8,4.4c5.4,1.9,10.5,4.2,14.9,6.8
				c4.5,2.6,8.3,5.5,11.1,8.7c2.9,3.2,4.4,6.3,4.7,9.1c0.3,2.9-0.6,5.6-2.8,7.8c-2.2,2.3-5.5,4.2-10,5.5c-4.5,1.3-10,2.1-16.4,2.1
				c-6.4,0-13.1-0.7-19.6-2.1c-6.5-1.3-12.7-3.2-18.4-5.5c-5.6-2.3-10.7-4.9-14.9-7.8c-4.1-2.9-7.3-6-9.4-9.1
				c-2-3.1-2.7-6.1-2.3-8.7c0.4-2.6,2-4.9,4.4-6.8c2.4-1.9,5.8-3.4,10-4.4C-3.2,340.5,1.7,340,7.3,340z"/>
		</g>
	</g>
	<g>
		<defs>
			<rect id="SVGID_5_" width="314.6" height="436.5"/>
		</defs>
		<clipPath id="SVGID_4_">
			<use xlink:href="#SVGID_5_"  style="overflow:visible;"/>
		</clipPath>
		<g class="st17">
			<circle class="st0" cx="160.1" cy="255.3" r="43.3"/>
			<path class="st20" d="M70.3,215.5L44.2,277L37,261.3l13.3-36.2c1-2.8,4.5-4.1,10.4-4.1l2.1-5.5h-31l-2,5.5c4.4,0,6.2,1.3,5.5,4.1
				l-6.6,18.4l-13-28c-2.4-3-1.2-4.5,3.5-4.5v-6.5h-30v6.5c5.6,0,9.1,1.5,10.6,4.5l22,46.7l-10.3,27.5c-0.2,3.7-6,5.5-17.2,5.5
				l-2.1,5.5h85.5l11.9-25.3h-6.2c-5.8,13.1-12.5,19.8-20,19.8H24.3l5.8-15.5l5,10h11.2l31.6-74.2c1.5-4.5,5.4-6.9,11.5-6.9v-5.8
				H63.5v5.8C71.3,208.6,73.5,211,70.3,215.5L70.3,215.5z"/>
			<g>
				<path class="st20" d="M285.8,200.8c7.1-9.4,17-9.4,17-9.4s1.5,8.8-5.6,17.3c-7.5,9.1-16.1,7.6-16.1,7.6S279.5,209.1,285.8,200.8
					z"/>
				<path class="st20" d="M282,222.4c3.7,0,10.4-5,19.3-5c15.2,0,21.2,10.8,21.2,10.8s-11.7,6-11.7,20.5c0,16.4,14.6,22,14.6,22
					s-10.2,28.7-23.9,28.7c-6.3,0-11.2-4.3-17.9-4.3c-6.8,0-13.5,4.4-17.9,4.4c-12.6,0-28.4-27.2-28.4-49c0-21.5,13.4-32.8,26-32.8
					C271.4,217.7,277.8,222.4,282,222.4z"/>
			</g>
		</g>
	</g>
</g>
<g id="Layer_3">
</g>
</svg>
