<?xml version="1.0" encoding="utf-8"?>
<!-- Generator: Adobe Illustrator 19.2.1, SVG Export Plug-In . SVG Version: 6.00 Build 0)  -->
<svg version="1.1" xmlns="http://www.w3.org/2000/svg" xmlns:xlink="http://www.w3.org/1999/xlink" x="0px" y="0px"
	 viewBox="0 0 314.6 436.5" style="enable-background:new 0 0 314.6 436.5;" xml:space="preserve">
<style type="text/css">
	.st0{fill:#ECECEC;}
	.st1{fill:#FF6A4B;}
	.st2{fill:#ECECEC;stroke:#FFFFFF;stroke-width:7;stroke-linejoin:round;stroke-miterlimit:10;}
	.st3{fill:none;stroke:#D9D9D9;stroke-width:7;stroke-miterlimit:10;}
	.st4{fill:#FF6A4B;stroke:#FFFFFF;stroke-width:3;stroke-miterlimit:10;}
	.st5{fill:none;stroke:#023843;stroke-miterlimit:10;}
	.st6{fill:#FFFFFF;}
	.st7{fill:none;stroke:#FF6A4B;stroke-width:2;stroke-miterlimit:10;}
	.st8{fill:none;stroke:#FF6A4B;stroke-width:7;stroke-miterlimit:10;}
	.st9{fill:none;stroke:#FFFFFF;stroke-width:7;stroke-miterlimit:10;}
	.st10{fill:none;stroke:#FFFFFF;stroke-width:7;stroke-linejoin:round;stroke-miterlimit:10;}
	.st11{clip-path:url(#SVGID_2_);}
	.st12{fill:none;stroke:#ECECEC;stroke-width:7;stroke-linecap:round;stroke-miterlimit:10;}
	.st13{fill:none;stroke:#ECECEC;stroke-width:8;stroke-miterlimit:10;}
	.st14{fill:none;stroke:#FF6A4B;stroke-width:3.5;stroke-linecap:round;stroke-miterlimit:10;}
	.st15{fill:#FF6A4B;stroke:#FF6A4B;stroke-width:3.5;stroke-miterlimit:10;}
	.st16{enable-background:new    ;}
	.st17{clip-path:url(#SVGID_4_);}
	.st18{fill:none;stroke:#FFFFFF;stroke-width:3.5;stroke-miterlimit:10;}
	.st19{clip-path:url(#SVGID_6_);}
	.st20{fill-rule:evenodd;clip-rule:evenodd;fill:#ECECEC;}
	.st21{clip-path:url(#SVGID_8_);}
	.st22{fill:none;}
	.st23{fill:#ECECEC;stroke:#ECECEC;stroke-linejoin:round;stroke-miterlimit:10;}
	.st24{fill:#ECECEC;stroke:#ECECEC;stroke-linecap:round;stroke-miterlimit:10;}
	.st25{fill:none;stroke:#ECECEC;stroke-width:2;stroke-linecap:round;stroke-miterlimit:10;}
	.st26{fill:#ECECEC;stroke:#FFFFFF;stroke-width:2;stroke-miterlimit:10;}
	.st27{clip-path:url(#SVGID_10_);}
	.st28{clip-path:url(#SVGID_12_);}
	.st29{fill:#ECECEC;stroke:#FFFFFF;stroke-miterlimit:10;}
	.st30{clip-path:url(#SVGID_14_);}
	.st31{fill:none;stroke:#FF6A4B;stroke-width:7;stroke-linejoin:round;}
	.st32{fill:none;stroke:#FF6A4B;stroke-width:7;stroke-linejoin:round;stroke-dasharray:14.4314,7.2157;}
	.st33{fill:none;stroke:#FF6A4B;stroke-width:7;stroke-linejoin:round;stroke-dasharray:13.4186,6.7093;}
	.st34{clip-path:url(#SVGID_16_);}
	.st35{fill:none;stroke:#FFFFFF;stroke-width:3;stroke-miterlimit:10;}
	.st36{fill:none;stroke:#ECECEC;stroke-width:3.5;stroke-miterlimit:10;}
	.st37{fill:#1D1D1B;}
	.st38{clip-path:url(#SVGID_18_);fill:#1D1D1B;}
</style>
<symbol  id="New_Symbol_3_" viewBox="-48.6 -34.3 97.2 68.7">
	<path class="st0" d="M41,20.4H9.7l0,0l-9.6,0.1c3,2.1,4.2,6.1,2.6,9.5c-1.8,3.8-6.3,5.4-10.1,3.6l-20.4-9.7c0,0-20.8-8.7-20.8-30.8
		c0-23.5,14.7-27.4,23.1-27.4c3.8,0,27.8,0,27.8,0c5.1,0,9.3,4.2,9.3,9.3c0,0.9-0.1,1.8-0.4,2.6c3.4,1.4,5.8,4.7,5.8,8.6
		c0,1.4-0.3,2.7-0.8,3.8c2.8,1.6,4.7,4.6,4.7,8.1c0,2.8-1.3,5.4-3.3,7.1v0H41c4.2,0,7.6,3.4,7.6,7.6C48.6,17,45.2,20.4,41,20.4z"/>
</symbol>
<g id="Layer_4">
</g>
<g id="Layer_1">
	<polygon class="st2" points="247.8,178.9 157.3,178.9 66.8,178.9 36.5,233.7 157.3,233.7 278.1,233.7 	"/>
	<polygon class="st2" points="36.5,233.7 278.1,233.7 157.3,403.3 	"/>
	<polygon class="st2" points="157.3,403.3 112.5,233.7 203,233.7 	"/>
	<polyline class="st10" points="157.3,178.9 112.5,233.7 66.8,178.9 	"/>
	<g id="New_Symbol">
	</g>
	<g id="New_Symbol_2_">
	</g>
	<g id="New_Symbol_1_">
	</g>
	<g>
		<defs>
			<rect id="SVGID_1_" x="352.4" width="314.6" height="436.5"/>
		</defs>
		<clipPath id="SVGID_2_">
			<use xlink:href="#SVGID_1_"  style="overflow:visible;"/>
		</clipPath>
		<g class="st11">
			<g>
				
					<use xlink:href="#New_Symbol_3_"  width="97.2" height="68.7" x="-48.6" y="-34.3" transform="matrix(0.9873 0 0 -0.9873 310.0637 375.3246)" style="overflow:visible;"/>
			</g>
		</g>
	</g>
	<polyline class="st10" points="247.8,178.9 203,233.7 157.3,178.9 	"/>
	<g>
		<polygon class="st1" points="229,164.5 236.8,194.2 266.5,202 236.8,209.9 229,239.6 221.2,209.9 191.4,202 221.2,194.2 		"/>
		<polygon class="st1" points="252.1,178.9 236.6,202 252.1,225.2 229,209.6 205.8,225.2 221.4,202 205.8,178.9 229,194.4 		"/>
	</g>
</g>
<g id="Layer_3">
</g>
</svg>
