<?xml version="1.0" encoding="utf-8"?>
<!-- Generator: Adobe Illustrator 19.2.1, SVG Export Plug-In . SVG Version: 6.00 Build 0)  -->
<svg version="1.1" xmlns="http://www.w3.org/2000/svg" xmlns:xlink="http://www.w3.org/1999/xlink" x="0px" y="0px"
	 viewBox="0 0 314.6 436.5" style="enable-background:new 0 0 314.6 436.5;" xml:space="preserve">
<style type="text/css">
	.st0{fill:#FF6A4B;}
	.st1{fill:#ECECEC;stroke:#FFFFFF;stroke-width:7;stroke-linejoin:round;stroke-miterlimit:10;}
	.st2{fill:#ECECEC;}
	.st3{fill:none;stroke:#D9D9D9;stroke-width:7;stroke-miterlimit:10;}
	.st4{fill:#FF6A4B;stroke:#FFFFFF;stroke-width:3;stroke-miterlimit:10;}
	.st5{fill:none;stroke:#023843;stroke-miterlimit:10;}
	.st6{fill:#FFFFFF;}
	.st7{fill:none;stroke:#FF6A4B;stroke-width:2;stroke-miterlimit:10;}
	.st8{fill:none;stroke:#FF6A4B;stroke-width:7;stroke-miterlimit:10;}
	.st9{fill:none;stroke:#FFFFFF;stroke-width:7;stroke-miterlimit:10;}
	.st10{fill:none;stroke:#FFFFFF;stroke-width:7;stroke-linejoin:round;stroke-miterlimit:10;}
	.st11{clip-path:url(#SVGID_2_);}
	.st12{fill:none;stroke:#ECECEC;stroke-width:7;stroke-linecap:round;stroke-miterlimit:10;}
	.st13{fill:none;stroke:#ECECEC;stroke-width:8;stroke-miterlimit:10;}
	.st14{fill:none;stroke:#FF6A4B;stroke-width:3.5;stroke-linecap:round;stroke-miterlimit:10;}
	.st15{fill:#FF6A4B;stroke:#FF6A4B;stroke-width:3.5;stroke-miterlimit:10;}
	.st16{enable-background:new    ;}
	.st17{clip-path:url(#SVGID_4_);}
	.st18{fill:none;stroke:#FFFFFF;stroke-width:3.5;stroke-miterlimit:10;}
	.st19{clip-path:url(#SVGID_6_);}
	.st20{fill-rule:evenodd;clip-rule:evenodd;fill:#ECECEC;}
	.st21{clip-path:url(#SVGID_8_);}
	.st22{fill:none;}
	.st23{fill:#ECECEC;stroke:#ECECEC;stroke-linejoin:round;stroke-miterlimit:10;}
	.st24{fill:#ECECEC;stroke:#ECECEC;stroke-linecap:round;stroke-miterlimit:10;}
	.st25{fill:none;stroke:#ECECEC;stroke-width:2;stroke-linecap:round;stroke-miterlimit:10;}
	.st26{fill:#ECECEC;stroke:#FFFFFF;stroke-width:2;stroke-miterlimit:10;}
	.st27{clip-path:url(#SVGID_10_);}
	.st28{clip-path:url(#SVGID_12_);}
	.st29{fill:#ECECEC;stroke:#FFFFFF;stroke-miterlimit:10;}
	.st30{clip-path:url(#SVGID_14_);}
	.st31{fill:none;stroke:#FF6A4B;stroke-width:7;stroke-linejoin:round;}
	.st32{fill:none;stroke:#FF6A4B;stroke-width:7;stroke-linejoin:round;stroke-dasharray:14.4314,7.2157;}
	.st33{fill:none;stroke:#FF6A4B;stroke-width:7;stroke-linejoin:round;stroke-dasharray:13.4186,6.7093;}
	.st34{clip-path:url(#SVGID_16_);}
	.st35{fill:none;stroke:#FFFFFF;stroke-width:3;stroke-miterlimit:10;}
	.st36{fill:none;stroke:#ECECEC;stroke-width:3.5;stroke-miterlimit:10;}
	.st37{fill:#1D1D1B;}
	.st38{clip-path:url(#SVGID_18_);fill:#1D1D1B;}
</style>
<g id="Layer_4">
</g>
<g id="Layer_1">
	<g id="New_Symbol">
	</g>
	<g id="New_Symbol_2_">
	</g>
	<g id="New_Symbol_1_">
	</g>
	<g>
		<g>
			<path class="st2" d="M64.7,242.6c0,3.9-1.4,7-4.2,9.4c-2.8,2.4-6.5,3.5-11.1,3.5c-5.8,0-10.3-2-13.7-6c-3.4-4-5-9.4-5-16.2
				c0-10.8,4.2-18.7,12.6-23.6c5.7-3.3,10.7-4.9,15-4.9c0.8,0,1.2,0.3,1.2,0.9c0,0.7-0.5,1.1-1.4,1.2c-5.1,1.5-8.8,2.9-11.1,4.2
				c-6,3.5-9,9-9,16.4c0,6.5,2.3,11,6.9,13.7c0-6.7,2.9-10.1,8.8-10.1c3.3,0,6,1.1,8,3.2C63.7,236.4,64.7,239.1,64.7,242.6z
				 M101.3,242.6c0,3.9-1.4,7-4.2,9.4c-2.8,2.4-6.5,3.5-11.1,3.5c-5.8,0-10.3-2-13.7-6c-3.4-4-5-9.4-5-16.2
				c0-10.8,4.2-18.7,12.6-23.6c5.7-3.3,10.7-4.9,15-4.9c0.8,0,1.2,0.3,1.2,0.9c0,0.7-0.5,1.1-1.4,1.2c-13.4,3.5-20.2,10.3-20.2,20.4
				c0,6.6,2.3,11.2,6.9,13.9c0-6.7,2.9-10.1,8.8-10.1c3.2,0,5.8,1.1,7.9,3.3C100.2,236.5,101.3,239.3,101.3,242.6z"/>
			<path class="st0" d="M200.2,273.9c-2.7,3.7-5.8,6.5-13.1,11.8c-3.9,2.8-8,5.7-12,8.5c-2.7,1.9-6.7,5-8.7,7.2
				c-1.1,1.4-1.6,2.7-2.3,6l-22.5-0.2c0-1.2,0-7.2,1.6-11.5c3.9-10.1,16.4-15.6,23.9-21.9c1.4-1.1,8.5-6.9,8.5-14.9
				c0-1.4-0.2-3.4-0.5-4.8c-2.8-10.6-12-11.1-15.9-11.1c-3.7,0-11.3,0.4-17,8.3c-2.1,3-3.2,6.2-3.5,7.2c-0.5,2.5-0.5,4.4-0.5,5.5
				l-25.3-8.3c0.4-0.9,2.8-8.1,5.7-12.7c12.6-20.3,36.8-20,43-20c2.8,0,11,0,19.4,2.7c20.9,6.2,24.6,21.9,24.6,30.4
				C205.5,259.3,205,266.9,200.2,273.9z M139.2,350.5v-30.1h27.9v30.1H139.2z"/>
			<path class="st2" d="M231.7,351.3c0,11-4.2,18.9-12.6,23.9c-5.4,3.2-10.4,4.8-15,4.8c-0.8,0-1.2-0.3-1.2-0.9c0-0.6,0.5-1,1.4-1.2
				c13.4-3.2,20.2-10.1,20.2-20.7c0-6.5-2.3-11.1-6.9-13.8c0,6.6-2.9,9.9-8.7,9.9c-3.3,0-6-1.1-8-3.2c-2.1-2.1-3.1-4.8-3.1-8.1
				c0-3.9,1.4-7,4.2-9.4c2.8-2.4,6.5-3.5,11.1-3.5c5.8,0,10.3,2,13.7,6C230,339,231.7,344.5,231.7,351.3z M268.2,351.3
				c0,11-4.2,18.9-12.6,23.9c-5.4,3.2-10.4,4.8-15,4.8c-0.8,0-1.2-0.3-1.2-0.9c0-0.6,0.5-1,1.4-1.2c13.4-3.2,20.2-10.1,20.2-20.7
				c0-6.5-2.3-11.1-6.9-13.8c0,6.6-2.9,9.9-8.7,9.9c-3.3,0-6-1-8-3.1c-2.1-2.1-3.1-4.8-3.1-8.2c0-3.9,1.4-7,4.2-9.4
				c2.8-2.4,6.5-3.5,11.1-3.5c5.8,0,10.3,2,13.7,6C266.6,339,268.2,344.5,268.2,351.3z"/>
		</g>
	</g>
</g>
<g id="Layer_3">
</g>
</svg>
