<?xml version="1.0" encoding="utf-8"?>
<!-- Generator: Adobe Illustrator 19.2.1, SVG Export Plug-In . SVG Version: 6.00 Build 0)  -->
<svg version="1.1" xmlns="http://www.w3.org/2000/svg" xmlns:xlink="http://www.w3.org/1999/xlink" x="0px" y="0px"
	 viewBox="0 0 314.6 436.5" style="enable-background:new 0 0 314.6 436.5;" xml:space="preserve">
<style type="text/css">
	.st0{fill:#FF6A4B;}
	.st1{fill:#ECECEC;stroke:#FFFFFF;stroke-width:7;stroke-linejoin:round;stroke-miterlimit:10;}
	.st2{fill:#ECECEC;}
	.st3{fill:none;stroke:#D9D9D9;stroke-width:7;stroke-miterlimit:10;}
	.st4{fill:#FF6A4B;stroke:#FFFFFF;stroke-width:3;stroke-miterlimit:10;}
	.st5{fill:none;stroke:#023843;stroke-miterlimit:10;}
	.st6{fill:#FFFFFF;}
	.st7{fill:none;stroke:#FF6A4B;stroke-width:2;stroke-miterlimit:10;}
	.st8{fill:none;stroke:#FF6A4B;stroke-width:7;stroke-miterlimit:10;}
	.st9{fill:none;stroke:#FFFFFF;stroke-width:7;stroke-miterlimit:10;}
	.st10{fill:none;stroke:#FFFFFF;stroke-width:7;stroke-linejoin:round;stroke-miterlimit:10;}
	.st11{clip-path:url(#SVGID_2_);}
	.st12{fill:none;stroke:#ECECEC;stroke-width:7;stroke-linecap:round;stroke-miterlimit:10;}
	.st13{fill:none;stroke:#ECECEC;stroke-width:8;stroke-miterlimit:10;}
	.st14{fill:none;stroke:#FF6A4B;stroke-width:3.5;stroke-linecap:round;stroke-miterlimit:10;}
	.st15{fill:#FF6A4B;stroke:#FF6A4B;stroke-width:3.5;stroke-miterlimit:10;}
	.st16{enable-background:new    ;}
	.st17{clip-path:url(#SVGID_4_);}
	.st18{fill:none;stroke:#FFFFFF;stroke-width:3.5;stroke-miterlimit:10;}
	.st19{clip-path:url(#SVGID_6_);}
	.st20{fill-rule:evenodd;clip-rule:evenodd;fill:#ECECEC;}
	.st21{clip-path:url(#SVGID_8_);}
	.st22{fill:none;}
	.st23{fill:#ECECEC;stroke:#ECECEC;stroke-linejoin:round;stroke-miterlimit:10;}
	.st24{fill:#ECECEC;stroke:#ECECEC;stroke-linecap:round;stroke-miterlimit:10;}
	.st25{fill:none;stroke:#ECECEC;stroke-width:2;stroke-linecap:round;stroke-miterlimit:10;}
	.st26{fill:#ECECEC;stroke:#FFFFFF;stroke-width:2;stroke-miterlimit:10;}
	.st27{clip-path:url(#SVGID_10_);}
	.st28{clip-path:url(#SVGID_12_);}
	.st29{fill:#ECECEC;stroke:#FFFFFF;stroke-miterlimit:10;}
	.st30{clip-path:url(#SVGID_14_);}
	.st31{fill:none;stroke:#FF6A4B;stroke-width:7;stroke-linejoin:round;}
	.st32{fill:none;stroke:#FF6A4B;stroke-width:7;stroke-linejoin:round;stroke-dasharray:14.4314,7.2157;}
	.st33{fill:none;stroke:#FF6A4B;stroke-width:7;stroke-linejoin:round;stroke-dasharray:13.4186,6.7093;}
	.st34{clip-path:url(#SVGID_16_);}
	.st35{fill:none;stroke:#FFFFFF;stroke-width:3;stroke-miterlimit:10;}
	.st36{fill:none;stroke:#ECECEC;stroke-width:3.5;stroke-miterlimit:10;}
	.st37{fill:#1D1D1B;}
	.st38{clip-path:url(#SVGID_18_);fill:#1D1D1B;}
</style>
<g id="Layer_4">
</g>
<g id="Layer_1">
	<g id="New_Symbol">
	</g>
	<g id="New_Symbol_2_">
	</g>
	<g id="New_Symbol_1_">
	</g>
	<g>
		<path class="st0" d="M214,223.9c-27.1,0-49,21.9-49,49s21.9,49,49,49s49-21.9,49-49S241,223.9,214,223.9z M207.9,292.3l-22-22
			l5-4.9l17,17l29-29l5,4.9L207.9,292.3z"/>
		<path class="st2" d="M100.7,248.4c-27.1,0-49,21.9-49,49s21.9,49,49,49c27.1,0,49-21.9,49-49S127.7,248.4,100.7,248.4z
			 M118.7,310.6l-5,4.9l-12.9-13.1l-13.4,13.4l-5-4.9l13.4-13.4L82.7,284l5-4.9l13.2,13.4l13.1-13.1l5,4.9l-13.2,13.2L118.7,310.6z"
			/>
	</g>
</g>
<g id="Layer_3">
</g>
</svg>
