<?xml version="1.0" encoding="utf-8"?>
<!-- Generator: Adobe Illustrator 19.2.1, SVG Export Plug-In . SVG Version: 6.00 Build 0)  -->
<svg version="1.1" id="Layer_1" xmlns="http://www.w3.org/2000/svg" xmlns:xlink="http://www.w3.org/1999/xlink" x="0px" y="0px"
	 viewBox="0 0 258.1 32" style="enable-background:new 0 0 258.1 32;" xml:space="preserve">
<style type="text/css">
	.st0{fill:#023843;}
	.st1{fill:#FFFFFF;}
	.st2{fill:#010202;}
	.st3{fill:#ED6950;}
	.st4{fill:#6DBD8C;}
	.st5{fill:#ECECEC;}
	.st6{fill:#EC654D;}
	.st7{clip-path:url(#SVGID_2_);fill:none;stroke:#000000;stroke-width:0.25;}
</style>
<g>
	<path class="st3" d="M35.4,11.2v12h-3.8v-12h-3.9V8.3h11.5v2.9H35.4z"/>
	<path class="st3" d="M47.2,23.2v-5.8c0-0.8,0-2-0.8-2.5c-0.3-0.2-0.6-0.3-0.9-0.3c-0.2,0-0.6,0-1,0.3c-0.7,0.5-0.8,1.2-0.8,2.8v5.5
		h-3.3V8.3h3.3l0,5.1c0.1-0.1,0.3-0.4,0.6-0.6c1-0.8,2-0.9,2.5-0.9c1.5,0,2.3,0.7,2.7,1.1c0.2,0.3,0.4,0.6,0.5,0.9
		c0.2,0.5,0.3,1,0.3,2.1v7.2H47.2z"/>
	<path class="st3" d="M55.5,18.3c0,0.1,0,0.4,0,0.7c0.3,1.3,1.2,2.1,2.5,2.1c0.2,0,0.6,0,1.1-0.2c1.1-0.4,1.6-1.5,1.7-1.8l2.5,1.3
		c-0.4,0.7-0.7,1-0.9,1.2c-1.6,1.8-3.7,1.9-4.6,1.9c-0.3,0-1.1,0-2-0.3c-2.5-0.8-3.6-2.9-3.6-5.4c0-0.7,0-2.7,1.4-4.3
		c0.7-0.8,1.8-1.8,4.2-1.8c0.7,0,2.9,0.1,4.3,2c1.2,1.7,1.2,4,1.2,4.5H55.5z M58.8,14.3c-0.4-0.2-0.8-0.2-1-0.2c-1.3,0-1.9,1-2,1.3
		c-0.1,0.2-0.2,0.4-0.3,0.8h4.5C60,15.9,59.9,14.8,58.8,14.3z"/>
	<path class="st3" d="M79.9,23.2l-5.4-9.2l0.1,9.2H71V8.3h3.7l5.5,9.4L80,8.3h3.6v14.9H79.9z"/>
	<path class="st3" d="M86.2,10.8V8.3h3.2v2.5H86.2z M86.2,23.2v-11h3.2v11H86.2z"/>
	<path class="st3" d="M98.4,23.2v-6.2c0-0.7,0-1.3-0.1-1.6c-0.1-0.4-0.5-0.9-1.5-0.9c-0.1,0-0.7,0-1.1,0.3c-0.5,0.4-0.6,1.1-0.6,2.4
		v6h-3.3v-11h3.3v1c0.1-0.1,0.2-0.3,0.5-0.5c0.4-0.3,1.3-0.8,2.6-0.8c0.3,0,1.2,0,2,0.4c1.4,0.7,1.5,2,1.5,3.3v7.5H98.4z"/>
	<path class="st3" d="M106.8,18.3c0,0.1,0,0.4,0,0.7c0.3,1.3,1.2,2.1,2.5,2.1c0.2,0,0.6,0,1.1-0.2c1.1-0.4,1.6-1.5,1.7-1.8l2.5,1.3
		c-0.4,0.7-0.7,1-0.9,1.2c-1.6,1.8-3.7,1.9-4.6,1.9c-0.3,0-1.1,0-2-0.3c-2.5-0.8-3.6-2.9-3.6-5.4c0-0.7,0-2.7,1.4-4.3
		c0.7-0.8,1.8-1.8,4.2-1.8c0.7,0,2.9,0.1,4.3,2c1.2,1.7,1.2,4,1.2,4.5H106.8z M110.1,14.3c-0.4-0.2-0.8-0.2-1-0.2
		c-1.3,0-1.9,1-2,1.3c-0.1,0.2-0.2,0.4-0.3,0.8h4.5C111.2,15.9,111.2,14.8,110.1,14.3z"/>
	<path class="st3" d="M119.9,14.4v4.9c0,0.4,0,0.7,0.1,0.9c0.2,0.4,0.7,0.4,0.8,0.4c0.4,0,0.8,0,1.1,0v2.5c-0.2,0-1,0.2-1.7,0.2
		c-0.2,0-0.5,0-0.7,0c-0.3,0-1.3,0-2-0.7c-0.8-0.7-0.8-1.9-0.8-2.9v-5.3H115v-2h1.6V9h3.2v3.5h2.2v2H119.9z"/>
	<path class="st3" d="M129.2,24.1c-0.3,0.8-0.5,1.5-1.1,2.1c-0.7,0.7-1.3,0.8-2.3,0.8h-2.3v-2.6h1.5c0.8,0,1-0.4,1-0.8
		c0-0.3-0.1-0.5-0.2-1.1c-0.1-0.3-0.2-0.7-0.3-1l-2.9-9.3h3.5l1.8,7.9l1.8-7.9h3.5L129.2,24.1z"/>
	<path class="st3" d="M133.8,18.2v-3h6.3v3H133.8z"/>
	<path class="st3" d="M145.7,14.4v8.8h-3.2v-8.8h-1.7v-2h1.7V11c0-0.2,0-1,0.4-1.6c0.5-1,1.9-1.4,3-1.4c0.8,0,1.8,0.2,1.9,0.2v2.5
		c-0.7,0-1.3,0-1.6,0.1c-0.3,0.1-0.4,0.4-0.4,0.5c-0.1,0.3-0.1,0.9-0.1,1.2h2.2v2H145.7z"/>
	<path class="st3" d="M149.1,10.8V8.3h3.2v2.5H149.1z M149.1,23.2v-11h3.2v11H149.1z"/>
	<path class="st3" d="M160.4,23.2H157l-3.6-11h3.4l2,7.5l1.8-7.5h3.3L160.4,23.2z"/>
	<path class="st3" d="M167.5,18.3c0,0.1,0,0.4,0,0.7c0.3,1.3,1.2,2.1,2.5,2.1c0.2,0,0.6,0,1.1-0.2c1.1-0.4,1.6-1.5,1.7-1.8l2.5,1.3
		c-0.4,0.7-0.7,1-0.9,1.2c-1.6,1.8-3.7,1.9-4.6,1.9c-0.3,0-1.1,0-2-0.3c-2.5-0.8-3.6-2.9-3.6-5.4c0-0.7,0-2.7,1.4-4.3
		c0.7-0.8,1.8-1.8,4.2-1.8c0.7,0,2.9,0.1,4.3,2c1.2,1.7,1.2,4,1.2,4.5H167.5z M170.8,14.3c-0.4-0.2-0.8-0.2-1-0.2
		c-1.3,0-1.9,1-2,1.3c-0.1,0.2-0.2,0.4-0.3,0.8h4.5C171.9,15.9,171.9,14.8,170.8,14.3z"/>
	<path class="st3" d="M194.9,16.2c-1.4,2-3.5,2.1-5.7,2.1h-2.5v4.9H183V8.3h7.4c1.4,0,2.7,0.2,3.9,1.2c0.1,0.1,0.4,0.4,0.7,0.7
		c0.3,0.5,0.8,1.6,0.8,3C195.7,13.7,195.7,15,194.9,16.2z M191.6,11.8c-0.6-0.8-1.7-0.8-2.6-0.8h-2.4v4.5h2.3c0.7,0,0.9,0,1.3-0.1
		c1.3-0.2,1.8-1,1.8-2.3C192,12.5,191.8,12.1,191.6,11.8z"/>
	<path class="st3" d="M199.7,18.3c0,0.1,0,0.4,0,0.7c0.3,1.3,1.2,2.1,2.5,2.1c0.2,0,0.6,0,1.1-0.2c1.1-0.4,1.6-1.5,1.7-1.8l2.5,1.3
		c-0.4,0.7-0.7,1-0.9,1.2c-1.6,1.8-3.7,1.9-4.6,1.9c-0.3,0-1.1,0-2-0.3c-2.5-0.8-3.6-2.9-3.6-5.4c0-0.7,0-2.7,1.4-4.3
		c0.7-0.8,1.8-1.8,4.2-1.8c0.7,0,2.9,0.1,4.3,2c1.2,1.7,1.2,4,1.2,4.5H199.7z M203.1,14.3c-0.4-0.2-0.8-0.2-1-0.2
		c-1.3,0-1.9,1-2,1.3c-0.1,0.2-0.2,0.4-0.3,0.8h4.5C204.2,15.9,204.2,14.8,203.1,14.3z"/>
	<path class="st3" d="M214.5,15.1c-0.1,0-0.6,0.1-1,0.2c-0.9,0.3-1,0.8-1,1.7v6.2h-3.2v-11h3.1v1.1c0.3-0.2,0.6-0.5,1.3-0.8
		c0.9-0.4,1.5-0.4,1.9-0.4v2.9L214.5,15.1z"/>
	<path class="st3" d="M225.8,21.6c-1.5,1.7-3.3,1.9-4.1,1.9c-0.5,0-1.5-0.1-2.6-0.6c-2.1-1-2.9-3-2.9-5.2c0-0.5,0-1.6,0.5-2.8
		c1.2-2.9,4-3.1,5-3.1c0.9,0,2.8,0.2,4.3,2c0.1,0.2,0.2,0.3,0.4,0.6l-2.4,1.4c0-0.1-0.2-0.4-0.4-0.6c-0.2-0.2-0.8-0.9-1.8-0.9
		c-0.2,0-0.7,0-1.2,0.4c-1.1,0.8-1.2,2.7-1.2,2.9c0,1,0.3,2.2,1.1,2.8c0.2,0.2,0.7,0.5,1.4,0.5c1.1,0,1.6-0.7,1.8-1
		c0.1-0.2,0.2-0.3,0.3-0.7l2.5,1.3C226.3,20.9,226,21.3,225.8,21.6z"/>
	<path class="st3" d="M230.5,18.3c0,0.1,0,0.4,0,0.7c0.3,1.3,1.2,2.1,2.5,2.1c0.2,0,0.6,0,1.1-0.2c1.1-0.4,1.6-1.5,1.7-1.8l2.5,1.3
		c-0.4,0.7-0.7,1-0.9,1.2c-1.6,1.8-3.7,1.9-4.6,1.9c-0.3,0-1.1,0-2-0.3c-2.5-0.8-3.6-2.9-3.6-5.4c0-0.7,0-2.7,1.4-4.3
		c0.7-0.8,1.8-1.8,4.2-1.8c0.7,0,2.9,0.1,4.3,2c1.2,1.7,1.2,4,1.2,4.5H230.5z M233.9,14.3c-0.4-0.2-0.8-0.2-1-0.2
		c-1.3,0-1.9,1-2,1.3c-0.1,0.2-0.2,0.4-0.3,0.8h4.5C235,15.9,235,14.8,233.9,14.3z"/>
	<path class="st3" d="M246.6,23.2v-6.2c0-0.7,0-1.3-0.1-1.6c-0.1-0.4-0.5-0.9-1.5-0.9c-0.1,0-0.7,0-1.1,0.3
		c-0.5,0.4-0.6,1.1-0.6,2.4v6h-3.3v-11h3.3v1c0.1-0.1,0.2-0.3,0.5-0.5c0.4-0.3,1.3-0.8,2.6-0.8c0.3,0,1.2,0,2,0.4
		c1.4,0.7,1.5,2,1.5,3.3v7.5H246.6z"/>
	<path class="st3" d="M255.9,14.4v4.9c0,0.4,0,0.7,0.1,0.9c0.2,0.4,0.7,0.4,0.8,0.4c0.4,0,0.8,0,1.1,0v2.5c-0.2,0-1,0.2-1.7,0.2
		c-0.2,0-0.5,0-0.7,0c-0.3,0-1.3,0-2-0.7c-0.8-0.7-0.8-1.9-0.8-2.9v-5.3h-1.6v-2h1.6V9h3.2v3.5h2.2v2H255.9z"/>
</g>
<g>
	<g>
		<path class="st3" d="M7,27.7c-0.3,0-0.6-0.2-0.6-0.5c-0.1-0.3,0.2-0.7,0.5-0.7l5.8-0.9c0.3-0.1,0.7,0.2,0.7,0.5
			c0.1,0.3-0.2,0.7-0.5,0.7L7,27.7C7.1,27.7,7,27.7,7,27.7z"/>
	</g>
	<g>
		<path class="st3" d="M7,29.5c-0.3,0-0.6-0.2-0.6-0.5c-0.1-0.3,0.2-0.7,0.5-0.7l5.8-0.9c0.3-0.1,0.7,0.2,0.7,0.5
			c0.1,0.3-0.2,0.7-0.5,0.7L7,29.5C7.1,29.5,7,29.5,7,29.5z"/>
	</g>
	<g>
		<path class="st3" d="M9.9,32c-1,0-1.9-0.7-2.3-1.6C7.5,30,7.7,29.6,8,29.5c0.4-0.1,0.7,0.1,0.9,0.4c0.1,0.4,0.5,0.7,1,0.7
			s0.8-0.3,1-0.7c0.1-0.4,0.5-0.5,0.9-0.4c0.4,0.1,0.5,0.5,0.4,0.9C11.8,31.3,10.9,32,9.9,32z"/>
	</g>
	<path class="st3" d="M19.4,8.8l0-0.1c-0.1-2.5-1.2-4.6-3.1-6.4c-0.7-0.6-1.5-1.1-2.5-1.5C12.6,0.3,11.4,0,10.1,0c0,0,0,0-0.1,0
		c0,0,0,0,0,0L10,0c0,0,0,0,0,0l0,0L9.8,0c0,0,0,0,0,0c0,0-0.1,0-0.1,0C8.6,0,7.5,0.3,6.5,0.7c-1.1,0.4-2.1,1-2.9,1.7
		c-2,1.8-3,3.8-3.1,6.4c-0.1,1.3-0.2,3.8,1.7,6.6c0.6,0.9,1.7,2.8,1.9,3.3c0,0.1,0.1,0.2,0.1,0.3c0.2,0.5,0.4,1.1,0.4,1.9
		c0,0.6,0,1.5,0.9,2.5c0,0,0.1,0.1,0.1,0.1c0.5,0.4,1.3,1,2.4,1h3.5l0-7.7c0-1-1.1-1.9-2.1-2.2c-0.2,0.1-0.5,0.1-0.8,0.1
		c-1.2,0-2.2-0.8-2.5-2c-0.3,0.2-0.7,0.3-1.1,0.3c-1.4,0-2.6-1.1-2.6-2.6c0-0.8,0.4-1.6,1.1-2.1c0.1-1.4,1.2-2.4,2.5-2.4
		c0.4,0,0.7,0.1,1,0.2c0.4-0.8,1.3-1.3,2.2-1.3c0.7,0,1.3,0.3,1.8,0.7c0.3-0.1,0.7-0.2,1.1-0.2c1.1,0,2,0.7,2.4,1.6
		c1.2,0.2,2.1,1.2,2.1,2.5c0,0.1,0,0.1,0,0.2c0.4,0.4,0.6,1,0.6,1.7c0,0.9-0.4,1.6-1.1,2.1c-0.1,1.3-1.2,2.4-2.5,2.4
		c-0.3,0-0.9-0.2-0.9-0.2l0,8.9c0.8-0.2,1.4-0.6,1.8-1c0,0,0.1-0.1,0.1-0.1c0.9-1,0.9-1.9,0.9-2.5c0-0.7,0.2-1.4,0.4-1.8
		c0-0.1,0.1-0.2,0.1-0.3c0.2-0.5,1.3-2.4,1.9-3.3c1.5-2.3,1.7-4.3,1.7-5.8l0-0.1C19.4,9.3,19.4,9,19.4,8.8z"/>
</g>
</svg>
