<?xml version="1.0" encoding="utf-8"?>
<!-- Generator: Adobe Illustrator 19.2.1, SVG Export Plug-In . SVG Version: 6.00 Build 0)  -->
<svg version="1.1" id="Layer_1" xmlns="http://www.w3.org/2000/svg" xmlns:xlink="http://www.w3.org/1999/xlink" x="0px" y="0px"
	 viewBox="0 0 64 64" style="enable-background:new 0 0 64 64;" xml:space="preserve">
<style type="text/css">
	.st0{fill:#EC694F;}
</style>
<g>
	<g>
		<path class="st0" d="M27.7,49.6c-0.5,0-0.9-0.3-0.9-0.8c-0.1-0.5,0.3-1,0.8-1.1l8.7-1.3c0.5-0.1,1,0.3,1.1,0.8
			c0.1,0.5-0.3,1-0.8,1.1l-8.7,1.3C27.8,49.6,27.7,49.6,27.7,49.6z"/>
	</g>
	<g>
		<path class="st0" d="M27.7,52.2c-0.5,0-0.9-0.3-0.9-0.8c-0.1-0.5,0.3-1,0.8-1.1l8.7-1.3c0.5-0.1,1,0.3,1.1,0.8
			c0.1,0.5-0.3,1-0.8,1.1l-8.7,1.3C27.8,52.2,27.7,52.2,27.7,52.2z"/>
	</g>
	<g>
		<path class="st0" d="M32,56c-1.5,0-2.9-1-3.4-2.4c-0.2-0.5,0.1-1.1,0.6-1.3c0.5-0.2,1.1,0.1,1.3,0.6c0.2,0.6,0.8,1.1,1.5,1.1
			c0.7,0,1.3-0.4,1.5-1.1c0.2-0.5,0.8-0.8,1.3-0.6c0.5,0.2,0.8,0.8,0.6,1.3C34.9,55,33.5,56,32,56z"/>
	</g>
	<path class="st0" d="M46.2,21.2l0-0.2c-0.2-3.8-1.7-6.9-4.7-9.5c-1.1-0.9-2.3-1.7-3.7-2.3C36.1,8.5,34.2,8,32.3,8c0,0-0.1,0-0.1,0
		c0,0-0.1,0-0.1,0l-0.1,0c0,0,0,0-0.1,0l0,0l-0.2,0c0,0-0.1,0-0.1,0c0,0-0.1,0-0.1,0c-1.7,0-3.3,0.4-4.8,1c-1.7,0.6-3.1,1.5-4.4,2.5
		c-3,2.6-4.5,5.7-4.7,9.5c-0.1,2-0.3,5.7,2.5,9.9c0.9,1.3,2.5,4.2,2.8,5c0,0.1,0.1,0.3,0.1,0.4c0.3,0.7,0.6,1.7,0.6,2.8
		c0,0.8,0,2.3,1.3,3.7c0,0.1,0.1,0.1,0.2,0.2c0.8,0.7,2,1.5,3.6,1.5h5.2l0-11.6c0-1.5-1.7-2.9-3.2-3.4c-0.4,0.1-0.7,0.2-1.2,0.2
		c-1.8,0-3.3-1.3-3.7-3c-0.5,0.2-1.1,0.4-1.7,0.4c-2.1,0-3.8-1.7-3.8-3.8c0-1.3,0.6-2.4,1.6-3.1c0.1-2,1.8-3.7,3.8-3.7
		c0.5,0,1.1,0.1,1.5,0.3c0.7-1.2,1.9-1.9,3.3-1.9c1,0,1.9,0.4,2.6,1.1c0.5-0.2,1-0.4,1.6-0.4c1.6,0,3,1,3.5,2.4
		c1.8,0.3,3.2,1.9,3.2,3.8c0,0.1,0,0.2,0,0.2c0.6,0.7,0.9,1.5,0.9,2.5c0,1.3-0.6,2.4-1.6,3.1c-0.1,2-1.8,3.6-3.8,3.6
		c-0.5,0-1.4-0.2-1.4-0.2l0,13.3c1.2-0.2,2.1-0.9,2.8-1.4c0.1,0,0.1-0.1,0.2-0.2c1.3-1.4,1.3-2.9,1.3-3.7c0-1,0.4-2,0.6-2.8
		c0.1-0.1,0.1-0.3,0.1-0.4c0.3-0.7,1.9-3.6,2.8-5c2.3-3.4,2.6-6.4,2.6-8.7l0-0.1C46.2,21.9,46.2,21.6,46.2,21.2z"/>
</g>
</svg>
